<svg xmlns="http://www.w3.org/2000/svg" xml:space="preserve" style="fill-rule:evenodd;clip-rule:evenodd;stroke-linecap:round;stroke-linejoin:round" viewBox="0 0 64 64"><defs><style>*{stroke:#000}@media (prefers-color-scheme:dark){*{stroke:#fff}}</style></defs><path d="M50.667 21.333A5.336 5.336 0 0 0 45.333 16H8a5.335 5.335 0 0 0-5.333 5.333v21.334A5.335 5.335 0 0 0 8 48h37.333a5.336 5.336 0 0 0 5.334-5.333z" style="fill:#b0ff5c;fill-opacity:.75;stroke:none" transform="translate(5 5)"/><path d="M50.667 21.333A5.336 5.336 0 0 0 45.333 16H8a5.335 5.335 0 0 0-5.333 5.333v21.334A5.335 5.335 0 0 0 8 48h37.333a5.336 5.336 0 0 0 5.334-5.333z" style="fill:none;stroke-width:2px"/><path d="M61.333 34.667v-5.334" style="fill:none;fill-rule:nonzero;stroke-width:2px"/></svg>