<svg xmlns="http://www.w3.org/2000/svg" xml:space="preserve" style="fill-rule:evenodd;clip-rule:evenodd;stroke-linecap:round;stroke-linejoin:round" viewBox="0 0 64 64"><defs><style>*{stroke:#000}@media (prefers-color-scheme:dark){*{stroke:#fff}}</style></defs><path d="M51.733 40a4.41 4.41 0 0 0 .88 4.853l.16.16a5.336 5.336 0 0 1 0 7.547 5.335 5.335 0 0 1-7.546 0l-.16-.16a4.41 4.41 0 0 0-4.854-.88 4.41 4.41 0 0 0-2.666 4.027V56c0 2.926-2.408 5.333-5.334 5.333S26.88 58.926 26.88 56v-.24A4.41 4.41 0 0 0 24 51.733a4.41 4.41 0 0 0-4.853.88l-.16.16a5.336 5.336 0 0 1-7.547 0 5.335 5.335 0 0 1 0-7.546l.16-.16a4.41 4.41 0 0 0 .88-4.854 4.41 4.41 0 0 0-4.027-2.666H8c-2.926 0-5.333-2.408-5.333-5.334S5.074 26.88 8 26.88h.24A4.41 4.41 0 0 0 12.267 24a4.41 4.41 0 0 0-.88-4.853l-.16-.16a5.336 5.336 0 0 1 0-7.547 5.335 5.335 0 0 1 7.546 0l.16.16a4.41 4.41 0 0 0 4.854.88H24a4.41 4.41 0 0 0 2.667-4.027V8c0-2.926 2.407-5.333 5.333-5.333S37.333 5.074 37.333 8v.24A4.41 4.41 0 0 0 40 12.267a4.41 4.41 0 0 0 4.853-.88l.16-.16a5.336 5.336 0 0 1 7.547 0 5.335 5.335 0 0 1 0 7.546l-.16.16a4.41 4.41 0 0 0-.88 4.854V24a4.41 4.41 0 0 0 4.027 2.667H56c2.926 0 5.333 2.407 5.333 5.333S58.926 37.333 56 37.333h-.24A4.41 4.41 0 0 0 51.733 40" style="fill:#ffd674;fill-opacity:.75;fill-rule:nonzero;stroke:none" transform="translate(10.454 10.454)scale(.82954)"/><circle cx="32" cy="32" r="8" style="fill:none;stroke-width:2px" transform="translate(5.455 5.455)scale(.82954)"/><path d="M51.733 40a4.41 4.41 0 0 0 .88 4.853l.16.16a5.336 5.336 0 0 1 0 7.547 5.335 5.335 0 0 1-7.546 0l-.16-.16a4.41 4.41 0 0 0-4.854-.88 4.41 4.41 0 0 0-2.666 4.027V56c0 2.926-2.408 5.333-5.334 5.333S26.88 58.926 26.88 56v-.24A4.41 4.41 0 0 0 24 51.733a4.41 4.41 0 0 0-4.853.88l-.16.16a5.336 5.336 0 0 1-7.547 0 5.335 5.335 0 0 1 0-7.546l.16-.16a4.41 4.41 0 0 0 .88-4.854 4.41 4.41 0 0 0-4.027-2.666H8c-2.926 0-5.333-2.408-5.333-5.334S5.074 26.88 8 26.88h.24A4.41 4.41 0 0 0 12.267 24a4.41 4.41 0 0 0-.88-4.853l-.16-.16a5.336 5.336 0 0 1 0-7.547 5.335 5.335 0 0 1 7.546 0l.16.16a4.41 4.41 0 0 0 4.854.88H24a4.41 4.41 0 0 0 2.667-4.027V8c0-2.926 2.407-5.333 5.333-5.333S37.333 5.074 37.333 8v.24A4.41 4.41 0 0 0 40 12.267a4.41 4.41 0 0 0 4.853-.88l.16-.16a5.336 5.336 0 0 1 7.547 0 5.335 5.335 0 0 1 0 7.546l-.16.16a4.41 4.41 0 0 0-.88 4.854V24a4.41 4.41 0 0 0 4.027 2.667H56c2.926 0 5.333 2.407 5.333 5.333S58.926 37.333 56 37.333h-.24A4.41 4.41 0 0 0 51.733 40" style="fill:none;fill-rule:nonzero;stroke-width:2px" transform="translate(5.455 5.455)scale(.82954)"/></svg>