<svg xmlns="http://www.w3.org/2000/svg" xml:space="preserve" style="fill-rule:evenodd;clip-rule:evenodd;stroke-linecap:round;stroke-linejoin:round" viewBox="0 0 64 64"><defs><style>*{stroke:#000}@media (prefers-color-scheme:dark){*{stroke:#fff}}</style></defs><path d="M56 42.667V21.333a5.34 5.34 0 0 0-2.667-4.613L34.667 6.053a5.34 5.34 0 0 0-5.334 0L10.667 16.72A5.34 5.34 0 0 0 8 21.333v21.334a5.34 5.34 0 0 0 2.667 4.613l18.666 10.667a5.34 5.34 0 0 0 5.334 0L53.333 47.28A5.34 5.34 0 0 0 56 42.667" style="fill:#ffc8be;fill-rule:nonzero;stroke:none" transform="translate(4 5)"/><path d="M56 42.667V21.333a5.34 5.34 0 0 0-2.667-4.613L34.667 6.053a5.34 5.34 0 0 0-5.334 0L10.667 16.72A5.34 5.34 0 0 0 8 21.333v21.334a5.34 5.34 0 0 0 2.667 4.613l18.666 10.667a5.34 5.34 0 0 0 5.334 0L53.333 47.28A5.34 5.34 0 0 0 56 42.667" style="fill:none;fill-rule:nonzero;stroke-width:2px" transform="translate(0 -1)"/><path d="m20 11.227 12 6.933 12-6.933M20 50.773v-11.84L8 32M56 32l-12 6.933v11.84M8.72 18.56 32 32.027 55.28 18.56M32 57.66V32" style="fill:none;fill-rule:nonzero;stroke-width:2px"/></svg>