<svg width="415" height="212" xmlns="http://www.w3.org/2000/svg"><g fill="currentColor" fill-rule="evenodd"><path d="M202.81 52.566c.217 0-.143-.106-.143-.325V49.15c0-.327.458-1.14.785-2.443 2.82-.757 4.38-1.517 4.38-2.278 0-.867-1.861-1.896-5.875-3.092-1.085 1.086-2.001 1.953-3.304 2.604-1.521 1.302-2.653 2.877-2.653 4.72v1.465c0 .76-.113 1.401.212 2.484 2.604 3.8 3.63 6.39 3.63 6.39h.487c.218 0 .922-.65 2.116-1.3 1.084.434 1.898 1.3 2.442 1.3h1.79c.326 0-.01.025 1.323-.737V58.1c-4-1.083-5.19-2.93-5.19-5.534"/><path d="M202.667 85.281c0-.866.037-1.681-.504-2.441-.76-.325-.83-1.79-.83-4.395v-.162c0-3.907-.122-6.943-.338-9.115 0-2.06-.552-3.092-1.635-3.092-.544 0-1.143.54-1.793 1.843-.435 3.905-1.09 5.748-1.958 5.748h-.488s-.454-.862-1.788-2.058v-8.464c0-.976-1.005-1.464-1.221-1.464-1.196.65-1.67 2.172-1.67 4.558 0 2.929.225 5.805.55 8.626l-.947 2.442c-.434 0-1.558-.164-3.185-.49-.87-1.082-1.527-2.06-2.86-2.93v-3.416l.435-2.931c-.22 0-.272-.107-.272-.325-.326 0-.95.814-1.926 2.44-1.412-.431-2.102-1.734-2.102-3.904 0-4.014.486-7.326 1.898-9.93 4.123-.976 5.967-1.79 5.967-2.441v-.65c0-.433.061-.92-.264-1.466-.544-1.408-1.84-2.548-4.119-3.417-.977-.978-1.409-3.147-1.409-6.511.867-4.883 1.656-7.324 2.307-7.324.432-2.495 1.918-4.501 3.87-6.023 1.083-.757 3.615-2.116 7.615-4.07v-.812c0-.216-.439-.38-.765-.488-4.558 0-6.974.272-6.974.813-1.737 0-5.272 2.66-9.936 7.976-2.497 3.255-4.992 9.008-7.658 17.252v1.14c0 7.38 1.782 13.835 4.822 19.368 2.386 5.208 7.238 9.704 14.292 13.717 6.4 2.823 10.548 4.115 12.176 4.115h.326c.65 0 .384-.687.384-1.556v-.163ZM328 202.143c0-13.778-3.913-26.778-11.183-39.474-16.926-25.716-40.425-38.335-69.938-38.335h-88.866c-16.496 0-16.496 4-1.628 4h92.122c11.934 0 24.1 2.916 36.362 9.316C310.912 153.06 324 176.32 324 208.003V212h4v-9.857Z"/><path d="M84.43 202.143c0-13.778 3.377-26.778 9.651-39.474 14.61-25.716 34.89-38.335 60.362-38.335h76.697c14.237 0 14.237 4 1.405 4h-79.507c-10.3 0-20.8 2.916-31.383 9.316-22.477 15.41-33.773 38.67-33.773 70.353V212H84.43v-9.857ZM233.696 75h-2.28c-2.062 1.333-3.852 2.617-5.37 2.617-.218 0-1.11-.262-2.193-.481-1.521.325-2.52.605-2.52 1.147v.65l.567 1.628c-.544.544-1.13.562-1.996.668-1.847-.325-2.647-.896-2.647-3.562h-.163c-.325 2.666-.814 3.674-1.465 5.302 0 1.302.868 2.698 2.604 2.698h.977c1.735-1.334 3.743-2.39 6.022-2.39 1.193-2.821 2.658-4.206 4.394-4.206 1.844-1.41 2.93-2.103 3.256-2.103.107 0 .542-.387 1.302-1.797 0-.327-.163-.171-.488-.171"/><g fill-rule="nonzero"><path d="M175.73 80.561c-6.62-7.702-10.397-14.322-10.397-19.857v-3.58c0-7.377 1.33-14.485 4.152-21.321 3.798-9.658 10.919-16.71 21.444-21.16 8.03-2.604 13.164-3.906 15.443-3.906 4.123.65 6.879 1.248 8.29 1.79 7.594 1.846 14.282 5.046 19.6 9.604C243.266 31.464 248 43.127 248 57.124v1.465c-1.333 4.45-2.513 9.928-6.42 16.439-9.765 12.588-21.601 18.88-35.273 18.88-11.287 0-21.463-4.448-30.578-13.347Zm-13.063-20.345c-1.334.761-6.262 2.55-14.615 5.372-10.092 4.124-23.612 8.03-40.43 11.719-.22-.652-.793-3.851-1.66-9.604 22.026-6.4 38.123-15.856 48.323-28.12C168.935 15.28 185.735 3 204.724 3h3.256c16.383 0 31.303 9.24 44.759 27.47 2.71 4.666 5.588 8.797 8.626 12.269 7.052 7.16 15.552 13.108 25.318 17.772 14.322 5.752 22.65 8.657 25.317 8.657v.488c-1.333 0-2.667 2.767-2.667 8.301v.326c-1.333 0-7.301-1.466-18.37-4.395-2.822 0-16.344-4.395-40.432-13.184l-.687-8.625c0-6.186-1.864-13.075-5.55-20.671-2.28-5.099-6.52-9.983-12.706-14.65-7.487-4.882-15.792-7.702-24.907-8.462-1.845 0-4.917.488-9.474 1.464-23.112 6.079-34.54 22.843-34.54 50.293v.163ZM324 157.155c-.785-1.538-6.577-9.172-15.583-18.506-17.145-14.865-35.226-22.316-54.538-22.316H228.65c-.435 0-.651-.722-.651-1.917v-2.768c0-2.059.488-3.85 1.464-5.37 4.664-8.029 18.067-12.045 40.203-12.045 27.885 0 64.94 5.102 111.165 15.3 2.93-1.734 4.393-5.21 4.393-10.417 0-.976.027-3.255-.298-6.836-3.255-.65-18.26-2.657-43.594-6.023v-.976c1.334.326 2.468.488 3.555.488 10.523 0 31.045-2.433 61.755-7.21 1.408.326 2.346.44 2.997.44h.813c2.17 0 2.88-1.095 4.214-3.483V74.05c-1.334-2.93-3.346-4.384-5.19-4.384h-.325l-1.14.209c-2.388 2.604-3.69 3.79-3.907 3.79h-1.464c-14.758 2.667-27.128 4-37.11 4h-3.092c-8.463 0-15.68-.749-21.647-2.051-.219 0-.381-1.352-.488-3.956-2.497-1.083-9.603-2.792-21.321-5.07l-3.256.964c-5.318-1.302-11.287-3.098-17.903-5.377a127.369 127.369 0 0 1-21.16-10.42c-7.921-4.773-14.216-11.088-18.88-18.468C243.027 11.478 227.185.333 210.259.333h-7.814c-16.6 0-32.281 11.102-47.036 32.26-7.162 13.456-23.764 23.74-49.805 33.074h-.27v-1.544c0-3.582-3.202-6.076-9.713-7.487L75.525 61.03c-1.301 0-2.192 3.526-2.192 10.578v.326l.592 1.126C66.655 74.363 59.487 75 51.893 75h-3.418c-10.635 0-21.431-1.016-32.39-3.079-4.124-.432-6.346-.75-6.673-.97-1.845-2.494-3.379-3.74-4.461-3.74-2.063 0-3.618 1.469-4.951 4.398v1.466c0 2.278 1.328 3.258 3.716 3.258h.813c.652 0 1.682.08 3.094-.245 30.814 4.667 51.028 7.119 61.013 7.119 2.279 0 4.697-.148 4.697-.692v3.254c-2.666.652-17.718 2.66-44.737 6.023-1.195 0-1.697 2.441-1.697 7.324.106 5.427 1.617 8.899 4.44 10.417 46.44-10.198 83.3-15.3 110.537-15.3 6.185 0 12.543.382 19.272 1.139 15.3 2.824 22.852 8.248 22.852 16.276v2.768c0 1.195-.001 1.917-.433 1.917h-32.552c2.14 1.771 0 1.771 5.045 4h92.772c20.724 0 39.063 6.538 55.013 19.99 7.92 7.597 13.612 14.681 14.89 16.832 1.28 2.15 14.265 17.272 14.316 54.845H337c0-36.31-12.215-53.308-13-54.845Z"/><path d="M85.452 155.775c6.192-9.907 4.845-7.792 13.85-17.126 17.145-14.865 35.227-22.316 54.539-22.316h102.864c-2.404 1.848-2.404 1.848-5.046 4h-92.772c-20.724 0-39.062 6.538-55.013 19.99-7.92 7.597-12.73 15.526-14.01 17.677-1.279 2.15-10.813 16.427-10.864 54h-4c0-36.31 4.261-46.318 10.452-56.225Z"/></g><path d="M236.463 55h.162l.814-.713c.217-3.147.596-4.62 1.14-4.62h.325l-.237 1.597v3.419c0 1.085.832 1.65 1.702 2.984h1.627c.543 0 .67-.812.67-2.008v-.326c0-6.942-.915-10.416-1.349-10.416-1.736-1.409-2.65-2.768-2.65-4.069v-1.953c0-.216.074.105-.251.105h-.325c-1.628 1.333-2.604 2.796-2.931 2.796-.435 0-.76-1.07-.976-2.916l.325-7.78c-.218-.977-.488-1.433-.813-1.433h-.815c-.325 0-.881.332-.881 1.416v10.584h-1.397c-.435 0-1.27-.112-1.27-.331v-4.557c0-.542-.288-.814-.504-.814-1.628 0-2.286.651-2.286 1.952.216 3.04.402 4.884.402 5.535-.218 3.799-.286 5.752-.286 5.859-.544 0-1.176 1.245-1.935 3.414 0 .544.615.942 1.81 2.275h3.58c.326 0 .597-.59.815-1.461l-.49-2.262c.218-.65.597-1.61 1.14-1.61h1.466c.65 0 1.302.172 1.952 1.038.434 3.04.922 4.295 1.466 4.295"/></g></svg>