<svg height="251" viewBox="0 0 962 251" width="962" xmlns="http://www.w3.org/2000/svg"><g fill="#000" fill-rule="evenodd"><g transform="translate(0 1)"><path d="m189.276619 49.0946604c.20252 0-.133457-.099-.133457-.3035378v-2.8868773c0-.3054057.427437-1.064717.732617-2.2816698 2.631823-.7070095 4.087725-1.4168208 4.087725-2.1275661 0-.8097452-1.736816-1.7707924-5.482965-2.8878113-1.012598 1.014283-1.867474 1.8240283-3.083526 2.4320377-1.419504 1.2160189-2.475967 2.6870095-2.475967 4.4083019v1.3682548c0 .7098113-.105459 1.3084811.197854 2.3199622 2.430236 3.5490566 3.387772 5.9680189 3.387772 5.9680189h.454503c.203453 0 .860475-.6070755 1.9748-1.214151 1.011666.4053397 1.771348 1.214151 2.279047 1.214151h1.670555c.304246 0-.009333.023349 1.234717-.6883302v-.1522359c-3.733083-1.0114811-4.843675-2.7365094-4.843675-5.1685471"/><path d="m189.143162 79.6492358c0-.8088113.034531-1.5699905-.470369-2.2798018-.709286-.3035378-.774615-1.6717925-.774615-4.1047642v-.1513019c0-3.6489905-.113859-6.4845-.315445-8.513066 0-1.9239623-.515165-2.8878113-1.525898-2.8878113-.507699 0-1.066728.5043396-1.673354 1.7212924-.405972 3.6471227-1.017265 5.3684151-1.827344 5.3684151h-.455436c13.698547 28.783783-.423705-.8050755-1.668688-1.9220943v-7.9050566c0-.9115472-.937937-1.3673208-1.139523-1.3673208-1.116192.6070755-1.558562 2.0285661-1.558562 4.257 0 2.7355755.209986 5.421651.513299 8.0563585l-.883808 2.2807359c-.405039 0-1.454035-.1531699-2.972467-.4576416-.811945-1.0105471-1.425104-1.9239622-2.669154-2.7365094v-3.1904151l.405973-2.7374434c-.205319 0-.253849-.0999339-.253849-.3035377-.304247 0-.886608.7602453-1.79748 2.2788679-1.317778-.4025377-1.961735-1.6194906-1.961735-3.6461887 0-3.7489245.45357-6.8422075 1.771348-9.2742453 3.847875-.9115471 5.568826-1.6717924 5.568826-2.2798018v-.6070755c0-.4044057.056929-.8592453-.246383-1.3691887-.5077-1.3150189-1.717218-2.3797358-3.844142-3.191349-.911806-.9134151-1.314979-2.9391793-1.314979-6.0810283.809146-4.5605378 1.545497-6.8403397 2.153056-6.8403397.403173-2.3302358 1.790013-4.2037641 3.611757-5.6252547 1.010732-.7070094 3.373774-1.9762641 7.106856-3.8012264v-.7583774c0-.2017358-.409706-.3549056-.713952-.4557735-4.253847 0-6.508629.2540377-6.508629.7593113-1.621091 0-4.920203 2.4843396-9.272977 7.449283-2.330377 3.0400472-4.658888 8.4131321-7.146987 16.112717v1.064717c0 6.8926415 1.663088 12.9213679 4.500231 18.0889811 2.226784 4.8640755 6.755013 9.0631698 13.338304 12.8111604 5.972932 2.6365754 9.844139 3.8432547 11.363503 3.8432547h.304247c.606626 0 .358376-.6416321.358376-1.4532453zm116.969609 109.1446982c0-12.868132-3.651888-25.009642-10.436766-36.867226-15.796538-24.017774-37.727465-35.803444-65.271082-35.803444h-82.936029c-15.395232 0-15.395232 3.735849-1.519364 3.735849h85.974758c11.137652 0 22.491822 2.723434 33.935587 8.700793 24.305167 14.392358 36.519814 36.11632 36.519814 65.707047v3.733047h3.733082z"/><path d="m78.7960404 188.793934c0-12.868132 3.151655-25.009642 9.006995-36.867226 13.6350846-24.017774 32.5618126-35.803444 56.3340826-35.803444h71.579059c13.286974 0 13.286974 3.735849 1.311245 3.735849h-74.201549c-9.612688 0-19.41203 2.723434-29.288833 8.700793-20.9771241 14.392358-31.5193493 36.11632-31.5193493 65.707047v3.733047h-3.2216503zm139.3055756-118.7467642h-2.127857c-1.924404 1.2449717-3.594958 2.4441793-5.011663 2.4441793-.203453 0-1.035931-.2446982-2.046663-.4492359-1.419504.3035377-2.351842.5650472-2.351842 1.0712547v.6070755l.529165 1.5204906c-.507699.5080754-1.054596.5248868-1.862808.6238868-1.723751-.3035378-2.470368-.8368302-2.470368-3.3267736h-.152123c-.303313 2.4899434-.759682 3.4313773-1.367241 4.9518679 0 1.2160189.810079 2.5198302 2.430236 2.5198302h.911806c1.619224-1.2459057 3.493232-2.2321698 5.620156-2.2321698 1.113391-2.6347076 2.480633-3.9282453 4.100791-3.9282453 1.720951-1.3168868 2.734483-1.9641227 3.038729-1.9641227.09986 0 .505833-.3614433 1.215118-1.6783301 0-.3054057-.152123-.1597076-.455436-.1597076z"/><path d="m164.00365 75.240934c-6.178251-7.1933774-9.703215-13.3762076-9.703215-18.5456887v-3.3435849c0-6.8898396 1.24125-13.5284434 3.87494-19.9130095 3.544562-9.0202075 10.190382-15.6065094 20.013056-19.7626415 7.494163-2.4320377 12.285574-3.6480566 14.412498-3.6480566 3.847875.6070755 6.419969 1.1655849 7.736814 1.6717925 7.087257 1.7240943 13.328971 4.7127736 18.292104 8.9697736 8.403169 8.7166698 12.821273 19.6094717 12.821273 32.6821415v1.3682547c-1.24405 4.1561321-2.34531 9.2723774-5.991598 15.3534057-9.113388 11.7567169-20.159579 17.6332075-32.919255 17.6332075-10.533826 0-20.030788-4.1542641-28.53755-12.4655943zm-12.191314-19.0014623c-1.244983.7107453-5.844141 2.3816038-13.639751 5.0172453-9.418567 3.8516604-22.036386 7.499717-37.732132 10.9451038-.205319-.6089434-.7400834-3.5966887-1.5492291-8.9697736 20.5562191-5.9773585 35.5790771-14.8089057 45.0984371-26.2630189 13.672415-22.6980849 29.351362-34.16714151 47.073238-34.16714151h3.038729c15.289773 0 29.214171 8.62981131 41.772261 25.65594341 2.529164 4.3578679 5.215117 8.216066 8.050393 11.458783 6.581424 6.6871698 14.514225 12.2423774 23.628546 16.5983774 13.366302 5.3721509 21.13858 8.0853113 23.627613 8.0853113v.4557736c-1.24405 0-2.489033 2.5842736-2.489033 7.7528207v.3044717c-1.24405 0-6.813809-1.3691887-17.144182-4.1047641-2.633689 0-15.253375-4.1047642-37.733998-12.3133585l-.641157-8.0554245c0-5.7774906-1.739617-12.2115566-5.179652-19.305934-2.127857-4.7622736-6.084925-9.3237453-11.858137-13.6825472-6.987398-4.5596038-14.73821-7.19337734-23.244972-7.90318866-1.721884 0-4.588892.45577359-8.841806 1.36732076-21.569751 5.6775566-32.235168 21.3345-32.235168 46.9717641zm150.567353 90.5373683c-.732618-1.436434-6.138122-8.566302-14.543157-17.283906-16.000925-13.883349-32.875392-20.842302-50.898714-20.842302h-23.545485c-.405973 0-.60756-.674321-.60756-1.790406v-2.585207c0-1.923028.455437-3.595755 1.366309-5.0153775 4.352774-7.498783 16.8614-11.2495755 37.520279-11.2495755 26.024252 0 60.606596 4.7650755 103.747031 14.289623 2.734483-1.619491 4.099858-4.8659437 4.099858-9.7290852 0-.9115472.025199-3.0400472-.278114-6.3845661-3.037796-.6070754-17.041522-2.4815377-40.685001-5.6252547v-.9115472c1.244983.3044717 2.303312.4557736 3.317777.4557736 9.820807 0 28.973388-2.2723302 57.634129-6.7338679 1.314045.3044717 2.189453.4109434 2.797012.4109434h.758749c2.025197 0 2.68782-1.0226887 3.932803-3.2529906v-1.3691886c-1.244983-2.7365095-3.122724-4.0944906-4.843675-4.0944906h-.303313l-1.063928.1951981c-2.228651 2.4320377-3.443769 3.539717-3.646289 3.539717h-1.366308c-13.773208 2.4908773-25.317766 3.735849-34.633674 3.735849h-2.885672c-7.89827 0-14.633684-.6995377-20.20251-1.9155566-.204386 0-.355576-1.2627169-.455436-3.6947547-2.330377-1.0114811-8.962198-2.6076226-19.898264-4.7351887l-3.038729.9003397c-4.963133-1.2160189-10.533826-2.8934151-16.708344-5.0219151-6.869286-2.6257183-13.480293-5.8836459-19.748007-9.7318868-7.392437-4.4578019-13.267375-10.3557736-17.62015-17.2484151-13.771341-20.368783-28.556215-30.77779247-44.352754-30.77779247h-7.292577c-15.492292 0-30.126909 10.36884907-43.897318 30.12962267-6.684084 12.5673962-22.178243 22.1722641-46.481544 30.8898679h-.251983v-1.4420377c0-3.3454529-2.9883326-5.6747548-9.0648578-6.9925755l-18.7550068 4.1038302c-1.2141852 0-2.0457293 3.2931509-2.0457293 9.8794528v.3044717l.5524962 1.0516415c-6.7848776 1.2169528-13.4745615 1.8118868-20.5618188 1.8118868h-3.1899191c-9.9253332 0-20.0009231-.9489056-30.2286361-2.8756698-3.8488081-.4034717-5.9225355-.7004717-6.227715-.9059434-1.72188434-2.3293019-3.15352151-3.4930189-4.16332034-3.4930189-1.92533734 0-3.37657319 1.3719906-4.62062296 4.1075661v1.3691887c0 2.127566 1.23938341 3.042849 3.46803371 3.042849h.75874903c.60849246 0 1.56976123.074717 2.88753938-.2288207 28.75780158 4.3588018 47.62293438 6.6488773 56.94164178 6.6488773 2.1269238 0 4.3835722-.1382264 4.3835722-.6463019v3.0391132c-2.4880995.6089434-16.5356893 2.4843397-41.7517288 5.6252548-1.1152584 0-1.5837603 2.2798018-1.5837603 6.8403396.0989267 5.0686132 1.5090987 8.3113302 4.1437217 9.7290852 43.3410887-9.5245475 77.7414443-14.289623 103.1609373-14.289623 5.772279 0 11.706014.3567736 17.985992 1.0637831 14.279041 2.6375094 21.3271 7.7033207 21.3271 15.2011699v2.585207c0 1.116085-.000933 1.790406-.404106 1.790406h-30.379826c1.997199 1.654047 0 1.654047 4.708351 3.735849h86.581384c19.341101 0 36.456351 6.106245 51.342018 18.669906 7.391503 7.095311 12.70368 13.7115 13.8964 15.720453 1.194586 2.008018 13.313105 16.131396 13.360702 51.22316h3.685486c0-33.91217-11.399901-49.78766-12.132518-51.22316z"/><path d="m79.749843 145.487972c5.7788119-9.252764 4.5216963-7.277434 12.9257984-15.995038 16.0009256-13.883349 32.8763246-20.842302 50.8996476-20.842302h95.999952c-2.243583 1.725962-2.243583 1.725962-4.709284 3.735849h-86.581384c-19.341101 0-36.455418 6.106245-51.3420182 18.669906-7.3915035 7.095311-11.8805353 14.500698-13.0751217 16.509651-1.1936531 2.008019-10.0914555 15.342198-10.1390523 50.433962h-3.7330825c0-33.91217 3.9766662-43.259264 9.7545447-52.512028z"/><path d="m220.683976 51.3679245h.15119l.759682-.6659151c.20252-2.9391792.55623-4.3149056 1.063929-4.3149056h.303313l-.221185 1.4915377v3.193217c0 1.013349.776481 1.5410377 1.588426 2.7869434h1.518432c.506766 0 .625291-.7583774.625291-1.8753962v-.3044717c0-6.4835661-.853943-9.728151-1.258982-9.728151-1.620158-1.3159528-2.473167-2.5852075-2.473167-3.8002924v-1.8240283c0-.2017359.069062.098066-.234251.098066h-.303313c-1.519365 1.2449717-2.430237 2.6113585-2.735416 2.6113585-.405973 0-.709286-.9993396-.910873-2.723434l.303313-7.2662264c-.203453-.9124811-.455436-1.3383679-.758749-1.3383679h-.760615c-.303313 0-.822212.3100755-.822212 1.3224906v9.8850566h-1.303779c-.405973 0-1.185254-.1046038-1.185254-.3091415v-4.2560661c0-.5062075-.268781-.7602453-.470368-.7602453-1.519365 0-2.133457.6080095-2.133457 1.8230944.201587 2.8392453.375175 4.5614717.375175 5.1694811-.203453 3.5481226-.266915 5.3721509-.266915 5.4720849-.507699 0-1.097526 1.162783-1.805879 3.1885472 0 .5080754.573962.8797924 1.68922 2.1247641h3.341109c.304246 0 .557162-.5510377.760615-1.3645188l-.457302-2.1126227c.203453-.6070755.557162-1.5036792 1.063928-1.5036792h1.368175c.606626 0 1.215119.1606415 1.821744.9694528.40504 2.8392453.860476 4.0113679 1.368175 4.0113679"/></g><g transform="translate(387 1)"><path d="m202.666662 151.999996c.696.462667 1.506666 1.392 2.436 2.784.925333.924 1.506666 1.62 1.739999 2.088.696.696 1.218667 1.446667 1.566667 2.262667.348.809333.750667 1.446666 1.218667 1.913333.696 1.158667 1.157333 2.144 1.392 2.958667.228.809333.461333 1.332.696 1.566666v.346667-.346667c0-.234666-.12-.817333-.349334-1.741333-.233333-.929333-.581333-1.973333-1.042666-3.132l-1.045334-2.088c1.621334 1.621333 3.306667 3.133333 5.046667 4.525333 1.74 1.390667 3.536 3.012 5.394667 4.872 1.619999 1.392 3.246666 2.784 4.871999 4.176 1.621334 1.392 3.361334 2.785333 5.221334 4.176 1.853333 1.62 3.707999 3.072 5.567999 4.350666 1.854667 1.272 3.709334 2.609334 5.568 4.002667 1.854667 1.157333 3.594667 2.261333 5.221334 3.306667 1.619999 1.044 3.359999 2.141333 5.219999 3.305333 4.405334 2.316 8.701333 2.550666 12.877333.696l1.044-.348.696-.348h.348v-.348h.348l.348-.348c.924-.930667 1.74-1.512 2.436-1.74l1.044-1.044.696-.696.349334-.348 1.042666-1.045333.696-.694667 2.089333-2.089333c.461334-.466667.750667-.814667.869334-1.044.114666-.233334.402666-.581334.870666-1.044l.696-.694667c.229334-.234666.349334-.468.349334-.697333h.694666c0-.466667.114667-.869333.348-1.217333.229334-.349334.461334-.756.696-1.218667.462667-.929333.810667-1.74 1.044-2.436.228-.696.348-1.392.348-2.088.228-1.164.348-2.670667.348-4.524-.233333-.468-.408-1.044-.522666-1.741333-.118667-.694667-.292-1.277333-.52-1.74 0-.466667-.06-.816-.174667-1.044-.12-.233333-.174667-.466667-.174667-.694667-.233333-.469333-.408-.697333-.522666-.697333-.118667 0-.172-.233333-.172-.696-.469334-.468-.697334-.814667-.697334-1.042667 0-.234666-.06-.469333-.174666-.697333-.118667-.234667-.173334-.466667-.173334-.696-.696-.696-1.164-1.277333-1.392-1.74l-.696-.696-.348-.348c-.234666 0-.348-.06-.348-.174667 0-.118666-.118666-.173333-.348-.173333.229334 0 .348.054667.348.173333 0 .114667.113334.174667.348.174667 0 .228.113334.462667.348.696l.348.696c.229334.229333.576.809333 1.044 1.74 0 .462667.054667.750667.174667.870667.114667.114666.174667.288.174667.521333l.694666 1.392c0 .697333.114667 1.566667.348 2.610667.229334 1.044.349334 2.142666.349334 3.306666 0 1.853333-.12 3.245333-.349334 4.176-.468 1.392-.929333 2.550667-1.392 3.48-.233333.462667-.696 1.044-1.392 1.741333 0 .228-.12.346667-.348.346667-.234666.228-.348.462667-.348.696-.233333.229333-.408.349333-.521333.349333-.12 0-.294667.113334-.522667.346667-.468.228-.756.462667-.870666.697333-.118667.228-.408.574667-.869333 1.042667l-1.741334 1.741333c-.466666.461333-.814666.694667-1.044.694667l-1.044 1.044-.348.349333-.696.348c-.233333.228-.408.348-.521333.348-.12 0-.294667.114667-.522667.346667-.696.697333-1.392 1.158666-2.088 1.393333l-.348.348h-.348v.348h-.348l-.696.348h-.348c-1.86.696-3.479999.924-4.873333.696-.233333 0-1.042666-.234667-2.436-.696-.233333 0-.466666-.118667-.696-.348h-.346666v-.348h-.349334l-.348-.348c-1.858666-.930667-3.6-1.973333-5.22-3.132-1.626666-1.164-3.251999-2.322667-4.871999-3.481333-1.86-1.164-3.774667-2.436-5.742667-3.828-1.974667-1.392-3.888-2.670667-5.742666-3.828-1.86-1.392-3.6-2.730667-5.221334-4.002667-1.625333-1.277333-3.365333-2.610666-5.22-4.002666-6.263999-5.105333-12.066666-9.864-17.401332-14.269333zm13.573333-149.3053294c-3.252-.46266666-6.265334-.34799999-9.048.34799999-1.86.23333333-3.601333.58266665-5.221333 1.04399997-1.626667.46799999-3.365334 1.27733331-5.22 2.43733328-.696.69466665-1.452 1.39199996-2.262667 2.08666661-.816.69599998-1.452 1.39199995-1.914666 2.08799995-1.392 1.6266666-2.436 3.3666666-3.132 5.2199999-1.164 2.0893332-1.913334 4.1773332-2.261334 6.2653331-.348 2.088-.756 4.1773333-1.218666 6.2653332-.234667 4.4039999-.234667 8.6999998 0 12.8759997.228 1.1586666.402666 2.2026666.521333 3.1333333.114667.9239999.174667 1.9679999.174667 3.1306665.229333.4626667.348.9853334.348 1.5666667 0 .5773333.114666 1.0986666.348 1.5666666 0 .4626667.054666.984.174666 1.5666666.113334.5746667.173334 1.0973333.173334 1.5666667l1.044 6.2639998c.228 1.1573333.462666 2.1413333.696 2.9586666.228.8093333.462666 1.7933333.696 2.9573332 0 .228.054666.4626667.174666.696.113334.2293334.173334.4626667.173334.696 0 .4626667.054666.7506667.174666.8706667.114667.1146666.173334.2866666.173334.5213333 0 .4626666.054666.9253333.174666 1.3919999.113334.4626667.173334.9253334.173334 1.392.462666 1.392.810666 2.316 1.044 2.7839999.229333.4626667.348.924.348 1.3933333 0 .4626667.114666.924.348 1.392.229333.4626667.577333 1.392 1.045333 2.7839999.461333.4613334.696 1.1586667.696 2.088.924 2.3159999 1.62 3.9426666 2.088 4.8719999v1.0453333c.228.228.348.4013333.348.5213333 0 .1133333.113333.288.348.5213333.228.4626667.348.8706667.348 1.2186666 0 .348.113333.7493334.348 1.2173333.228.2293334.576.8106667 1.044 1.7413333l1.044 2.088c.462666 1.1573333.924 2.2613333 1.392 3.3066666.461333 1.0439999.924 2.0280001 1.392 2.9573331.925333 1.854667 1.68 3.306667 2.262666 4.350667.576 1.044.984 1.794666 1.217334 2.261333-.233334-.466667-.521334-1.277333-.869334-2.436-.348-1.162667-.870666-2.669333-1.566666-4.522667-.468-1.164-.816-2.2639995-1.044-3.3079994-.233334-1.044-.581334-2.1466667-1.044-3.3053333-.468-.9306666-.696-1.6266666-.696-2.0893333-.468-.9293333-.696-1.5119999-.696-1.7386666-.468-1.392-.696-2.2093333-.696-2.4373333-.234667-.2333333-.348-.4066666-.348-.5213333 0-.12-.12-.2946667-.348-.5226666 0-.696-.12-1.164-.348-1.392-.468-1.8586666-.930667-3.3653333-1.392-4.5239999-.234667-.468-.348-.8706666-.348-1.2173333 0-.3493333-.12-.7573333-.348-1.2186666 0-1.164-.12-2.0893333-.348-2.784 0-.6973333-.234667-1.5119999-.696-2.4359999 0-.9306667-.234667-1.86-.697334-2.7839999 0-.4693334-.058666-.932-.173333-1.3933333-.12-.468-.173333-.9306667-.173333-1.392-.234667-.2333333-.349334-.696-.349334-1.392-.233333-.468-.346666-1.0439999-.346666-1.7399999-.234667-.9293333-.409334-1.8-.522667-2.6106666-.12-.8146667-.293333-1.7986666-.522666-2.9586666-.233334-1.164-.406667-2.2066666-.521334-3.1306666-.12-.9306667-.174666-1.9746666-.174666-3.1333333-.233334-.4666666-.348-.9293333-.348-1.3919999 0-.4666667-.118667-.9293333-.348-1.392 0-1.392-.118667-2.4359999-.348-3.1319999 0-1.164-.06-2.2093333-.173334-3.1333333-.12-.9293333-.174666-1.9733333-.174666-3.1319999 0-2.0879999-.058667-4.1213332-.173334-6.0906665-.12-1.9733333-.06-4.0013332.173334-6.0893332 0-3.9479999.696-7.6573331 2.088-11.137333.695999-1.8546667 1.621333-3.36 2.785333-4.5239999.461333-.6973333.924-1.332 1.392-1.9146666.461333-.5773334 1.044-1.0986667 1.74-1.56666667.696-.69466665 1.392-1.21733331 2.088-1.56666663.696-.34666666 1.392-.74933332 2.088-1.21733331 1.621333-.92399997 3.132-1.50666662 4.523999-1.73999995 1.621334-.46266666 3.132-.69599998 4.525334-.69599998 1.392 0 2.664-.11466667 3.828-.348h2.088 2.087999.348.348.348l.348.348c.696 0 1.158667.11999999 1.392.34799999 1.158667.46666665 1.854667.92933331 2.089334 1.39199996.696.69599998 1.042666 1.27866664 1.042666 1.74133329v2.0866666c.229334-.22799998.349334-.92399996.349334-2.0866666-.234667-.46266665-.349334-.81199998-.349334-1.04533331 0-.22933332-.118666-.57599998-.346666-1.04399997-.468-.46266665-.870667-.86933331-1.218667-1.21866664-.348-.34799999-.756-.63599998-1.218667-.86933331-.233333 0-.466666-.05466666-.696-.17333333-.233333-.11466666-.581333-.17466666-1.044-.17466666h-.348l-.348-.34799999h-.696c-.929333 0-1.511999-.11466666-1.739999-.34799999zm-78.306665 105.4519974c-.234667-.466667-.468-.989333-.696-1.565333-.234667-.581334-.581333-1.452-1.044-2.609334-.234667-.468-.408-.930666-.522667-1.392-.118666-.469333-.408-1.045333-.869333-1.741333-.234667-.696-.468-1.4519998-.696-2.2613331-.234667-.8173333-.468-1.5666667-.696-2.2626666-1.164-3.252-2.437333-7.1346665-3.828-11.6599997-1.393333-4.5226666-2.670667-9.4559998-3.829333-14.7906663-.233333-.4666667-.348-1.044-.348-1.74-.233333-.2333333-.348-.696-.348-1.392 0-.468-.12-.8159999-.348-1.0439999 0-.9306667-.234667-2.3226667-.696-4.1759999 0-.468-.06-.8706667-.174667-1.2186667-.118666-.348-.173333-.756-.173333-1.2173333 0-.468-.06-.8173333-.173333-1.0453333-.12-.2333333-.174667-.5813333-.174667-1.044 0-1.1639999-.233333-2.6693332-.696-4.5239998-.468-3.252-.816-6.4973332-1.044-9.7453331-.234667-3.2506666-.234667-6.4973332 0-9.7453331 0-3.2506666.348-6.6106665 1.044-10.0919998.462667-1.6213333.984-3.1853332 1.566667-4.6973332.576-1.5066666 1.332-2.8386666 2.261333-4.0026666.462666-.6973333.984-1.3919999 1.566666-2.0893332.576-.6946667 1.097334-1.272 1.566667-1.7386667.226667 0 .346667-.0546666.346667-.1746666 0-.1146667.114666-.1746667.349333-.1746667l.346667-.34799997h.697333l.346667-.348c.229333 0 .349333-.05466666.349333-.17333332 0-.11466667.113333-.17333333.346667-.17333333v-.34933333c.229333 0 .462666-.05466666.696-.17333333.229333-.11466666.462666-.17466666.697333-.17466666 1.62-.92399998 3.186667-1.50666663 4.697333-1.73866662 1.506667-.22933333 3.186667-.46266666 5.046667-.69733332h2.437333 1.392.696.348c1.62.46799999 2.784 1.04399997 3.48 1.73999996.461333.23466666.924.81599998 1.392 1.73999995l.696.69599997c0 .2346667.113333.4693333.348.696v.6973333.348l.348.3466667v1.3919999c.228.468.348.8706667.348 1.2186667s.114666.7559999.348 1.2173333c.462666 3.7159999 1.218666 7.2493331 2.262666 10.6159997 1.044 3.3599999 2.142667 6.6666665 3.305334 9.9186664 1.158666 3.2453333 2.317333 6.4386665 3.481333 9.5719998 1.157333 3.1306666 2.316 6.2039998 3.48 9.2226664.462666.6946667.809333 1.332 1.044 1.9133333.228.576.576 1.332 1.044 2.2613333.924 1.8546666 1.62 3.1333332 2.088 3.8279999.228.4626666.348.812.348 1.0453333 0 .2293333.114666.576.348 1.044.462666.9239999.696 1.6213333.696 2.0879999.462666.696 1.158666 1.9693333 2.088 3.8279999 2.550666 4.8733332 5.101333 9.2773331 7.657333 13.225333 2.549333 3.9426666 4.872 7.4226665 6.96 10.4399998.924 1.3933333 1.794666 2.6106666 2.610666 3.6559999.809333 1.0439999 1.565333 2.1413331 2.261333 3.3053331.697334.924 1.218667 1.566667 1.566667 1.914667.348.346666.636.636.870667.869333-.234667-.233333-.468-.581333-.696-1.042667-.234667-.469333-.696-1.164-1.392-2.089333-.468-1.164-1.105334-2.2626665-1.914667-3.3053331-.816-1.044-1.685333-2.3826666-2.610666-4.0026666-1.86-3.0186666-3.828-6.5586665-5.916-10.6146664-2.088-4.0626666-4.296-8.6466664-6.612-13.7479996-.468-.696-.816-1.2786667-1.045333-1.74-.233334-.468-.581334-1.044-1.044-1.74l-1.044-2.0879999c0-.9306667-.233334-1.6266666-.696-2.0893333-.468-.6946666-.754667-1.392-.869334-2.0866666-.12-.6973333-.408-1.392-.870666-2.0893333-.233334-.9293333-.816-2.3213333-1.74-4.1746665-1.164-3.0186666-2.208-6.0919999-3.132-9.2239998-.930667-3.1319999-1.974667-6.3253332-3.132-9.5706664-1.164-3.252-2.148-6.5586665-2.958667-9.9199998-.816-3.3599999-1.566666-6.6666665-2.262666-9.9173331 0-.4626666-.06-.924-.173334-1.3919999-.12-.4626667-.174666-.924-.174666-1.3933333 0-.228-.058667-.4026667-.173334-.5226667-.12-.112-.174666-.2866667-.174666-.52v-.3493333-.348-.3466667l-.348-.69733327c0-.228-.06-.46133333-.173334-.69466665-.12-.22933333-.174666-.46266666-.174666-.69733332-.233334-.46133332-.408-.74933331-.521334-.86933331-.12-.11466667-.293333-.40266666-.522666-.86933331-.696-.69733332-1.277334-1.50666663-1.74-2.43733328-1.86-1.39199996-3.948-2.31733327-6.264-2.78399993h-.696l-1.044-.34799999h-1.392c-1.393333 0-2.322667.12-2.785333.34799999-3.48 0-7.194667.81599998-11.136 2.43599994-.468 0-.930667.23333333-1.393333.69599999l-.696.34799999c-.233334 0-.466667.11999999-.696.34799999l-.696.34799999-.696.69599998-.696.34933333-.696.69466665c-.468.69733331-1.044 1.3373333-1.74 1.91466662-.696.58133331-1.392 1.33866659-2.088 2.26266659-1.392 2.0866666-2.208 3.8279999-2.436 5.2199999-.468.9293333-.756 1.8586666-.870667 2.7839999-.118666.9293333-.408 1.74-.869333 2.436-.696 3.7079999-1.044 7.4226664-1.044 11.1359997 0 3.4813332.228 6.8413331.696 10.0946664.461333 3.2453332.924 6.4919998 1.392 9.7439997.228 1.1586667.576 2.664 1.044 4.5239999v2.436c0 .4626666.053333.8706666.173333 1.2186666.114667.348.174667.7506667.174667 1.2173333.228.4626667.401333 1.0986667.521333 1.9146666.114667.8106667.289334 1.5666667.522667 2.2626666 0 .4626667.113333.8106667.348 1.044 0 .4626667.114667.8106667.348 1.044 0 .4626666.054667.8106666.173333 1.044.114667.2293333.174667.5759999.174667 1.0439999 1.62 5.3346666 3.246667 10.2066664 4.872 14.617333 1.621333 4.4053332 3.132 8.2333331 4.524 11.4853331.696 1.6199999 1.273333 3.1319999 1.741333 4.5253327.461333.694667.810667 1.272 1.044 1.738667.228.462667.461333.925333.696 1.392 1.157333 2.317333 1.853333 3.596 2.088 3.828zm-78.3066648-30.2786659c0-1.1626667-.468-3.0173333-1.392-5.5666666-.468-1.6266666-.9893333-3.4266666-1.5666666-5.3946665-.5813333-1.9746666-1.104-4.1226666-1.5653333-6.4386665-.468-2.5559999-1.0453333-5.1666665-1.7413333-7.8306665-.6946667-2.6706666-1.2773333-5.5146665-1.74-8.5279998l-1.0439999-9.3959997v-4.5239999c0-1.164.1146666-1.9746666.348-2.4373333 0-.9293333.1146666-1.6253333.3493333-2.0879999 0-1.8586667.3466666-3.2466666 1.0426666-4.1759999.2293334-.924.8106667-2.316 1.74-4.1773333.696-.6946666 1.1586666-1.2719999 1.3933333-1.7386666.228 0 .4613333-.1146667.696-.348 0-.2293333.0533333-.3493333.1733333-.3493333.1146667 0 .1746667-.1133333.1746667-.3466667.6959999-.4626666 1.3319999-.9253333 1.9133332-1.3919999.5773334-.4626667 1.2186667-.9253333 1.9146667-1.392 1.1586666-.6973333 2.3759999-1.272 3.6546665-1.7413333 1.272-.46266664 2.6093333-.92399996 4.0013333-1.39199995.6959999-.22799999 1.9693333-.57599998 3.8279999-1.04399997l.3493333-.34799999h.696.348c0-.228.1133333-.348.348-.348h.348l.3479999-.34666665h.348.348.348 1.392c.228 0 .4613333.11733333.696.34666665.4626666 0 .6959999.12.6959999.348.696.23466666 1.272.81599998 1.74 1.74133329.228.23333332.348.46666665.348.69466665h.348v.34799997.696l.348.6973333c0 .4666667.0546666.8693333.1746666 1.2173333.1133334.348.1733334.756.1733334 1.2186667l.696 2.0866666c0 .468.0546666.7573333.1746666.8706666.1146667.12.1746667.408.1746667.8706667.2266666.9293333.4613333 1.5119999.6946666 1.7399999 0-.228-.0586666-.4626666-.1733333-.696-.12-.2293333-.1746667-.576-.1746667-1.0439999v-2.088-.6973333c0-.228-.06-.4026667-.1733333-.5213333-.12-.1133334-.1733333-.288-.1733333-.5213333v-2.7853333-.6946667-.69733327c0-.228-.06-.348-.1746667-.348-.12 0-.1746666-.11333333-.1746666-.34666665 0-.22933333-.12-.46266666-.3466667-.69733332-.2346667-.92399998-.9306666-1.96799995-2.0893333-3.13199992-.2333333-.228-.408-.34799999-.5213333-.34799999-.12 0-.2946667-.11466667-.5226667-.34799999-.2333333 0-.408-.05466667-.5213333-.17466667-.12-.11466666-.2946666-.17333333-.5226666-.17333333-.468 0-.8706667-.05466666-1.2173333-.17333332-.3493334-.11466667-.756-.17466667-1.2186667-.17466667h-.696-.6959999-.348c-.2333334.23333333-.5826667.34799999-1.044.34799999h-.3493333c-.2333334.23333333-.4666667.348-.696.348-1.1626666 0-2.436.23333332-3.8279999.69599998-3.0173333.69599998-6.0346665 1.85999995-9.0479998 3.47999991-1.8599999.92933331-3.2519999 1.74133325-4.1773332 2.43599995-.4666667.468-.8146667.6973333-1.044.6973333l-1.0426666 1.044c-.9306667.9293333-1.512 1.7399999-1.7413333 2.4359999-.4666667.468-.8693333 1.1026667-1.2173333 1.9146666-.348.8146667-.756 1.684-1.2186667 2.6093333-.4666666 1.164-.9293333 2.9039999-1.3919999 5.2213332 0 1.1573333-.12 1.968-.348 2.4359999v2.784c0 2.0879999.1133333 3.7079999.348 4.8719999 0 1.8546666.1146666 3.5346665.348 5.0466665.228 1.5066666.5773333 3.0719999 1.0439999 4.6973332.696 3.0133333 1.4466667 5.8573332 2.2626666 8.5279998.8093334 2.6639999 1.68 5.2746665 2.6106666 7.8306665.924 2.3159999 1.7933333 4.4039999 2.6093333 6.2639998.8106667 1.8546666 1.4466666 3.5946666 1.9146666 5.2199999 1.62 3.2466666 2.436 4.9879999 2.436 5.2199999zm49.4199988 35.1519989c9.049333 10.902667 17.689333 20.533333 25.927999 28.886666 8.233333 8.352 15.836 15.428 22.796 21.230666 6.961333 5.796 12.991999 10.494667 18.097333 14.094667 5.101333 3.593333 8.929333 6.089333 11.485333 7.482666.462666.462667 1.506666.696 3.132.696 1.158666 0 2.202666-.233333 3.131999-.696 1.854667-1.393333 3.709334-2.958667 5.569334-4.698667 1.854666-1.739999 3.48-3.541333 4.872-5.394666 2.088-2.321333 2.783999-4.932 2.088-7.830667-.696-2.903999-1.973334-5.514666-3.828-7.830666-10.908-14.617333-20.42-29.702666-28.538666-45.243999-.233334-1.164-.696-2.436-1.392-3.828s-1.512-3.133333-2.436-5.221333c9.048 12.062666 18.151999 22.797333 27.319999 32.194666 9.164 9.394666 17.690666 17.399999 25.579999 24.011999 7.885334 6.613333 14.732 11.888 20.534667 15.836 5.795999 3.942666 9.973333 6.612 12.529333 8.005333.924.462667 1.968.696 3.132.696 1.391999 0 2.435999-.233333 3.131999-.696 3.709334-2.556 7.308-5.916 10.789334-10.093333 1.853333-2.321333 2.435999-4.932 1.739999-7.830667-.696-2.903999-1.974666-5.514666-3.829333-7.830666-6.264-8.821333-12.066666-17.461333-17.401333-25.927999-5.34-8.473333-10.037333-17.114667-14.094666-25.929333-4.062667-8.8199998-7.542666-17.9826662-10.441333-27.4933327-2.904-9.5173331-5.165333-19.6093328-6.786667-30.2786659-1.162666-6.4986665-1.973333-13.1106663-2.435999-19.8386661-.468-6.7266665-.233334-13.3386664.695999-19.83733287-3.251999-.228-6.498666-.288-9.745333-.17466667-3.252.12-6.149333 1.10399994-8.699999 2.95866664-2.784 1.6266666-4.758667 4.0626665-5.916 7.3093331-1.164 3.2466666-1.86 6.6679998-2.088 10.2666664-.234667 3.5946666-.174667 7.2479998.173333 10.9626664.348 3.7093332.750667 6.8413332 1.218667 9.3973331.696 5.5679999 1.505333 10.6146664 2.436 15.1399996.924 4.5226666 2.028 8.9279998 3.305333 13.225333 1.273333 4.2893333 2.785333 8.5799998 4.525333 12.8759997 1.74 4.2906666 3.768 8.9893333 6.090667 14.0946663 7.884 18.326666 16.933333 35.613332 27.145332 51.857332-9.743999-8.124-18.445333-16.357333-26.101332-24.709333-7.657333-8.353333-14.444-16.706666-20.36-25.058666-5.917333-8.3533328-11.082666-16.4773326-15.486666-24.3626658-4.410667-7.8906664-8.125333-15.4333329-11.137333-22.6226661-7.428-16.7053329-12.414667-33.0626658-14.965333-49.0706654-.930667-1.6213333-1.974667-2.43733327-3.133333-2.43733327h-.346667c-2.556 0-5.046667.17333333-7.482666.52266666-2.436.34800001-4.698667 1.21733331-6.788 2.60933331-2.554667 1.6266666-4.409334 4.0626665-5.568 7.3093331-1.162667 3.2466666-1.858667 6.6679998-2.088 10.2666664-.233333 3.5946666-.174667 7.2479998.174667 10.9626664.348 3.7093332.636 6.8413332.869333 9.3973331.696 5.5679999 1.506666 10.6146664 2.437333 15.1399996.922667 4.5226666 2.086667 8.9279998 3.478667 13.225333 1.393333 4.2893333 2.958666 8.5799998 4.698666 12.8759997 1.741334 4.2906666 3.769333 8.9893333 6.090667 14.0946663 3.709333 9.049333 7.830666 17.925333 12.354666 26.625333 4.525333 8.699999 9.452 17.107999 14.792 25.231999-15.313333-12.529333-28.484-25.639999-39.501333-39.326666-11.022666-13.693333-20.186666-26.7453323-27.494666-39.1546653-7.3079994-12.4146664-13.0506659-23.7853327-17.2266658-34.1066658-4.1773332-10.3266664-7.1946665-18.3919996-9.0493331-24.1879994-.468-1.62-.696-3.0119999-.696-4.1759999 0-1.1586667-.12-2.2026666-.348-3.1333333-.2346667-.9239999-.348-1.7386666-.348-2.4359999h-1.392c-3.2519999.468-5.9159998 1.104-8.0053331 1.9146666-2.0879999.816-3.7133332 1.5666666-4.8719999 2.2626666-1.3919999.9293333-2.5559999 1.8586666-3.4799999 2.7839999-2.5559999 2.556-3.8293332 6.7266665-3.8293332 12.5279997 0 5.7973332.9853333 12.5306664 2.9586666 20.1866662 1.9693333 7.6559998 4.6986665 15.9493329 8.1786664 24.8839994 3.4799999 8.9293331 7.2493332 18.0373329 11.3106664 27.3199992 4.0573333 9.277333 8.3533331 18.385333 12.877333 27.321333 4.5253333 8.929333 8.7559998 17.226666 12.7026666 24.883999-8.5853333-6.961333-16.6506665-14.388-24.1866663-22.273333-7.5426665-7.890666-14.4439996-16.358666-20.7079995-25.406666-3.9479999-5.802666-7.5426664-11.8333327-10.789333-18.0973326-3.2519999-6.2653331-6.0359999-12.7639996-8.3519998-19.4906661-1.164-3.252-2.208-6.6133332-3.1333333-10.0933331-.9293333-3.4786666-.8146666-6.8466665.348-10.0919998.4626667-.9293333.5226667-1.5666666.1746667-1.9146666s-.756-.5213333-1.2173333-.5213333c-3.2519999-1.164-6.4986665-1.6266666-9.7466664-1.392-3.2506666.228-6.3839999 1.392-9.3959998 3.4799999-4.6439999 3.012-6.95999984 7.3079999-6.95999984 12.8759997 0 5.5693332.80933332 10.5559997 2.43599994 14.9666663 6.7266665 18.3253329 16.2973329 34.7426656 28.7119993 49.2453326 12.409333 14.497332 26.2759993 27.667999 41.5893323 39.501332 2.3173333 1.854666 4.6386665 3.536 6.9613331 5.048 2.316 1.505333 4.6386666 2.957333 6.9599999 4.349333 2.5506666 1.62 4.9866665 3.132 7.308 4.525333 2.317333 1.392 4.753333 2.784 7.309333 4.176 1.621333.696 3.133333 1.332 4.524 1.913333 1.392.577334 2.784 1.332 4.177333 2.262667.228.228.576.348 1.042667.348.462666 0 .925333.113333 1.393333.348h1.217333c.577334 0 1.218667-.12 1.914667-.348 1.392-.696 3.246666-1.685333 5.568-2.958667 2.317333-1.278666 4.638666-3.077333 6.961333-5.393333 2.784-2.784 3.708-6.037333 2.784-9.745333-.468-1.86-1.278667-3.714667-2.436-5.569333-10.674666-19.026666-19.838666-36.314666-27.494666-51.855999zm-8.701333 74.826665c.925333.461333 1.681333.869333 2.262666 1.218667.577334.346666 1.218667.749333 1.914667 1.217333 1.62.462667 3.072 1.044 4.350667 1.74 1.272.696 2.724 1.505333 4.349333 2.436l1.044.348.348.348.349333.348h.346667c.925333.462666 1.854666.696 2.785333.696.924.228 1.74.402666 2.436.522666.696.113334 1.62.054667 2.784-.174666h.696l.348-.348 1.392-.348h.696c0-.233334.114667-.348.348-.348l1.392-.696c1.854666-.929334 3.246666-1.74 4.176-2.436 2.317333-1.164 4.753333-2.904 7.309333-5.22l.696-.696.696-.348v-.349333l.348-.346667c.462666 0 .810666-.12 1.044-.348l.348-.697333.348-.346667c.462666-.468.696-.816.696-1.045333 0-.232.114666-.581334.348-1.044.229333-.466667.402666-.869334.522666-1.217334.113334-.349333.288-.755999.521334-1.218666.697333-1.392 1.044-2.904 1.044-4.522667 0-1.861333-.118667-3.368-.346667-4.525333-.234667-2.556-1.164-5.34-2.785333-8.353333h-.348v-.696l-.696-.696-1.044-2.088c-.233334-.468-.468-.869333-.696-1.217333-.233334-.349334-.468-.756-.696-1.218667 2.317333 2.316 4.698666 4.405333 7.134666 6.264 2.436 1.854667 4.698667 3.709333 6.786667 5.569333 3.246666 2.784 6.318666 5.22 9.222666 7.308 2.898667 2.089333 5.622667 4.056 8.178667 5.917333 2.550666 1.853333 4.812 3.42 6.786666 4.697333 1.968 1.272 3.882667 2.376 5.742667 3.306667.462666.461333.924.696 1.392.696l.696.696c.462666 0 .869333.054667 1.218666.174667.348.113333.636.173333.869334.173333.924.228 1.854666.348 2.784.348-.233334 0-.581334-.06-1.044-.174667-.468-.118666-1.044-.173333-1.74-.173333-.233334-.233333-.468-.348-.696-.348-.233334 0-.581334-.12-1.044-.348l-1.044-.696c-.233334-.233333-.408-.348-.522667-.348-.118667 0-.293333-.12-.521333-.348-1.86-1.164-3.774667-2.381333-5.742667-3.653333-1.973333-1.278667-4.236-2.958667-6.786666-5.046667-2.321334-1.86-4.872-3.829333-7.656-5.917333-2.785333-2.088-5.688-4.524-8.701333-7.308-3.252-2.556-6.498667-5.394666-9.745333-8.528-3.250667-3.132-6.612-6.437333-10.092-9.917333l-2.089333 1.392c1.16 2.316 2.437333 4.524 3.829333 6.612.462667.696.809333 1.333333 1.044 1.913333.228.577334.461333 1.218667.696 1.916.228.46.402667.749334.521333.869334.114667.113333.289334.402666.522667.869333l.348.697333.348.348v.346667c1.621333 2.784 2.550666 5.22 2.784 7.309333.462666 3.012.229333 5.568-.696 7.656-.233334.462667-.408.750667-.521334.870667-.12.113333-.294666.402666-.522666.870666-.233334.226667-.408.461333-.522667.694667-.118667.229333-.293333.462666-.521333.697333l-.348.346667-.348.697333c-.468 0-.696.228-.696.694667h-.348v.349333l-.348.348-.696.696c-1.164.696-2.382667 1.445333-3.654667 2.261333-1.277333.810667-2.496 1.68-3.653333 2.610667-1.165333.924-2.437333 1.505333-3.829333 1.74-.468.462667-1.044.696-1.74.696l-1.044.348h-.348-.696c-.696.228-1.338667.288-1.914667.174667-.581333-.12-1.217333-.174667-1.913333-.174667-.468-.233333-.816-.348-1.044-.348-.234667 0-.582667-.12-1.045333-.348l-.346667-.348h-.349333l-1.042667-.348c-1.393333-.696-2.785333-1.452-4.177333-2.262667-1.392-.814666-2.784-1.565333-4.176-2.261333-.696-.468-1.392-.816-2.088-1.044-.696-.233333-1.392-.582667-2.088-1.045333-.930667-.466667-1.626667-.929334-2.089333-1.392l-2.0880001-1.044c-.696-.694667-1.2773333-1.162667-1.74-1.392-.4666666-.232-.816-.466667-1.044-.694667-.2333333-.234666-.5813333-.349333-1.0439999-.349333l-1.044-.694667h-.348-.348v-.349333l-.348-.348c-.468-.233333-.816-.406667-1.0439999-.521333-.2346667-.12-.5813334-.408-1.044-.870667-2.3226666-1.392-4.9919999-3.250667-8.0039998-5.569333-.4693333-.232-.816-.466667-1.0453333-.694667-.2333334-.234667-.5813333-.468-1.044-.696-.2333333-.468-.696-1.045333-1.392-1.74-.9293333-.468-2.3226666-1.392-4.1759999-2.784l-1.7399999-1.393333-2.088-1.74c-.696-.466667-1.3386666-.989333-1.9146666-1.565333l-1.5666666-1.566667c-1.86-1.392-3.1319999-2.436-3.8279999-3.132l-1.74-1.392-2.0879999-2.088-3.4799999-3.133333-3.48-3.48-2.0893332-1.392-1.392-2.088-3.4799999-3.48c-1.392-1.392-2.4359999-2.556-3.1319999-3.48-.468-.468-.756-.817333-.8706667-1.045333-.12-.233333-.408-.466667-.8693333-.696l-1.7399999-1.74c-1.86-2.556-3.7746666-5.106667-5.7426666-7.657333-1.9746666-2.554667-4.0026665-5.105333-6.0906665-7.656-.2333333-.694667-.5826666-1.337333-1.044-1.914667-.4679999-.581333-.9306666-1.217333-1.3919999-1.913333-.468-.929333-.9306667-1.626666-1.392-2.088-.468-.930666-.9306666-1.512-1.3933333-1.74l-2.0879999-4.177333c-.2333334-.233333-.348-.408-.348-.522667 0-.117333-.1186667-.292-.348-.52l-.696-.697333-1.044-2.088c-.9293333-1.6253331-1.6853333-3.0786664-2.2626666-4.3506664-.5813333-1.2773333-1.2173333-2.6106666-1.9133333-4.0026666-.2333333-.4666666-.468-.8146666-.6959999-1.044l-.348-1.0426666-1.044-2.0893333-1.044-2.0879999-.69599997-1.044-.34799999-1.044c-.46799999-1.8599999-.93066665-3.2519999-1.39199997-4.1759999l-.34933332-1.0439999-.34666666-.348-.34933332-.6973333c0-.4666667-.23333333-1.1626667-.69599999-2.0866667l-1.04399997-4.1773332c-.46666666-1.8586666-.69599998-3.2506666-.69599998-4.1759999-.46666666-3.0173332-.34666666-5.8013332.34933332-8.3519998.46133332-2.5559999 1.39066663-5.1066665 2.7826666-7.6573331.69733331-.9306667 1.44666663-1.86 2.26266661-2.7839999.81066664-.9306667 1.79466664-1.86 2.95866664-2.784.2279999-.2346666.8106666-.5826666 1.7399999-1.0453333h.348.348l.696-.696c.228 0 .348-.0586666.348-.1733333 0-.12.1146666-.1746667.348-.1746667l1.0439999-.3466666c.4626667-.2346667.8106667-.348 1.044-.348.2293333 0 .4626667-.12.696-.3493333 2.0879999-.9293333 4.6386665-1.392 7.6573331-1.392 2.5506666 0 4.8719999.348 6.9599999 1.044.2293333 0 .8106666.228 1.7399999.6973333h.348.348c.2293333.228.4626666.348.696.348.4626666.4613333.8106666.8093333 1.0453333 1.044.228.2279999.576.5746666 1.044 1.0439999.6959999.6946667 1.0439999 1.62 1.0439999 2.784 0 .6959999-.12 1.2719999-.348 1.7399999 0 .4613333-.12.8106667-.348 1.044v.348.348l-.3479999.348c0 .4626666-.12.8093333-.348 1.0439999v2.0893333c0 1.3906667.1133333 2.436.348 3.1306666.228.9253333.5759999 2.0893333 1.0439999 3.4813333.228.4613333.4013334.9839999.5213334 1.5653332.1146666.5773334.2879999 1.1.5226666 1.5666667.4613333 1.1573333.8106667 2.0879999 1.044 2.7839999.228.696.576 1.6213333 1.044 2.7839999.2279999.4626667.4026666.924.5213333 1.392.1146666.4626667.2893333.924.5226666 1.3933333.4626667.924.8106667 1.7386666 1.044 2.4359999.924 1.8546667 1.74 3.4786666 2.4359999 4.8719999.696 1.392 1.5066667 2.8986666 2.436 4.5239999 0 .2293333.2293333.8106667.696 1.74l1.0453333 2.0879999c.4613333.4626667.7493333.8106667.8693333 1.044.1146666.2293333.288.4626666.5213333.6973333.2293333.4613333.5773333.924 1.0453333 1.392.4613333.6959999.8093333 1.3319999 1.044 1.9133332.228.5773334.4613333 1.0986667.696 1.5666667.228.696.8093333 1.5066666 1.7399999 2.4359999.4626667.924.924 1.68 1.392 2.2613328.4626666.577334.924 1.1 1.3919999 1.566667.4626667.697333.8106667 1.158667 1.044 1.392.2293334.229333.348.462667.348.697333l-1.392-2.089333c-.4679999-.466667-.8693333-1.044-1.2186666-1.74-.3466666-.6959998-.756-1.5106665-1.2173333-2.4359998-.2346666-.2346666-.816-1.0439999-1.7399999-2.4359999-.468-1.3933333-.9306667-2.556-1.392-3.4799999-.2346667 0-.5826667-.468-1.0453333-1.392-.4666667-.9306666-.8146667-1.512-1.044-1.7413333l-1.0426666-2.0879999c-.2346667-.468-.4093334-.816-.5226667-1.0426667-.12-.2346666-.2933333-.5826666-.5226666-1.0453333-.4666667-1.3919999-1.104-2.8426666-1.9133333-4.3493332-.816-1.512-1.5666667-3.1933333-2.2626666-5.0479999-.468-.9293333-.816-1.7386666-1.044-2.4359999-.2333333-.4666667-.5813333-1.392-1.044-2.7839999-.2333333-.696-.468-1.5106667-.696-2.436-.2346666-.9293333-.5813333-1.9733333-1.0439999-3.1319999-.2333334-.468-.408-.9306667-.5226667-1.392-.12-.468-.2933333-.9306666-.5213333-1.3919999-.2346667-.468-.348-1.044-.348-1.7413333 0-.6946667-.12-1.2773333-.348-1.74 0-.4666666-.06-.9293333-.1746667-1.3919999-.1186666-.4666667-.1733333-.9293334-.1733333-1.3906667 0-.4693333.0546667-.7573333.1733333-.872.1146667-.1186666.1746667-.4066666.1746667-.8693333l.348-.696v-.3479999-.348c.4626667-.9293333.696-1.512.696-1.74.228-.468.348-1.164.348-2.0879999 0-1.164-.468-2.436-1.392-3.8279999-.696-1.392-1.6253333-2.436-2.7853333-3.1333333-.2333333-.2333333-.4066666-.348-.5213333-.348-.12 0-.2933333-.1186667-.5213333-.3466666h-.3493333l-.3466667-.3493334c-.468 0-1.164-.2333333-2.0893333-.696-1.1626666-.4666666-2.4359999-.6959999-3.8279999-.6959999h-3.8279999-4.3506665c-1.512 0-2.844.2293333-4.0026666.6959999-.468.228-.8146666.348-1.044.348-.2333333 0-.5813333.1146667-1.0439999.348-.2333334.2293334-.5813334.3493334-1.044.3493334l-.696.6946666c-.2333333 0-.408.0546667-.5213333.1746667-.12.1146666-.2933333.1733333-.5226667.1733333l-.696.3493333-.3479999.3466667-2.088 1.0453333c-2.55599993 1.6186666-4.64399988 3.8279999-6.26533317 6.6119998-.69599999 1.1586667-1.27733331 2.4906666-1.73999996 4.0013332-.46666666 1.5066667-.92933331 2.9586666-1.39199997 4.3506666-.69599998 2.7853333-.81599997 5.9173332-.34799999 9.3973331 0 1.1586666.228 2.6639999.69599999 4.5253332.22799999 1.1573333.57733331 2.664 1.04399997 4.5226666.22799999.4626666.34799999.8706666.34799999 1.2186666s.11466666.7506667.34799999 1.2173333v.6973333l.69733332 1.392c.22666666.696.46133332 1.392.69599998 2.0879999.228.696.57599999 1.5066667 1.04266664 2.436l.34799999.696.34933333 1.0439999c.22799999.696.57599998 1.5066667 1.04266664 2.436l1.04533331 2.0893333.69599998 1.0439999v1.044c.69599998 1.62 1.44666666 3.0719999 2.26133326 4.3506666.8106667 1.2719999 1.5666666 2.7240001 2.2626666 4.3493331.696.697333 1.1586667 1.272 1.392 1.74l.348 1.044c0 .462667.0546666.752.1746666.870667.1133334.113333.1733334.288.1733334.521333.4626666.697333.9239999 1.333333 1.3919999 1.914667.4626667.576.924 1.218666 1.392 1.914666.2293333.462667.4626667.810667.696 1.042667.2293333.229333.4626666.577333.696 1.045333.2293333.461333.4626666.869333.696 1.218667.2293333.346666.3493333.634666.3493333.869333.4613333.697333.924 1.392 1.3919999 2.088.4613334.696.924 1.392 1.3906667 2.088 3.7093332 5.101333 7.7719998 10.206666 12.181333 15.313333l1.3933333 2.089333c.4613333.461334.924 1.158667 1.392 2.088.6959999.462667 1.3319999.984 1.9133333 1.566667.5773333.574666 1.2186666 1.217333 1.9146666 1.913333l3.1319999 3.132 1.7399999 2.088 2.088 1.74 3.4799999 3.48 3.4813333 3.481333c.4613333.228 1.0439999.696 1.7399999 1.392l2.088 1.74c.6959999.462667 1.3319999.985333 1.9146666 1.565333.576.577334 1.2173333 1.098667 1.9133333 1.566667.6959999.462667 1.3919999 1.044 2.0879999 1.741333.696.694667 1.2733333 1.272 1.74 1.738667l1.7413333 1.741333 2.0866666 1.042667c.6973333.462666 1.3333333.985333 1.9159999 1.566666.576.577334 1.2173333 1.098667 1.9133333 1.566667.4626667.462667.8093333.749333 1.044.869333.228.114667.576.402667 1.044.870667.9239999.461333 1.5066666.810667 1.7399999 1.044 1.62 1.158667 3.1319999 2.202667 4.5253332 3.132 1.392.925333 2.664 1.74 3.8279999 2.437333.4613334.461333 1.1573333.924 2.088 1.392l.696.346667v.349333h.348l1.0439999.694667c.4626667.462666 1.1586667.925333 2.088 1.392.696.697333 1.3919999 1.045333 2.0879999 1.045333.696.228 1.392.696 2.088 1.392z" transform="matrix(1 0 0 -1 0 197)"/><path d="m87.9999978 102.999997c-.696-1.392-2.3213333-3.48-4.8719999-6.2639994-2.3226666-3.0186666-5.1066665-5.6893332-8.3533331-8.0053332-.6946667-.6973333-1.512-1.3373333-2.4359999-1.9146666-.9293334-.5813333-1.86-1.104-2.784-1.5666666-.468-.232-.756-.3466667-.8693333-.3466667-.12 0-.4093333-.12-.872-.348l-.6946666-.3493333-.6973333-.3466667c-.4666667 0-.8146667-.06-1.044-.1746666-.2333333-.12-.4666667-.1733333-.6946667-.1733333-.4679999-.2346667-.7573333-.3493334-.8706666-.3493334-.1186667 0-.408-.12-.8706666-.348-.2333334.228-.348.228-.348 0h.348v-.3466666c.4626666-.9306667.6973333-1.7413333.6973333-2.4373333l.3466666-.348v-.348c-.2333333-.2333333-.3466666-.468-.3466666-.6946666 0-.2346667-.06-.4093333-.1746667-.5226667-.12-.12-.1733333-.2946666-.1733333-.5226666-.2346667 0-.3493333-.2333334-.3493333-.696h-.348v-.348l.6973333.348c.4613333.2293333.7493333.4026666.8693333.5213333.1146667.1146667.4026667.288.8693333.5226667l1.7413333 1.7399999c.4626667.4613333.8106666.7506667 1.0426666.8706667.2293334.1133333.4626667.288.6973334.5226666l.6959999.6946667c0 .2293333-.468-.5813334-1.3933333-2.436-.4666666-.468-.8146666-.9293333-1.0426666-1.3919999-.2346667-.468-.5813333-1.044-1.044-1.74-.468-.468-.9893333-1.104-1.5666666-1.9133333-.5813333-.816-1.2186666-1.6866666-1.9133333-2.6106666-1.164-.6973333-2.0893333-1.044-2.7839999-1.044h.3466666c0 .228.1146667.3466667.348.3466667l-.348.3493333v.348l-.3466666.348c-.2346667.228-.4093333.3466667-.5226667.3466667-.12 0-.4093333.2293333-.8706666.6973333.696.696 1.1586666 1.2719999 1.3933333 1.7386666v.3493333.348c0 .4626667.0533333.7493333.1733333.8693333.1146667.1146667.1733333.2893334.1733333.5226667v.348.348.348l-.3466666.6973333v.3466666c0 .4626667-.2346667.9253333-.6973333 1.392v.348c-.2346667 0-.348.1146667-.348.3493333l-1.044 1.044c-.2346667.4613333-.4666667.7493333-.696.8693333-.2333333.1133333-.5826666.4026667-1.044.8706666-.6959999.924-1.8599999 2.2013333-3.4799999 3.8279999.9253333 0 1.7946667-.0599999 2.6093333-.1746666.8106666-.1186667 1.6813333-.1733333 2.6106666-.1733333h1.044.696l.6959999.3479999h2.0893333c.228.228.6946667.3466667 1.392.3466667.228.2293333.4613333.3493333.6946666.3493333.2293334 0 .4626667.1133334.6973333.348h.6946667l.6973333.348 1.392.696c2.3159999.924 3.9426665 1.74 4.8719999 2.4359999 3.0133332 1.8546667 5.9159998 3.9426666 8.6999997 6.2639999 1.1586667 1.1599998 2.264 2.2026668 3.308 3.1333328 1.0426666.924 2.0266666 1.74 2.9573332 2.436l2.436 2.436c0-.468-.5813334-1.625333-1.74-3.48zm-29.2346659 21.578667c1.3919999 2.549333 3.3613332 4.055999 5.9173331 4.522666 1.1573334.229333 2.436.229333 3.828 0 1.8533332-.466667 3.7079999-1.162667 5.5693331-2.086667 3.708-1.626666 6.9586665-3.827999 9.7439998-6.613333 2.088-2.321333 2.8986666-4.76 2.4359999-7.309333-.2333333-1.164-.6959999-2.208-1.3933333-3.132-2.5546666-3.252-5.2799998-6.265333-8.1773331-9.048-2.9039999-2.7839995-5.8626665-5.0479994-8.8759998-6.786666-3.0159999-1.7413333-5.8613331-2.784-8.5253331-3.1333333-2.6706666-.348-5.0466665.4026667-7.1346665 2.2626666-1.3933333 1.392-1.9146666 3.6546666-1.5666666 6.7866667.348 3.132 1.0986666 6.438666 2.2626666 9.918666 1.1586666 3.48 2.376 6.668 3.6546666 9.570667 1.272 2.898666 2.0266666 4.58 2.2613333 5.048zm-16.357333-24.364v.349333l-.348.348.348.696v1.042667 1.741333c.4613334 1.392.8106667 2.724 1.044 4.002667.228 1.272.576 2.609333 1.044 4.001333l1.044 3.132c.228.228.348.462667.348.697333 0 .228.1146666.462667.3479999.694667.2293334.462667.348.752.348.872 0 .113333.1146667.402667.348.869333.4626667 1.157334.9253333 2.142667 1.392 2.958667.4626666.809333.9253333 1.794667 1.3933333 2.958667.2266667.461333.4613333.924.696 1.391999.228.461334.4613333.924.696 1.390667.4613333.462667.6959999.925333.6959999 1.392l1.044 1.045333c1.392 1.853334 2.8986666 3.245334 4.5239999 4.174667.9253333.462667 1.74.812 2.4359999 1.045333.696.229334 1.5066667.461334 2.4373333.696 1.392.462667 2.6639999.462667 3.8279999 0 1.1586667 0 2.028-.12 2.6106666-.348.5746667-.233333.984-.348 1.2173333-.348-.2333333-.233333-.6426666-.293333-1.2173333-.173333-.5826666.113333-1.4519999.053333-2.6106666-.174667-.9306666 0-2.0893333-.348-3.4813332-1.044-1.164-.468-2.436-1.164-3.8279999-2.089333l-1.392-1.392-.3466667-.346667v-.348c-.2346666 0-.3493333-.06-.3493333-.174666 0-.12-.12-.174667-.348-.174667 0-.233333-.06-.406667-.1746666-.52-.12-.12-.1733334-.294667-.1733334-.522667-.4666666-.469333-.6959999-.930666-.6959999-1.393333-.2333334-.233333-.348-.408-.348-.521333 0-.118667-.12-.293334-.348-.521333-.468-1.393334-.816-2.322667-1.044-2.785334-.4666667-1.162666-.816-2.206666-1.044-3.132-.2346666-.929333-.5826666-1.86-1.0453333-2.785333-.2333333-.466667-.3466666-.754667-.3466666-.869333 0-.12-.12-.409334-.3493334-.869334 0-.234666-.06-.468-.1733333-.697333-.12-.233333-.1733333-.466667-.1733333-.694667l-1.0453333-3.133333c-.9293333-2.321333-1.6253333-4.644-2.088-6.961333-.2333333-.466667-.348-1.044-.348-1.738667 0-.234666-.06-.408-.1733333-.522666-.12-.12-.1746667-.294667-.1746667-.521334v-.348-.349333-.348-1.7386665-1.7413333-1.7399999-.696-.348-.348c-.468.228-.8159999.4626667-1.0439999.696-.2346667.2293333-.5813334.4626666-1.044.696-.9293333.4626666-1.512.8106666-1.74 1.0453333-.2333333.2266666-.408.3466666-.5226666.3466666-.12 0-.2933333.1146667-.5213333.348h-.348-.348v.3493334h-.696-.348c-.2346667.228-.696.3479999-1.392.3479999h-1.0453333c0-.2346666-.2333333-.3479999-.696-.3479999-.4666666 0-.9293333-.12-1.3919999-.3493334-.4666667-.2333333-.9293333-.468-1.3906667-.6946666-.2346666 0-.3493333-.06-.3493333-.1746667 0-.12-.12-.1746666-.3466666-.1746666l-.3493334-.348h-.3479999c0-.2333334-.0586667-.348-.1733334-.348-.12 0-.1746666-.1186667-.1746666-.3466667h-.348c0-.2346666-.1186667-.3493333-.348-.3493333l-1.74-1.74-1.3919999-1.3919999-1.74-1.74c0 .228.348.924 1.044 2.088.2346666.228.5813333.8093333 1.0439999 1.7399999.2333334.4613333.468.8106667.696 1.044.2333334.2293333.468.5773333.696 1.044l.348.348c0 .2293333.1146667.3493333.348.3493333 0 .2266666.0546667.3466666.1746667.3466666.1133333 0 .1733333.1146667.1733333.348l.348.3493334.348.3479999.696.6946667c1.3933332.924 2.5506666 1.5066668 3.4799999 1.7413328.2293333.228.5773333.346667 1.0453333.346667.228.229333.576.348 1.0439999.348h2.436.348.696.3479999zm-34.45466577-80.0466645c-.46266665 2.3173332-.69599998 4.0573332-.69599998 5.2213332.69599998 6.0293332 2.26133328 13.513333 4.69733325 22.4479994 2.4359999 8.9279998 6.7879998 18.2706662 13.0519996 28.0159993 1.1626667 1.62 2.2626667 3.2466666 3.3053333 4.8719999 1.0453333 1.6213333 2.1493333 3.2466666 3.3066666 4.8719999 1.3919999 2.0893332 2.7839999 3.8293332 4.1773332 5.2213332.924.9253333 1.7386666 1.4466666 2.4359999 1.5653333.696.1146666 1.272.1746666 1.74.1746666.228-.2333333.4613333-.348.696-.348 2.5506666-1.6266666 5.2199999-3.7746665 8.0039998-6.4386665 2.7839999-2.6706666 4.8733332-4.8173332 6.2653332-6.4386665.6959999-.6946666 1.0439999-1.3919999 1.0439999-2.0879999 0-.2333334-.2333333-.816-.6959999-1.74-.9293334-1.3919999-2.3213333-3.5399999-4.1759999-6.4386665-1.86-2.9039999-3.8293333-6.1493332-5.9173332-9.7453331-2.088-3.5999999-4.1759999-7.5413331-6.2639999-11.833333-2.0893333-4.2946666-3.8293332-8.5253331-5.2213332-12.701333-.4666666-1.164.5773333-.6973333 3.1319999 1.3919999 2.5506666 2.0866667 5.8573332 5.0999999 9.9199998 9.0479998 4.0559999 3.9426666 8.5813331 8.5799998 13.573333 13.921333 4.9853332 5.3346665 9.9173331 10.5546664 14.7906663 15.6599996l8.7013331-.3466667c-6.2653332-7.4293331-12.4146664-14.9653329-18.4466662-22.6213327-5.3399999-6.4986665-10.9613331-13.4599997-16.8786662-20.8826662-5.9159999-7.4293331-11.3106664-14.1546663-16.1839996-20.1853328l-.348-.3493333c-.2333334 0-.348-.1173333-.348-.3466667-.2333334-.2333333-.408-.348-.5213333-.348-.12 0-.2933334-.12-.5226667-.348h-.348c-.924-.46799995-1.6799999-.64133328-2.2613333-.52133328-.5773333.11333333-1.0999999.17199998-1.5666666.17199998-1.6213333.4626667-3.5346666 1.1-5.7426665 1.9146666-2.2026666.8106667-4.4639999 1.6813333-6.7866665 2.6106666-.228.228-.4626667.348-.696.348-1.392.696-2.4906666 1.6213333-3.30666658 2.7853333-.81066665 1.1573333-1.44666663 2.3159999-1.91333329 3.4786666zm17.74933287-19.83733287-1.0439999.34799999c-.2293334 0-.4026667.06-.5226667.17466667-.1133333.11866666-.288.17466666-.5213333.17466666-.228 0-.8106667.23199999-1.74.69466665-.4626666.23466666-1.044.40799999-1.7399999.52266665-.696.11866667-1.2733333.29333333-1.7413333.52133332-.4613333.46799999-1.044.75733332-1.74.87066665-.696.11866666-1.272.29333332-1.7399999.52133332-.228.23466666-.4626667.34933332-.696.34933332-.228.23333333-.4626667.34799999-.696.34799999-.924.46666666-1.5066666.81466665-1.74 1.04399998-.228 0-.8106666.23333332-1.7399999.69466665l-.696.34933332-.34799999.34799999-.34799999.34666666c-1.15866664.46799999-2.08933328 1.09999997-2.78533327 1.91466665-.69599998.8093333-1.39199996 1.6813333-2.08666661 2.6106666-1.15866664 1.6199999-1.85466662 3.3613332-2.08933328 5.2199998-.228.2293334-.34799999.6973334-.34799999 1.392 0 .2293333-.05466667.4026667-.17333333.5226667-.11466667.1146666-.17466666.288-.17466666.5213333v2.0893333 1.3919999 1.392c0 .4613333.11999999.8093333.34799999 1.044v.3466666-.3466666c0-.468.11999999-.816.34799999-1.044v-1.0453333c0-.4666667.06-.7546667.17466666-.8693333.11866666-.12.17333333-.408.17333333-.8693333.23466666-.468.34933332-.7573334.34933332-.8706667 0-.12.11866667-.408.34666666-.8706666 0-.468.12-.8146667.34933333-1.0426667 0-.4693333.11866666-.8173333.34666665-1.0439999.46799999-.6973334.87066665-1.392 1.21866664-2.0893333.34799999-.696.87066665-1.392 1.56666663-2.088.92933331-1.1626666 2.32133327-2.3213332 4.17599992-3.4813332h.348l.348-.3466667h.6959999c.2333334-.2333333.468-.348.696-.348.2333333 0 .468-.12.696-.348.468-.2346666.756-.3493333.8706666-.3493333.12 0 .4066667-.11866665.8693334-.34666664h.6959999c.2346667-.228.5826667-.34799999 1.044-.34799999l3.1319999-1.04399998c.9306667-.22933332 2.0893333-.57733332 3.4813333-1.04399997.4666666-.228.816-.34799999 1.044-.34799999.2333333 0 .4666666-.11466667.6959999-.34933333h.696l.696-.34799999c1.392 0 2.4359999.12 3.1319999.34799999.696 0 1.1586667.12 1.392.34933333h.348.348c.2293333.23333332.4626666.34799999.696.34799999l.6959999.34666666.696.34933332c0 .23333333.0546667.34799999.1746667.34799999.1146667 0 .1746666.12.1746666.34666666h.3466667l.348.34799999.348.34933333.6973333.69466663c.228.4626667.576.9253333 1.0426666 1.392.4626667.4626666.8706667.9253333 1.2186667 1.3933333.348.4626666.7506666.9253333 1.2186666 1.3919999.924.9253334 1.74 1.7946667 2.436 2.6093333.6959999.812 1.3919999 1.6813333 2.0879999 2.6106666.924.9253333 1.62 1.74 2.088 2.436l2.0879999 2.0893332c5.1026665 6.0293332 8.2333331 9.3959998 9.3973331 10.0919998-.4666667-.9293333-2.9026666-4.8719999-7.3093332-11.8333331-.4666666-.4666666-.7559999-.8693333-.8693333-1.2173333-.12-.3479999-.408-.7559999-.8706666-1.2186666-.2333333-.468-.816-1.392-1.74-2.7839999-.6959999-.9293333-1.3373333-1.7986666-1.9146666-2.6106666-.5813333-.8146667-1.2173333-1.6853333-1.9133333-2.6093333l-2.0879999-3.13333325c-.2346667-.22666666-.408-.46133332-.5226667-.69466665-.1186666-.22933333-.408-.46266665-.8693333-.69599998l-.348-.69733332c0-.22799999-.12-.34799999-.348-.34799999-.2346666-.22799999-.348-.46133332-.348-.69466665h-.3479999v-.34933332c-.2346667 0-.3493334-.05333333-.3493334-.17333333 0-.11466667-.1186666-.17466666-.3466666-.17466666l-.696-.69599999c-.2346667 0-.5826667-.22799999-1.0453333-.69599998l-1.044-.34666666-.696-.69733331h-.696l-.6959999-.34666666c-.2333334-.22933333-.5213334-.34933333-.8706667-.34933333-.3466666 0-.7546666-.11333333-1.2173333-.34799999z" transform="matrix(1 0 0 -1 223 183)"/><path d="m128.33333 137.666663c-.466667-.696-.929333-1.392-1.390667-2.088-.469333-.697333-.929333-1.392-1.393333-2.089333-.466666-.694667-.869333-1.392-1.216-2.086667-.349333-.697333-.757333-1.512-1.218666-2.436-.469334-.697333-.929334-1.393333-1.393334-2.089333-.466666-.696-.929333-1.392-1.390666-2.088-1.628-2.784-3.192-5.628-4.7-8.526666-1.510667-2.904-3.076-5.628-4.698667-8.178667-.694666-1.392-1.390666-2.729333-2.088-4.002666-.696-1.277334-1.390666-2.609334-2.086666-4.001334-.697334-1.1639995-1.338667-2.3839995-1.916-3.6559994-.581334-1.2773333-1.216-2.496-1.914667-3.6533333-2.554667-4.8719999-4.7573331-9.3426664-6.6119998-13.3999996-1.8586666-4.0626666-3.4786665-7.7159998-4.8719998-10.9626664-.4666667-.9306667-.7546667-1.74-.8693334-2.436-.12-.696-.4093333-1.3919999-.8706666-2.0879999-.2333333-.468-.468-.9893333-.6946667-1.5666666-.2346666-.5813334-.4693333-1.104-.6986666-1.5666667-.4653333-1.1639999-.8146666-1.9733333-1.044-2.4359999-.232-.4666667-.3466666-.9293333-.3466666-1.392 0 .4626667.3466666 1.74 1.0453333 3.8279999.46 1.392.8093333 2.552 1.0439999 3.4813333.2266667.696.4613334 1.3919999.6946667 2.0879999.2293333.696.4613333 1.5066666.696 2.436 1.1586666 3.2466665 2.5519999 6.9599998 4.1773332 11.137333 1.6186666 4.1759999 3.5933333 8.8146665 5.9159994 13.9199997.461334 1.1586666.984 2.4373332 1.565334 3.8293332.578666 1.3919998 1.218666 2.6639998 1.914666 3.8293328.462667 1.390667 1.044 2.782667 1.741334 4.174667.696 1.392 1.390666 2.784 2.086666 4.177333 1.393334 2.784 2.785334 5.568 4.176 8.353333 1.393333 2.784 3.013333 5.682667 4.873333 8.7.462667.696.869334 1.392 1.218667 2.089333.349333.694667.749333 1.505334 1.218667 2.436.461333.694667.869333 1.392 1.216 2.086667.349333.697333.752 1.506667 1.218666 2.436.464.697333.869334 1.392 1.218667 2.089333.349333.696.750667 1.392 1.218667 2.088.461333.696.924 1.506667 1.390666 2.436l.349333.348.349334.696c0 .228.052.402667.170666.522667.114667.113333.174667.288.174667.522666.464.922667.696 1.62.696 2.086667 0 .462667.054667.810667.174667 1.044.114666.228.174666.577333.174666 1.045333 0 1.390667-.349333 2.664-1.045333 3.828l-.345333.696v.348l-.349334.348-.349333.348c-.234666.462667-.466666.750667-.694666.870667-.234667.113333-.469334.401333-.696.869333-.929334.462667-1.513334.809333-1.741334 1.044l-.346666.348h-.349334l-.346666.348-1.393334.348c-1.624.925333-3.192 1.74-4.697333 2.437333-1.513333.694667-3.078666 1.390667-4.698666 2.086667l-1.392.696-.349334.348h-.346666c-.234667 0-.349334.114667-.349334.349333l-1.044.348h-.346666l-.697334.346667h-.696-.348c-.232.229333-.581333.348-1.044.348h-1.045333-.694667-.346666c-.932 0-2.322667-.466667-4.1773335-1.392-1.1639999-.694667-2.0879999-1.625333-2.7839999-2.784-.2333333 0-.348-.12-.348-.346667l-.3493333-.697333-.696-1.044c-.468-.929333-.9293333-1.625333-1.392-2.088-.9306666-1.86-1.7399999-3.252-2.4359999-4.176-3.2519999-5.802666-6.2653332-11.432-9.0493331-16.879999-2.7839999-5.453334-5.4533332-10.614667-8.0053331-15.488-.4653334-1.162667-.9893333-2.321333-1.5653333-3.48-.58-1.162667-1.104-2.321333-1.564-3.48-.4693333-1.164-.9906666-2.262666-1.568-3.306666-.5813333-1.044-1.1039999-2.146667-1.5653333-3.305334-.4693333-1.164-.8693333-2.149333-1.2186666-2.958666-.3493333-.816-.7546666-1.686667-1.2186666-2.610667-.4666667-1.392-.9293333-2.3213332-1.3906667-2.7839998 0-.468-.06-.7546667-.1746666-.8693333-.12-.12-.1746667-.408-.1746667-.8706667h-.3466666-.6973334l-.6946666.348c-.468 0-.8706666.0546667-1.2186666.1746667-.348.1133333-.756.1733333-1.2186667.1733333-.4666666.2293333-1.1639999.348-2.0879999.348-.2333334.228-.468.348-.6946667.348h-.348-1.0439999-1.7413333c-2.088 0-3.3666666-.12-3.8279999-.348.696.4626667 1.9679999.8106666 3.8279999 1.044h1.7413333 1.0439999.348.6946667c.696-.2333334 1.3933333-.348 2.0879999-.348.6973333 0 1.5066667-.12 2.4373333-.348h.348.3466666c.2293334.228.3493334.5773333.3493334 1.0439998l.348.348v.697333l.6959999 1.392c.4613334 1.157334.8093334 2.141334 1.044 2.957334.2266667.810666.576 1.794666 1.044 2.958666.4613333 1.157334.8706666 2.316 1.216 3.478667.3493333 1.16.7533333 2.318666 1.2199999 3.481333.4626667 1.158667.984 2.316 1.5666667 3.48.5759999 1.158667 1.0973333 2.317333 1.5653333 3.48 2.0893332 5.102666 4.4639998 10.442666 7.1359998 16.009333 2.6639999 5.569333 5.6226665 11.366666 8.8746664 17.402666l2.0853333 4.176c.464.462667.7533333.869333.8733333 1.218667.112.348.2866667.749333.52 1.217333l.696 1.044.3493333.697333.348.694667c.9253333 1.392 2.3159999 2.785333 4.1746666 4.177333 1.6226666.924 3.5959999 1.62 5.9173327 2.086667h.697334 1.041333 1.393333c.229334 0 .464-.06.696-.172.229334-.12.462667-.174667.697334-.174667h.696c.229333 0 .4-.06.52-.173333.114666-.12.289333-.174667.524-.174667h.694666l.696-.348 1.393334-.349333v-.346667h.348.346666l.349334-.348 1.390666-.696c1.622667-.696 3.188-1.392 4.7-2.089333 1.505333-.694667 3.070667-1.512 4.698667-2.436l1.390666-.348.348-.348h.349334l.346666-.346667h.349334c.46-.469333.869333-.757333 1.218666-.872.345333-.118666.749333-.406666 1.216-.869333.462667-.468.812-.869333 1.044-1.217333.229333-.349334.578667-.756 1.044-1.218667l.349333-.696.349334-.348.345333-.348.349333-.696.349334-.696c.924-1.626667 1.390666-3.714666 1.390666-6.264-.234666-.469333-.349333-.930666-.349333-1.392 0-.469333-.117333-.930666-.346667-1.393333 0-.696-.233333-1.74-.694666-3.132-.234667-.233333-.349334-.406667-.349334-.521333 0-.12-.12-.294667-.349333-.522667l-.345333-.696c0-.233333-.12-.348-.349334-.348v-.348c-.696-.696-1.164-1.512-1.393333-2.436zm-100.5799974-111.3693303c.2293333.2279999 1.2733333 1.1573333 3.1333333 2.7839999 1.8546666 1.6199999 4.1159999 3.8279999 6.7866665 6.6133331 2.6639999 2.7826666 5.5679998 6.0893332 8.6999997 9.9173331 3.1333333 3.8279999 6.3199999 8.1786665 9.5706665 13.0506664.696 2.5506666 1.3933333 5.2746665 2.0879999 8.1799998.6973333 2.8986666 1.6213333 5.9693332 2.7853333 9.2226664-6.4986665-4.4106665-12.997333-10.5013331-19.4906662-18.2719995-6.4973332-7.7759998-11.369333-18.0439996-14.617333-30.8013326l.3493334-.348c0-.696.228-.8146666.6946666-.3466666zm50.1159988-18.79466625-.6946667-.69599998-.696-.69599998c-.2333333-.228-.468-.40266666-.6973333-.52266665-.2346666-.11466667-.4666666-.28666666-.696-.52133333-1.3919999-.92533331-2.6693332-1.39199996-3.8279999-1.39199996h-.348-.3466666-.3493333-1.3933333c-.6946667 0-1.1613333.12-1.3906667.34799999h-.6946666l-.6986667.34799999c-.9293333.23333333-1.7986666.40799999-2.6093332.52266666-.8146667.11999999-1.7986667.40799999-2.9573333.86933331-.468.23333333-1.392.58266665-2.7839999 1.04399997-.6973333 0-1.2786667.12-1.7413333.34799999-.2333334 0-.468.12-.6946667.34799999h-.348-.6973333c-.2333333.23466666-.4666666.34933333-.696.34933333-.2333333.23199999-.5813333.34666666-1.0426666.34666666l-.3493333.34799999-.348.34799999c-.2346667 0-.4066667.06-.5213333.17466668-.12.12-.2933334.1746666-.5226667.1746666-.468.4613334-.9893333.8693334-1.5666666 1.2173333-.5813333.348-1.1026667.7506667-1.5653333 1.2186667 0 .228-.2333333.5746666-.696 1.044l-.6973333.6946666c0 .2293333-.1173333.4626667-.3466667.6973333l-.696.6946667v.3493333h-.3493333v-.3493333l-.3466666-.3466667c-.2346667-.2346666-.408-.468-.5226667-.6973333-.12-.2333333-.2946666-.4666667-.5213333-.6946667-.2333333-.4679999-.408-.7573333-.5226667-.8706666-.12-.1186667-.2933333-.408-.5226666-.8706666-.232-.2333334-.292-.348-.1733333-.348.1133333 0 .0533333-.12-.1733334-.3466667-.6973333-.6973333-1.1639999-1.2733333-1.3919999-1.74133328l-.6973334-.69599998-.3479999-.69599999-1.74-2.08666661c-.2333333 0-.5813333-.22933333-1.0426666-.69733332l-1.0453334-1.04399997c-.9293333-.69599998-1.7999999-1.2173333-2.6106666-1.56666663-.8146666-.34799999-1.6853332-.74933331-2.6106666-1.2173333-.9293333-.22933333-1.7986666-.40266666-2.6093332-.52266665-.816-.11466667-1.8-.17333333-2.9573333-.17333333-1.8546666 0-3.5959999.34799999-5.2213332 1.04399997h-.696v.34666666h-.348c-.2293333.23466666-.5759999.34933332-1.0439999.34933332l-2.088 1.04399998c-.228 0-1.3319999.64133331-3.3066666 1.91466662-1.9679999 1.2773333-3.59466654 2.43599994-4.87199984 3.47866658-1.27199997 1.04399993-1.56666663 1.50666663-.86933331 1.39333333.69466664-.12 3.71333325-1.44666667 9.04799975-4.0026666.4666667 0 1.164-.22933333 2.088-.69599999.468 0 .8146666-.11333333 1.0439999-.34799999h.348.696c1.86-.46266665 3.1319999-.69599998 3.8293333-.69599998.9293333 0 2.3213332.23333333 4.1746665.69599998.6973333.46799999 1.5666666.92933331 2.6106666 1.39199997 1.0453333.46799999 1.7946666.92933331 2.2626666 1.39199996l.696.69599999.696.69599998 1.7399999 1.74133328.348.6946667c.228.4626666.4026667.7519999.5226667.8706666.1146667.1133333.2866667.4026667.5213333.8706666.696.228 1.1573333.6946667 1.392 1.392.228.228.4026666.4613333.5226666.696.1146667.228.288.4626667.5213334.696.2279999.228.4026666.4613333.5226666.696.1146667.228.288.4626666.5226667.6959999l.3466666.348.6973333.696c.228.4613333.4026667.7506667.5213334.8693333.1133333.1146667.2879999.4026667.5226666.8706667.228.4626666.8093333 1.3919999 1.74 2.7839999.228.228.4013333.4626667.5213333.696.1146666.2293333.288.4613333.5226666.696l.6946667.6973333c0 .228.0546667.3466666.1746666.3466666.1146667 0 .1746667.1146667.1746667.348.228-1.1639999.576-2.6693332 1.044-4.5239999l.348-1.0439999.348-1.044.348-.696v-.696l.348-.6959999.3479999-.348c0-.2346667.0546667-.3493334.1746667-.3493334.1133333 0 .1733333-.1186666.1733333-.3466666.2293334-.2333333.348-.468.348-.696l.696-.696 2.088-2.0893333c.2279999 0 .4626666-.12.6959999-.3466666l.3493334-.348h.3466666l.6973333-.6973333h.6946667c1.1586666-.4666667 2.2039999-.8693333 3.1333332-1.2173333.924-.3493334 1.8533333-.7506667 2.784-1.21866667.9239999-.46266666 1.8533333-.86933331 2.7839999-1.2173333.924-.34933333 1.7386666-.75066665 2.4373333-1.21866664.2266666 0 .46-.05466667.6946666-.17466666.2293334-.11333333.4613333-.17333333.696-.17333333.2293333-.22933333.5746667-.34666666 1.044-.34666666.2293333 0 .404-.05466667.5213333-.17466666.1146667-.11466667.288-.17466667.5226667-.17466667h.3493333.3466666.348c.9253333 0 2.0893333.23466667 3.4799999.69599999.2293334.23333333.4026667.34799999.5226667.34799999.1146667 0 .2866667.12.5213333.34799999.6973333.23466666 1.044.46799999 1.044.69599998.2293333 0 .464.12.696.34799999l.348.34933333zm-20.8813328 7.30799985c-2.3213333 1.1599999-3.828 2.5506666-4.5226666 4.1773332-.6973333 1.62-1.0453333 3.0119999-1.0453333 4.1759999 0 2.3159999.1133333 5.1013332.348 8.3533331.228 3.2453333.6973333 7.0746665 1.3919999 11.4853331-.6946666-.9306667-1.5119999-2.088-2.4359999-3.4799999-.468-.6973334-.9293333-1.164-1.392-1.392-1.8599999-3.4813333-3.8279999-6.8479998-5.9159998-10.0946664-1.86-3.0173333-3.9479999-6.1493332-6.2653332-9.3973331-2.3213333-3.2506666-4.6439999-6.1493332-6.9599998-8.6999998-1.6266666-1.39199997-3.3666666-2.08666662-5.2199999-2.08666662-1.8546666 0-3.1333332.23199999-3.8293332.69466665l-17.05333293 6.26399987c-1.85333328.6973333-2.95866659 1.9146666-3.30666658 3.6559999-.34799999 1.7386666-.52133332 2.8386666-.52133332 3.3053332.23333333 3.7079999.98933331 8.9293331 2.26266661 15.661333 1.2773333 6.7266665 3.65333324 13.573333 7.13333312 20.5346661 3.4813333 6.9599999 8.4733332 13.5719997 14.9666663 19.8373329 6.4919999 6.2639998 14.9639997 10.9026664 25.4053327 13.9213329.696.6946667 2.2026666.8093334 4.5239999.348l11.1386664-1.7399999c3.4786666 9.7453326 7.8306665 20.2999996 13.049333 31.6706656 5.2213332 11.364 11.5386664 23.665333 18.9679995 36.890666.4613334.462667.9853333.924 1.5653335 1.392.578666.461333 1.448.810667 2.612 1.044 1.156.229333 2.141333.229333 2.956 0 .812-.233333 1.448-.468 1.916-.694667l13.573333-6.613333c1.156-.468 2.2-1.452 3.130666-2.958666.924-1.512.577334-3.653334-1.044-6.437334-2.086666-3.481333-4.758666-8.065333-8.002666-13.747999-3.253333-5.688-6.732-12.181333-10.442667-19.490666-3.714666-7.308-7.4826661-15.1386668-11.310666-23.4906666-3.8279999-8.3533331-7.2546665-16.9399995-10.2679998-25.7559993-2.0866666-5.3386665-3.8279999-10.6733331-5.2186665-16.0079996-.4693333-1.86-.9293333-3.6013333-1.3933333-5.2199999-.4666666-1.6266666-.9293333-3.3666666-1.3906666-5.2199999.2266666.2266667 1.6799999 1.6186667 4.3493332 4.1746666 2.6639999 2.5506666 5.9159999 5.7426665 9.7439998 9.5706664s7.8853331 8.0053332 12.1826662 12.5306664c4.289333 4.5226665 8.177333 8.8733331 11.658667 13.0506663l8.701333-.348c-5.341334-7.4279998-10.789333-14.8519996-16.357333-22.2746661-4.645334-6.4973331-9.8053334-13.3986663-15.4866666-20.7066661-5.6906665-7.3093332-10.9639997-13.9826663-15.8359996-20.0119995-.4693333-.468-.816-.6973333-1.044-.6973333-.2346666-.2333334-.584-.3466667-1.0453333-.3466667-.468-.2346667-.8146666-.2946667-1.0439999-.1746667-.2346667.1146667-.468.1746667-.6946667.1746667z" transform="matrix(1 0 0 -1 273 184)"/><path d="m128.33333 137.666663c-.468-.696-.929333-1.392-1.392-2.088-.468-.697333-.929333-1.392-1.392-2.089333-.466666-.694667-.869333-1.392-1.217333-2.086667-.349333-.697333-.756-1.512-1.218667-2.436-.468-.697333-.929333-1.393333-1.392-2.089333-.468-.696-.929333-1.392-1.392-2.088-1.626666-2.784-3.192-5.628-4.698666-8.526666-1.512-2.904-3.077334-5.628-4.698667-8.178667-.696-1.392-1.392-2.729333-2.088-4.002666-.696-1.277334-1.392-2.609334-2.088-4.001334-.696-1.1639995-1.338666-2.3839995-1.914666-3.6559994-.581334-1.2773333-1.217334-2.496-1.914667-3.6533333-2.556-4.8719999-4.7573331-9.3426664-6.6119998-13.3999996-1.8586666-4.0626666-3.4799999-7.7159998-4.8719998-10.9626664-.468-.9306667-.756-1.74-.8693334-2.436-.12-.696-.4093333-1.3919999-.8719999-2.0879999-.232-.468-.4666667-.9893333-.6946667-1.5666666-.2346666-.5813334-.468-1.104-.6973333-1.5666667-.4666667-1.1639999-.8146666-1.9733333-1.044-2.4359999-.2333333-.4666667-.348-.9293333-.348-1.392 0 .4626667.348 1.74 1.0453333 3.8279999.4613334 1.392.8093334 2.552 1.044 3.4813333.228.696.4626667 1.3919999.6946667 2.0879999.2293333.696.4626666 1.5066666.6973333 2.436 1.1586666 3.2466665 2.5506666 6.9599998 4.1759999 11.137333 1.6199999 4.1759999 3.5946666 8.8146665 5.9159997 13.9199997.462667 1.1586666.984 2.4373332 1.566667 3.8293332.577333 1.3919998 1.218666 2.6639998 1.914666 3.8293328.461334 1.390667 1.044 2.782667 1.74 4.174667s1.392 2.784 2.088 4.177333c1.393334 2.784 2.784 5.568 4.176 8.353333 1.392 2.784 3.013333 5.682667 4.873333 8.7.461334.696.869334 1.392 1.217334 2.089333.349333.694667.750666 1.505334 1.218666 2.436.462667.694667.869334 1.392 1.217334 2.086667.349333.697333.750666 1.506667 1.218666 2.436.462667.697333.869334 1.392 1.217334 2.089333.349333.696.752 1.392 1.218666 2.088.462667.696.925334 1.506667 1.392 2.436l.348.348.349333.696c0 .228.053334.402667.172.522667.114667.113333.174667.288.174667.522666.462667.922667.696 1.62.696 2.086667 0 .462667.054667.810667.174667 1.044.114666.228.174666.577333.174666 1.045333 0 1.390667-.349333 2.664-1.045333 3.828l-.346667.696v.348l-.349333.348-.348.348c-.234666.462667-.466666.750667-.696.870667-.233333.113333-.468.401333-.696.869333-.929333.462667-1.512.809333-1.74 1.044l-.348.348h-.348l-.348.348-1.393333.348c-1.624.925333-3.190667 1.74-4.697333 2.437333-1.512.694667-3.078667 1.390667-4.698667 2.086667l-1.390666.696-.349334.348h-.348c-.234666 0-.348.114667-.348.349333l-1.044.348h-.348l-.696.346667h-.697333-.346667c-.233333.229333-.582666.348-1.044.348h-1.045333-.694667-.348c-.930666 0-2.322666-.466667-4.1773328-1.392-1.164-.694667-2.0879999-1.625333-2.7839999-2.784-.2333334 0-.348-.12-.348-.346667l-.348-.697333-.696-1.044c-.468-.929333-.9306666-1.625333-1.392-2.088-.9306666-1.86-1.7399999-3.252-2.4373332-4.176-3.2506666-5.802666-6.2639999-11.432-9.0479998-16.879999-2.7839999-5.453334-5.4546665-10.614667-8.0053331-15.488-.4666667-1.162667-.9893333-2.321333-1.5653333-3.48-.5813334-1.162667-1.104-2.321333-1.5653333-3.48-.468-1.164-.9893333-2.262666-1.5666667-3.306666-.5826666-1.044-1.1039999-2.146667-1.5666666-3.305334-.468-1.164-.8693333-2.149333-1.2173333-2.958666-.3493333-.816-.756-1.686667-1.2186666-2.610667-.468-1.392-.9293333-2.3213332-1.392-2.7839998 0-.468-.06-.7546667-.1746667-.8693333-.1186666-.12-.1733333-.408-.1733333-.8706667h-.3466666-.6973334l-.6959999.348c-.468 0-.8706667.0546667-1.2186667.1746667-.3466666.1133333-.756.1733333-1.2186666.1733333-.4666667.2293333-1.1626666.348-2.0866666.348-.2346667.228-.4693333.348-.696.348h-.348-1.044-1.7399999c-2.088 0-3.3666666-.12-3.8293333-.348.696.4626667 1.968.8106666 3.8293333 1.044h1.7399999 1.044.348.696c.6946666-.2333334 1.3919999-.348 2.0866666-.348.6973333 0 1.5066666-.12 2.4373333-.348h.348.3479999c.228.228.348.5773333.348 1.0439998l.3493334.348v.697333l.6946666 1.392c.4626667 1.157334.8093333 2.141334 1.044 2.957334.228.810666.5773333 1.794666 1.044 2.958666.4626666 1.157334.8706666 2.316 1.2173333 3.478667.3493333 1.16.7519999 2.318666 1.2199999 3.481333.4613334 1.158667.984 2.316 1.5653333 3.48.576 1.158667 1.0986667 2.317333 1.5653333 3.48 2.0893333 5.102666 4.4653332 10.442666 7.1359998 16.009333 2.664 5.569333 5.6226666 11.366666 8.8746665 17.402666l2.0866666 4.176c.4626667.462667.752.869333.872 1.218667.1133333.348.288.749333.52 1.217333l.6973333 1.044.348.697333.348.694667c.9253333 1.392 2.3173332 2.785333 4.1759999 4.177333 1.6213333.924 3.5946665 1.62 5.9173327 2.086667h.696 1.042667 1.393333c.228 0 .462667-.06.696-.172.228-.12.461334-.174667.696-.174667h.696c.229334 0 .401334-.06.521334-.173333.114666-.12.289333-.174667.522666-.174667h.696l.696-.348 1.392-.349333v-.346667h.348.348l.348-.348 1.392-.696c1.621333-.696 3.188-1.392 4.698667-2.089333 1.506666-.694667 3.072-1.512 4.698666-2.436l1.392-.348.348-.348h.348l.348-.346667h.348c.461334-.469333.870667-.757333 1.218667-.872.346666-.118666.749333-.406666 1.217333-.869333.461333-.468.810667-.869333 1.044-1.217333.229333-.349334.577333-.756 1.044-1.218667l.348-.696.349333-.348.346667-.348.348-.696.349333-.696c.924-1.626667 1.392-3.714666 1.392-6.264-.234666-.469333-.349333-.930666-.349333-1.392 0-.469333-.118667-.930666-.348-1.393333 0-.696-.232-1.74-.694667-3.132-.234666-.233333-.349333-.406667-.349333-.521333 0-.12-.12-.294667-.348-.522667l-.346667-.696c0-.233333-.12-.348-.349333-.348v-.348c-.696-.696-1.162667-1.512-1.392-2.436zm-100.5813307-111.3693303c.2293333.2279999 1.2746666 1.1573333 3.1333332 2.7839999 1.8546667 1.6199999 4.1173333 3.8279999 6.7866665 6.6133331 2.6653333 2.7826666 5.5693332 6.0893332 8.6999998 9.9173331 3.1333333 3.8279999 6.3199999 8.1786665 9.5719998 13.0506664.6946666 2.5506666 1.3919999 5.2746665 2.0866666 8.1799998.6973333 2.8986666 1.6213333 5.9693332 2.7853333 9.2226664-6.4986665-4.4106665-12.9973331-10.5013331-19.4893329-18.2719995-6.4986665-7.7759998-11.3706664-18.0439996-14.617333-30.8013326l.348-.348c0-.696.228-.8146666.6946667-.3466666zm50.1173321-18.79466625-.696-.69599998-.696-.69599998c-.2333333-.228-.468-.40266666-.696-.52266665-.2346666-.11466667-.468-.28666666-.6973333-.52133333-1.3906666-.92533331-2.6679999-1.39199996-3.8279999-1.39199996h-.3466667-.348-.3493333-1.3919999c-.6946667 0-1.1626667.12-1.392.34799999h-.6946667l-.6973333.34799999c-.9293333.23333333-1.7986666.40799999-2.6106666.52266666-.8146666.11999999-1.7986666.40799999-2.9573332.86933331-.468.23333333-1.392.58266665-2.784 1.04399997-.6959999 0-1.2773333.12-1.7399999.34799999-.2346667 0-.4693333.12-.696.34799999h-.348-.6973333c-.232.23466666-.4666667.34933333-.6946667.34933333-.2346666.23199999-.5826666.34666666-1.0439999.34666666l-.348.34799999-.3493334.34799999c-.2333333 0-.4066666.06-.5213333.17466668-.12.12-.2933333.1746666-.5226666.1746666-.468.4613334-.9893333.8693334-1.5653333 1.2173333-.5813333.348-1.104.7506667-1.5666666 1.2186667 0 .228-.2333334.5746666-.696 1.044l-.696.6946666c0 .2293333-.1186667.4626667-.348.6973333l-.696.6946667v.3493333h-.3493333v-.3493333l-.3466667-.3466667c-.2333333-.2346666-.408-.468-.5226666-.6973333-.12-.2333333-.2933333-.4666667-.5213333-.6946667-.2333334-.4679999-.408-.7573333-.5226667-.8706666-.1186667-.1186667-.2933333-.408-.5226667-.8706666-.2319999-.2333334-.2919999-.348-.1733333-.348.1146667 0 .0546667-.12-.1733333-.3466667-.696-.6973333-1.164-1.2733333-1.392-1.74133328l-.6973333-.69599998-.348-.69599999-1.7386666-2.08666661c-.2346667 0-.5826667-.22933333-1.044-.69733332l-1.0453333-1.04399997c-.9293333-.69599998-1.7986666-1.2173333-2.6106666-1.56666663-.8146666-.34799999-1.6839999-.74933331-2.6093333-1.2173333-.9293333-.22933333-1.7999999-.40266666-2.6106666-.52266665-.8146666-.11466667-1.7986666-.17333333-2.9573332-.17333333-1.8546666 0-3.5946666.34799999-5.2199999 1.04399997h-.6973333v.34666666h-.348c-.228.23466666-.576.34933332-1.044.34933332l-2.0879999 1.04399998c-.228 0-1.332.64133331-3.3066666 1.91466662-1.9679999 1.2773333-3.59333324 2.43599994-4.87199988 3.47866658-1.27199996 1.04399993-1.56666662 1.50666663-.86933331 1.39333333.69599998-.12 3.71333329-1.44666667 9.04799979-4.0026666.468 0 1.164-.22933333 2.0879999-.69599999.468 0 .816-.11333333 1.044-.34799999h.348.6973333c1.8586666-.46266665 3.1306666-.69599998 3.8279999-.69599998.9293333 0 2.3213333.23333333 4.1746666.69599998.6973333.46799999 1.5666666.92933331 2.6106666 1.39199997 1.0453333.46799999 1.7946666.92933331 2.2626666 1.39199996l.696.69599999.6973333.69599998 1.7386666 1.74133328.348.6946667c.2293333.4626666.4026667.7519999.5226667.8706666.1146666.1133333.288.4026667.5213333.8706666.6973333.228 1.1586666.6946667 1.3919999 1.392.2293334.228.4026667.4613333.5226667.696.1146667.228.2893333.4626667.5213333.696.2293333.228.4026667.4613333.5226667.696.1146666.228.288.4626666.5226666.6959999l.3466667.348.6973333.696c.228.4613333.4026667.7506667.5213333.8693333.1146667.1146667.288.4026667.5226667.8706667.228.4626666.8093333 1.3919999 1.7399999 2.7839999.2293334.228.4026667.4626667.5213334.696.1146666.2293333.2879999.4613333.5226666.696l.696.6973333c0 .228.0533333.3466666.1733333.3466666.1146667 0 .1746667.1146667.1746667.348.228-1.1639999.5773333-2.6693332 1.044-4.5239999l.3479999-1.0439999.348-1.044.3493334-.696v-.696l.3466666-.6959999.348-.348c0-.2346667.0546667-.3493334.1746667-.3493334.1146666 0 .1733333-.1186666.1733333-.3466666.2293333-.2333333.3493333-.468.3493333-.696l.6946667-.696 2.0879999-2.0893333c.228 0 .4626667-.12.6973333-.3466666l.348-.348h.3466667l.6973333-.6973333h.6946667c1.1586666-.4666667 2.2039999-.8693333 3.1333332-1.2173333.924-.3493334 1.8546666-.7506667 2.7839999-1.21866667.924-.46266666 1.8533333-.86933331 2.7853333-1.2173333.924-.34933333 1.7386666-.75066665 2.4359999-1.21866664.228 0 .4613334-.05466667.6946667-.17466666.2293333-.11333333.4626666-.17333333.6973333-.17333333.228-.22933333.5746667-.34666666 1.044-.34666666.228 0 .4026666-.05466667.5213333-.17466666.1146667-.11466667.288-.17466667.5213333-.17466667h.3493333.348.3466667c.9253333 0 2.0893333.23466667 3.4813332.69599999.2293334.23333333.4013334.34799999.5213334.34799999.1146666 0 .288.12.5226666.34799999.696.23466666 1.044.46799999 1.044.69599998.228 0 .4626666.12.696.34799999l.348.34933333zm-20.8813328 7.30799985c-2.3226667 1.1599999-3.8293333 2.5506666-4.5239999 4.1773332-.6973334 1.62-1.0453333 3.0119999-1.0453333 4.1759999 0 2.3159999.1146666 5.1013332.3479999 8.3533331.2293334 3.2453333.6973334 7.0746665 1.392 11.4853331-.6946666-.9306667-1.5119999-2.088-2.4359999-3.4799999-.468-.6973334-.9293333-1.164-1.392-1.392-1.8586666-3.4813333-3.8279999-6.8479998-5.9159998-10.0946664-1.86-3.0173333-3.9479999-6.1493332-6.2653332-9.3973331-2.3213333-3.2506666-4.6426666-6.1493332-6.9599998-8.6999998-1.6253333-1.39199997-3.3666666-2.08666662-5.2199999-2.08666662-1.8546666 0-3.1319999.23199999-3.8293333.69466665l-17.05333286 6.26399987c-1.85333329.6973333-2.95733326 1.9146666-3.30533325 3.6559999-.34933333 1.7386666-.52266665 2.8386666-.52266665 3.3053332.23333332 3.7079999.99066664 8.9293331 2.26266661 15.661333 1.27866663 6.7266665 3.65466657 13.573333 7.13466645 20.5346661 3.4799999 6.9599999 8.4719998 13.5719997 14.965333 19.8373329 6.4919998 6.2639998 14.9639996 10.9026664 25.406666 13.9213329.6946667.6946667 2.2013333.8093334 4.5239999.348l11.1373331-1.7399999c3.4799999 9.7453326 7.8306664 20.2999996 13.0506663 31.6706656 5.2199999 11.364 11.5386664 23.665333 18.9666662 36.890666.4626667.462667.9853333.924 1.5666668 1.392.577333.461333 1.446666.810667 2.610666 1.044 1.157334.229333 2.142667.229333 2.957334 0 .810666-.233333 1.446666-.468 1.914666-.694667l13.573333-6.613333c1.157334-.468 2.201334-1.452 3.132-2.958666.924-1.512.576-3.653334-1.044-6.437334-2.088-3.481333-4.758666-8.065333-8.004-13.747999-3.253333-5.688-6.731999-12.181333-10.441333-19.490666-3.714666-7.308-7.4826661-15.1386668-11.3119993-23.4906666-3.8279999-8.3533331-7.2533332-16.9399995-10.2666665-25.7559993-2.0879999-5.3386665-3.8279999-10.6733331-5.2199998-16.0079996-.468-1.86-.9293333-3.6013333-1.392-5.2199999-.468-1.6266666-.9293333-3.3666666-1.392-5.2199999.228.2266667 1.68 1.6186667 4.3506666 4.1746666 2.6639999 2.5506666 5.9159999 5.7426665 9.7439998 9.5706664s7.8853331 8.0053332 12.1813332 12.5306664c4.290666 4.5226665 8.178666 8.8733331 11.658666 13.0506663l8.701333-.348c-5.34-7.4279998-10.789333-14.8519996-16.357333-22.2746661-4.644-6.4973331-9.8053327-13.3986663-15.4866659-20.7066661-5.6893332-7.3093332-10.9639997-13.9826663-15.8359996-20.0119995-.468-.468-.816-.6973333-1.044-.6973333-.2333333-.2333334-.5826667-.3466667-1.0453333-.3466667-.4666667-.2346667-.8146667-.2946667-1.044-.1746667-.2333333.1146667-.4666666.1746667-.6946666.1746667z" transform="matrix(1 0 0 -1 361 184)"/><path d="m121.666664 46.6666655c0-2.0866666-.12-3.7079999-.348-4.8719999-.234667-.696-.468-1.4453333-.696-2.2626666-.233334-.8093333-.468-1.5653333-.696-2.2613333-.468-.6959999-.870667-1.3919999-1.218667-2.0879999-.346667-.6973333-.756-1.272-1.217333-1.74-.696-.9239999-1.74-2.0879999-3.132-3.4799999l-1.045334-1.0453333-.696-.696-2.087999-1.0439999c-.929334-.4626667-1.625334-.696-2.088-.696-.929334-.4613334-1.74-.696-2.436-.696-1.392-.4626667-2.904-.228-4.525334.696-.232.2333333-.466666.348-.694666.348l-.349334.348c-.233333 0-.348.06-.348.1746666 0 .12-.118666.1746667-.346666.1746667l-.348.3466666c0 .2346667-.12.348-.349334.348l-.3479995.696-.3466667.348v.348l-1.0439999 1.044h-.348l-.3493333.3493333-.348.348-1.392.6946666c-.4666667.4693334-.9293333.6973333-1.392.6973333-.4666666.4666667-.9293333.696-1.3919999.696-.2333334.2333334-.408.348-.5213333.348-.12 0-.2946667.12-.5226667.348-.9293333.2333333-1.74.4666667-2.4359999.696-.696.2333333-1.392.468-2.088.6946666-1.392.2346667-2.4359999.5826667-3.1333332 1.0453334-.4666667 0-.8146667.06-1.0426667.1746666-.2346666.1186667-.4693333.172-.6973333.172h1.74 1.5666666c.5773333 0 1.2186666-.1133333 1.9133333-.3466666.6973333 0 2.2039999-.228 4.5253332-.696.4626666 0 .7506666-.0546667.8693333-.1746667.1146667-.1146667.2893333-.1746667.5226667-.1746667.4626666 0 .7493333-.0533333.8693333-.172.1146666-.1146666.4026666-.1746666.8719999-.1746666.4613334-.228.924-.4026667 1.392-.5226667.4613333-.1146666.924-.4026666 1.392-.8693333.2266666 0 .4013333-.0546666.5213333-.1746666.1146667-.1133334.288-.1733334.5226666-.1733334l.3466667-.3493333.3479995-.3466667c.462667-.2279999.752-.4026666.872-.5226666.112-.1146667.401334-.288.869334-.5226667 0-.228.113333-.4613333.348-.6946666l.346666-.3493333.349334-.348h.348v-.3466667h.348.346666c.925334-.4626666 1.741334-.5773333 2.436-.3493333.229334 0 .812.2346667 1.741334.696.462666 0 .924.2346666 1.392.6973333.228.2333333.462666.408.697333.5213333.226667.1186667.461333.2933333.694667.5213333.229333 0 .348.06.348.1746667 0 .12.114666.1746667.348.1746667l.696.6946666c.462666.468.870666.9306666 1.218666 1.392.348.4693333.750667.9306666 1.217333 1.3933333.462667 1.1626666 1.044 2.3213332 1.741334 3.4799999.228.468.402666 1.044.521333 1.7399999.113333.696.288 1.2773333.522667 1.74 0 .696.053333 1.3386666.173333 1.9133333.114667.5826666.174667 1.22.174667 1.9146666v.3493333.3466667 1.0453333c0 .4666666-.06.7546666-.174667.8693333-.12.12-.173333.408-.173333.8693333-.234667 2.324-1.164 4.4106666-2.785334 6.2666665-1.391999 1.624-3.250666 3.2506666-5.567999 4.8719999-.466667.4666667-.929334.7546666-1.392.8693333-.468.12-.930667.408-1.393334.8706667l-3.130666 1.0439999-1.392.6946667c-.234667 0-.468.12-.697334.3493333h-.346666-.348c-.234667.2333333-.5826668.348-1.0440002.348h-.3493333c-.2333333.2333333-.468.3466667-.6946666.3466667-.468 0-.8173333.06-1.0453333.1746666-.2333334.12-.4666667.1746667-.696.1746667-.468 0-.8146667.1186666-1.0426667.348h-.3493333c0 .2333333-.12.348-.348.348v.3466666c0 .2346667.1146667.4693333.348.6973333 0 .4666667.1146667.696.3493333.696.228 0 .3466667.0586667.3466667.1733333 0 .12.1146667.1746667.348.1746667.2293333.2333333.4026667.348.5226666.348.1146667 0 .288.12.5213334.348h.348v.348h.6973333c.4613333.2333333.924.5826666 1.3906666 1.044.4626665.2333333.9253335.5813333 1.3919995 1.0439999 0-.228-.346666-.696-1.044-1.3919999l-1.0439995-1.044c0 .2333333-.348 0-1.0426666-.696l-.3493333-.348c-.2333334 0-.2333334-.1146666 0-.348v-.348c.2293333-.228.4626666-.348.6973333-.348h1.0439999.6946662 1.044.348l.349334-.3493333h.694666c.462667 0 .752-.0533333.872-.172.113334-.1146666.401334-.1746666.869334-.1746666l3.132-1.0453333c.696-.2266667 1.333333-.4613334 1.913333-.6946667.577333-.2293333 1.098667-.4626666 1.566667-.696 1.158666-.696 2.316-1.4466666 3.479999-2.2626666 1.158667-.8106666 2.317334-1.7933333 3.481334-2.9586666 2.088-2.0879999 3.48-4.7519999 4.176-8.0039998.228-.4626666.348-.8106666.348-1.0453333 0-.228.113333-.5746666.348-1.044v-1.3919999-.6946667zm-70.3026653 24.0146661c-.2333333-.228-.4066667-.348-.5213333-.348-.12 0-.2933334-.1146667-.5226667-.348h2.436c.4626666 0 .8706666.06 1.2186666.1733333.348.12.7506666.1746667 1.2186666.1746667h.3466667l.3493333 1.0439999c.228.468.348.816.348 1.044 0 .2333334.1146667.5826667.3466667 1.0453333l.3493333.6946667v.348c0 .2346666.0533333.3493333.1733333.3493333.1146667 0 .1746667.1186667.1746667.3466667h-.348l-.3493333-.3466667h-.3466667c-.468-.4626667-.9893333-.9253333-1.5666666-1.392-.5826667-.4626666-1.104-.9253333-1.5666667-1.3933333-.4666666-.228-1.0426666-.696-1.7399999-1.3919999zm70.9986653 64.7346654.696 1.390666c.462666.925334.696 1.74.696 2.437334.228 0 .348.228.348.694666v.697333 2.088c-.234667 0-.348.113334-.348.348v.694667c0 .229333-.06.349333-.173334.349333-.12 0-.174666.113334-.174666.348-.468.924-.930667 1.62-1.392 2.088l-.348.348v.348h-.348l-1.044 1.044c-.468.461334-.816.750667-1.044.869334-.234667.114666-.582667.402666-1.044.870666-.696.696-1.392 1.392-2.089334 2.088-.694666.696-1.512 1.393333-2.436 2.088-.466666.462667-.869333.810667-1.217333 1.044-.348.228-.756.577333-1.218666 1.045333l-1.392.694667-.348.697333-.696.346667c-.468.229333-.929334.577333-1.392 1.045333-.468 0-.929334.228-1.392.696-.234667 0-.348.053334-.348.173334 0 .114666-.12.174666-.349334.174666l-.694666.346667c-.234667.229333-.582667.349333-1.044.349333-.468.228-1.277334.348-2.436.348 0-.234666-.234667-.348-.697334-.348h-.348c-.232 0-.346666-.06-.346666-.174666 0-.118667-.12-.174667-.348-.174667h-.6973335c-1.164-.694667-2.5559999-1.973333-4.1746666-3.828-1.3933333-1.392-2.7306666-2.842667-4.0026665-4.349333-1.2786667-1.512-2.496-2.958667-3.6559999-4.350667-1.1626667-1.392-2.1466666-2.670666-2.9573333-3.828-.816-1.164-1.5653333-2.088-2.2626666-2.785333-.9293333-.929333-1.5653333-1.625333-1.9133333-2.086666-.348-.468-.6426666-.817334-.8693333-1.045334 0 .462667.112.925334.3466667 1.392v-.346666.694666l.348.349333v.694667c0 1.158667-.12 2.204-.348 3.133333 0 .228-.2346667.809334-.696 1.74 0 .461334-.1186667.809334-.348 1.044-.2333333.228-.468.576-.6946667 1.044 0 .228-.12.348-.3493333.348 0 .229334-.06.348-.1733333.348-.12 0-.1746667.113334-.1746667.348l-1.044 1.044c-.2333333 0-.3479999.053334-.3479999.173334 0 .114666-.12.174666-.348.174666 0 .228-.2333334.348-.696.348l-1.044 1.044c-.2333333.228-.408.462667-.5226666.697334-.12.226666-.4066667.461333-.8693334.694666l-1.0439999 1.044c-1.392.925333-2.3226666 1.621333-2.784 2.089333-2.3226666 1.853334-4.2973332 3.36-5.9173331 4.524-.9293334.462667-1.512.810667-1.74 1.042667l-.348.349333h-.696l-.696.696c-.9293333.461334-1.9746666.696-3.1333332.696-2.3213333 0-4.2946666-.696-5.9146665-2.088-1.3933333-.930666-2.3226666-1.74-2.7853333-2.436 0-.233333-.06-.348-.1733333-.348-.12 0-.1746667-.12-.1746667-.348l-.348-.349333h-.348v-.346667c-.2333333-.468-.408-.757333-.5213333-.870666-.12-.12-.2946666-.406667-.5226666-.869334-.696-1.164-1.4466667-2.322666-2.2626667-3.479999-.8093333-1.164-1.5666666-2.324-2.2613332-3.481334-.4626667-.466666-.7506667-.989333-.8693333-1.566666-.1146667-.581334-.4026667-1.104-.872-1.565334l-2.0866666-3.132c-1.1586667-2.088-1.796-3.018666-1.9146667-2.785333-.1146666.229333.1733334 1.218667.8706667 2.958667.6946666 1.741333 1.6253333 3.942666 2.7826666 6.613333 1.1653333 2.664 2.5559999 5.394666 4.1773332 8.178666.468.924.816 1.505334 1.044 1.738667l.348.349333v.348c.2333333 0 .348.114667.348.346667.4626666.462667.696.812.696 1.045333.9253333 1.392 2.0879999 2.550667 3.4799999 3.48l2.0879999 1.044c.4626667.462667.8706667.696 1.2186667.696.3479999 0 .7506666.114667 1.2173333.348.4626666.228.8706666.348 1.2186666.348s.7506666.114667 1.2186666.348h2.7826666c.9253333-.233333 1.4466667-.348 1.5666667-.348.1146666 0 .5226666-.234667 1.2186666-.696.228 0 .576-.233333 1.044-.696.228 0 .4626666-.12.6959999-.346666l.348-.349334c.4613334-.233333.7506667-.408.8706667-.522666.1133333-.12.4026666-.293334.8693333-.521334l1.392-1.392c.4626666-.233333 1.0453333-.696 1.7399999-1.392l.696-.348c0-.468.228-.697333.6973333-.697333.228-.694667.6946667-1.162667 1.392-1.390667.4626666-.468.8693333-.930666 1.2173333-1.392.3493333-.468.7506666-.930666 1.2186666-1.392l1.044-1.045333 1.392-1.390667 1.0439999-1.045333c0-.233333.0533334-.346666.1733334-.346666.1146666 0 .1746666-.12.1746666-.349334l.6973333-.696c.2266667-.233333.3466667-.406666.3466667-.521333 0-.12.1146667-.294667.348-.522667l.6973333-.696c0-.233333.112-.468.3466667-.696.228-.466666.4026666-.869333.5226666-1.218666.1146667-.348.288-.754667.5213333-1.217334 0-1.164.1146667-1.973333.348-2.436 0-.468-.06-.989333-.1746666-1.566666-.1186667-.581334-.1733334-1.104-.1733334-1.566667 0 .462667.1146667.810667.348 1.045333.4626667.924 1.044 2.028 1.7413333 3.305334.6946667 1.273333 1.5053333 2.610666 2.436 4.002666.9239999 1.621334 1.9146666 3.246667 2.9573332 4.872 1.044 1.621333 2.1426666 3.361333 3.3066666 5.22.4626667.697333 1.272 1.621333 2.4359999 2.785333l.348.348.348.348.696.696c.228 0 .4626667.114667.696.348.2293333.229334.4026666.348.5213333.348.1146667 0 .2893333.114667.5226667.348 2.5506664 1.392 5.3346664 1.74 8.3533334 1.045334.461333 0 1.158666-.234667 2.088-.697334l.696-.696c.228 0 .402666-.06.521333-.173333.114667-.12.289333-.174667.522667-.174667.461333-.468.924-.814666 1.392-1.044.229333-.233333.461333-.408.696-.522666.228-.12.462666-.293334.697333-.522667l.694667-.694667.697333-.348 1.044-1.044 2.436-2.436c.924-.929333 1.74-1.741333 2.436-2.436.696-.697333 1.392-1.512 2.088-2.435999.461333-.469334.750666-.817334.870666-1.045334.113334-.233333.402667-.581333.869334-1.044l1.044-1.044v-.348c.228 0 .348-.12.348-.348 0-.233333.054666-.348.174666-.348.113334 0 .173334-.12.173334-.348.229333-.468.402666-.869333.521333-1.218666.114667-.348.289333-.754667.522667-1.217334 0-.468.054666-.757333.174666-.869333.113333-.12.173333-.294667.173333-.522667v-.697333-.694667c0-.930666-.118666-1.626666-.347999-2.088 0-.468-.12-.817333-.348-1.045333 0-.466666-.118667-.696-.346667-.696-.469333-1.162666-.932-1.974666-1.393333-2.436zm-77.9586651-108.2386643c1.8533333 2.5559999 3.6546665 5.2213332 5.3946665 8.0053331s3.4199999 5.8013332 5.0466665 9.0479998h-2.0893332-1.392c-1.8586666.2346666-3.7133332.2946666-5.5679999.1746666-1.8546666-.1146666-3.2466666-.288-4.1759999-.5226666h-.6973333c-4.6373332-.4626667-9.2226664-1.62-13.745333-3.4799999-4.5253332-1.8546667-7.4826665-4.8733333-8.8746664-9.0479998-.9253333-2.7839999-.9853333-5.1599999-.1746667-7.1359998.816-1.968 2.148-3.4786666 4.0026666-4.5239999 1.8586666-1.044 4.0626666-1.5053333 6.6119998-1.3906667 2.556.1173334 5.2213332.8693334 8.0053332 2.2613333.2333333.2346667 1.0439999.8146667 2.4359999 1.74.9293333.696 1.7986666 1.4519999 2.6106666 2.2626666zm-5.9173332 41.0679989h1.044c-.2266667.2333334-.4013334.348-.5213334.348-.1133333 0-.288.1186667-.5226666.348-2.316.9293333-3.9413333 1.6266666-4.8719999 2.088-2.7839999.9306666-4.5239999 1.7399999-5.2199999 2.4373332.2346667-.2293333 2.088-.6973333 5.5693332-1.3933333.6946667-.228 1.452-.4026666 2.2613333-.5226666.816-.1133334 1.8-.4026667 2.9586666-.8693333.2333333 0 .4666667-.0533334.696-.1733334.2333333-.1146666.468-.1746666.696-.1746666h.3466666l.3493333-.348h.348.696 1.392.696.348l.3479999.348c1.392.468 2.316.9293333 2.784 1.3919999.2293333.2346667.4026666.468.5226666.696.1146667.2333334.4013334.468.8693333.696.2293334.4666667.4626667.756.696.8693333.228.12.4626667.4093333.696.872.4626667.4613333.984.924 1.5666666 1.3906666.576.4626667 1.0986667.9253333 1.5666667 1.392.9239999 1.16 1.8533333 2.1426666 2.7826666 2.9586666.9253333.8106666 1.9693332 1.7946666 3.1333332 2.9586666.4626667.4626666.984.924 1.5666666 1.3919999.576.4626667 1.0973333.924 1.5653333 1.392.2293334.4626667.4613334.7506667.696.8693333.228.1146667.4626667.4026667.6973333.8706667l1.0426667.6959999.3493333.348v-.348l-2.0893333-8.3533331c-.2346666-.6946666-.4066666-1.4519999-.5213333-2.2613333-.12-.8159999-.2933333-1.5666666-.5226667-2.2613332l-.3479999-1.044-.348-1.0453333-.348-1.74c-.468-.9253333-.696-1.6199999-.696-2.0879999-.2333333-.696-.4066667-1.3333333-.5213333-1.9133333-.12-.5773333-.2946667-1.2186666-.5226667-1.9146666l-.348-.3493333v-.3466667h-.348-1.3919999-2.0893333c-.4666667-.228-1.2773333-.348-2.436-.348h-2.2613332c-.8146667 0-1.5666667-.1146667-2.2613333-.3493333-2.0893333 0-3.7159999-.1133333-4.8733332-.3466667h-2.088c-.4626666-.228-1.1586666-.348-2.0893332-.348-.924-.2293333-1.7386667-.4026666-2.436-.5226666-.6946666-.1146667-1.392-.1746667-2.0866666-.1746667-.4626667-.228-.812-.3466666-1.044-.3466666-.2293333 0-.5773333-.1146667-1.0453333-.348h-.696l-.6946666-.3493334h-.3493333c-1.8546667-.4626666-3.132-.8093333-3.8279999-1.0426666-.4626667-.2293333-.8106667-.3493333-1.0453333-.3493333-.2266667 0-.4613334-.1133334-.6946667-.348-.4626667-.2266667-.8093333-.3466667-1.044-.3466667-.228 0-.4626666-.1146666-.6973333-.3493333-4.4026665-1.62-8.0039998-3.4786666-10.7879997-5.5679999-1.1586667-.9239999-2.088-1.6813332-2.7839999-2.2626666-.696-.576-1.1586667-.9826666-1.39200001-1.2173333 0 .2346667 1.16400001 1.7386667 3.47999991 4.5239999.468.468 1.044.9906667 1.74 1.5653333.6959999.5826667 1.5119999 1.2186666 2.4359999 1.916.468.4666666.9306666.7546666 1.392.8693333.4679999.12.9306666.408 1.3933333.8693333.4666666.2346666.7546666.408.8693333.5226666.12.12.408.2933334.8693333.5226667l.6973333.3466667c.2333333.2346666.4666667.3479999.6946666.3479999.468.2346667.7573334.4093334.8706667.5226667.12.12.408.2933333.8706666.5213333.9293333.468 1.512.6973333 1.74.6973333.696.4666667 1.392.7546667 2.0879999.8693333.696.12 1.392.408 2.0893333.8693334h.3466667l.696.3493333c.468 0 .8159999.1186666 1.0439999.348.468 0 1.164.2333333 2.088.6946666zm66.1266653-34.4546658c-1.86 2.556-4.757334 4.5239999-8.7000001 5.9159999-3.9479999 1.3919999-8.3533331 2.4359999-13.225333 3.1319999-.6973333.2346667-1.452.3493333-2.2639999.3493333h-2.2613333c-.468-.9253333-.9293333-1.7959999-1.392-2.6106666-.4666666-.8106666-1.044-1.7946666-1.7399999-2.9586666-1.164-1.8546666-2.6106666-4.0573332-4.3506666-6.6119998-1.7399999-2.5506666-3.8279999-5.1013332-6.2639998-7.6573332-2.4373333-2.5493332-5.2213332-4.9866665-8.3533332-7.3093331-3.1319999-2.3159999-6.6719998-4.1759999-10.6146664-5.5679999-5.3346665-1.85333325-10.9026664-2.66533323-16.7053329-2.4359999-7.6573331.46799999-13.453333 3.1919999-17.4013329 8.1786665-3.94266654 4.9919998-5.50933317 10.5599997-4.69866652 16.7053329.81599998 6.1506665 4.35066652 12.0066663 10.61466642 17.5759995 6.2653332 5.5679999 15.7813329 9.0479998 28.5386659 10.4399998 1.1586667 0 2.5506666.12 4.1759999.3493333 1.392.2333333 2.9586666.348 4.6986666.348 1.7413333 0 3.7679999.1186667 6.0906665.3466667h1.044c2.3173332 6.7319998 4.1759999 12.937333 5.5679998 18.6199995 1.392 5.6826665 2.3173333 9.7999997 2.7853333 12.3559997.228.924.4026666 1.8533333.5213333 2.7839999.1146667.924.2893333 1.7386666.5213333 2.4359999.2293334.4626667.3493334 1.044.3493334 1.74.2279999.4613335.3479999.8706665.3479999 1.2186665 0 .346667.1146667.749333.348 1.217333-3.0186666-3.4813328-6.0906665-6.7866661-9.2226664-9.918666s-5.9773332-5.9159998-8.5266665-8.3519998c-2.5559999-2.4373332-4.6986665-4.4106665-6.4386665-5.9173332-1.7413332-1.5119999-2.7306666-2.4959999-2.9586666-2.9586665-.9293333-.4613334-1.5066666-.576-1.7399999-.3466667h-.348l-2.7839999.6946666c-1.6213333.696-3.1866666 1.332-4.6999999 1.9146667-1.504.5759999-3.0706666 1.0986666-4.6973332 1.5653333-3.4799999 1.3919999-5.4493332 4.2906665-5.9159999 8.7013331.4666667 12.2946665 2.9573333 24.1279995 7.4826665 35.4999995 4.5239999 11.363999 10.0373331 22.273332 16.5306663 32.714665 1.1586666 1.392 2.4359999 2.549334 3.8279999 3.478667 1.3919999.925333 3.0133332.812 4.8733332-.346667 1.1586666-.696 2.3759999-1.566666 3.6546665-2.610666 1.272-1.044 2.4893333-2.148 3.6533333-3.306667 1.1586666-.929333 2.5506666-2.206666 4.1773332-3.828 1.62-1.626666 3.0119999-3.018666 4.1759999-4.176l-1.392-2.088c-.6973333-.697333-1.7399999-1.974666-3.1333332-3.827999-5.1053332-7.196-9.5159998-14.677333-13.225333-22.448-3.7133333-7.776-6.4973332-15.836-8.3506665-24.1893326-.2346666-1.1626667.2266667-1.452 1.392-.8693334 1.1573333.576 2.7826666 1.7933333 4.8719999 3.6546666 2.0866666 1.8546666 4.4639999 4.3506666 7.1333331 7.4813334 2.6653333 3.133333 5.3946666 6.553333 8.1786665 10.266666 1.8546666 2.089333 3.5959999 4.290667 5.2213332 6.613333 1.62 2.317334 3.2466666 4.638667 4.8733332 6.96.924 1.393333 2.1413333 3.248 3.6533332 5.569333 1.5066667 2.316 2.8386666 4.405334 4.0026666 6.264.228.462667.4613333.810667.696 1.044.228.228.4626666.577333.696 1.045333 1.1586666 1.853334 2.2613333 3.593334 3.3053332 5.22 1.044 1.62 2.144 3.132 3.3079999 4.524 1.6186667 2.089334 3.0106666 3.828 4.1746666 5.22 1.6213335 1.621333 3.0133335 2.204 4.1759995 1.741333.229334 0 .462667-.12.697334-.349333 2.550666-1.392 5.22-3.425333 8.005333-6.089333 2.784-2.670667 4.985333-4.932 6.612-6.786667 0-.234666.114666-.522666.346666-.869333.229334-.349333.349334-.757333.349334-1.218667 0-.697333-.12-1.277333-.349334-1.74-1.162666-1.393333-2.669333-3.481333-4.522666-6.265333-1.861333-2.784-3.829333-6.036-5.917333-9.745333-2.088-3.713333-4.177334-7.716-6.264-12.006666-2.088-4.296-3.8293335-8.525333-5.2213334-12.7026665.4626666.4613335 2.0879999 2.0279995 4.8719994 4.6973335 2.785334 2.665333 6.146667 6.032 10.094667 10.094666 3.941333 4.056 8.118666 8.405333 12.528 13.050666 4.405333 4.637334 8.467999 9.162667 12.181333 13.572h8.699999c-5.801333-7.890666-11.603999-15.661333-17.401333-23.317333-5.106666-6.731999-10.499999-13.866666-16.182666-21.4039991-5.688-7.5426665-11.082666-14.3293329-16.1839994-20.3586661v-.3493334h-.348v-.3479999h-.3466667c-.4693333-.4613334-.8173333-.696-1.0453333-.696l-.348-.348c-.6959999-.228-1.6253332-.348-2.7839999-.348-.468-.924-.9293333-2.436-1.3919999-4.5239999-.468-2.0893333-1.2773334-4.5253332-2.436-7.3093331.696 0 1.1586666-.1146667 1.392-.3466667 1.6199999 0 3.8279999-.1746667 6.6133331-.5226667 2.784-.348 5.5666661-1.0439999 8.3506661-2.0879999 2.785334-1.0453333 5.221334-2.5506666 7.309334-4.5253332 2.088-1.968 3.131999-4.4639999 3.131999-7.4813332 0-1.8546666-.292-3.4213332-.869333-4.6999999-.582666-1.2719999-1.104-2.4893332-1.566666-3.6533332-.466667-.696-1.164-1.5066666-2.088-2.4359999l-.696-.6973334c-.696-.4613333-1.510667-.9239999-2.436-1.3906666-.466667-.228-.816-.348-1.044-.348zm-57.0773322-28.88666592c-.2333333-.228-.4066667-.34799999-.5213333-.34799999-.12 0-.2946667-.11466667-.5226667-.348-.2346666 0-.348-.05466666-.348-.17466666 0-.11466666-.1186666-.17333333-.348-.17333333-.2333333-.22799999-.468-.34799999-.696-.34799999-.2346666 0-.4666666-.11466666-.6959999-.34799999-2.088-.92399998-4.4053333-1.62133329-6.9599999-2.08799995-2.7853332-.69733331-6.0306665-1.0453333-9.7453331-1.0453333-4.4039998 0-8.3519997.81733331-11.833333 2.43733327-3.9426666 1.62533329-7.07466648 3.9479999-9.39599975 6.95999982-2.31733328 2.78399994-4.05733324 5.80266654-5.21999987 9.04799974-.46266666 1.8613333-.81199998 3.1333333-1.04533331 3.8293333v1.7399999 1.044.696 3.1319999c.23333333-.228.34799999-.576.34799999-1.044 0-.4613333.23466666-1.1586666.69733332-2.0879999v-.696c.23199999 0 .34666666-.228.34666666-.696.23466666-.228.34799999-.4626666.34799999-.696 0-.228.11999999-.4613333.34933332-.6959999.23333333-.4626667.46666666-1.044.69466665-1.74.23466666-.696.46799999-1.2733333.69733332-1.74 1.16266663-2.0893332 3.13066658-4.5253332 5.91599988-7.3093331 2.3213332-2.088 5.1053332-3.82799991 8.3519998-5.21999987 3.4799999-1.6213333 6.7333331-2.55066661 9.745333-2.78399994 1.86-.22933332 3.54-.40266665 5.0466666-.52133332 1.5106666-.11466666 2.9573332-.05466666 4.3493332.17333333 1.392 0 2.6706666.05866667 3.8279999.17333333 1.164.12 2.2093333.17466666 3.1333333.17466666.4626666.23333333.924.348 1.3919999.348h1.044c.228.23333332.5773333.34799999 1.044.34799999z" transform="matrix(1 0 0 -1 430 250)"/><path d="m.3333333.3333333v-.052c0-.32533332.42933332.052.10266666.052z" transform="matrix(1 0 0 -1 444 68)"/><path d="m.3333333.3333333v.05066667c-.31733333-.004 0-.37466666 0-.05066667" transform="matrix(1 0 0 -1 441 68)"/></g></g></svg>