<?xml version="1.0" encoding="UTF-8" standalone="no"?>
<!DOCTYPE svg PUBLIC "-//W3C//DTD SVG 1.1//EN" "http://www.w3.org/Graphics/SVG/1.1/DTD/svg11.dtd">
<svg width="100%" height="100%" viewBox="0 0 64 64" version="1.1" xmlns="http://www.w3.org/2000/svg" xmlns:xlink="http://www.w3.org/1999/xlink" xml:space="preserve" xmlns:serif="http://www.serif.com/" style="fill-rule:evenodd;clip-rule:evenodd;stroke-linecap:round;stroke-linejoin:round;">
  <g transform="matrix(0.829545,0,0,0.829545,10.4545,10.4545)">
    <path d="M51.733,40C51.009,41.642 51.358,43.57 52.613,44.853L52.773,45.013C53.774,46.013 54.338,47.372 54.338,48.787C54.338,50.202 53.774,51.56 52.773,52.56C51.773,53.561 50.415,54.124 49,54.124C47.585,54.124 46.227,53.561 45.227,52.56L45.067,52.4C43.784,51.145 41.855,50.795 40.213,51.52C38.604,52.21 37.554,53.796 37.547,55.547L37.547,56C37.547,58.926 35.139,61.333 32.213,61.333C29.288,61.333 26.88,58.926 26.88,56L26.88,55.76C26.838,53.958 25.692,52.356 24,51.733C22.358,51.009 20.43,51.358 19.147,52.613L18.987,52.773C17.987,53.774 16.628,54.338 15.213,54.338C13.798,54.338 12.44,53.774 11.44,52.773C10.439,51.773 9.876,50.415 9.876,49C9.876,47.585 10.439,46.227 11.44,45.227L11.6,45.067C12.855,43.784 13.205,41.855 12.48,40.213C11.79,38.604 10.204,37.554 8.453,37.547L8,37.547C5.074,37.547 2.667,35.139 2.667,32.213C2.667,29.288 5.074,26.88 8,26.88L8.24,26.88C10.042,26.838 11.644,25.692 12.267,24C12.991,22.358 12.642,20.43 11.387,19.147L11.227,18.987C10.226,17.987 9.662,16.628 9.662,15.213C9.662,13.798 10.226,12.44 11.227,11.44C12.227,10.439 13.585,9.876 15,9.876C16.415,9.876 17.773,10.439 18.773,11.44L18.933,11.6C20.216,12.855 22.145,13.205 23.787,12.48L24,12.48C25.609,11.79 26.66,10.204 26.667,8.453L26.667,8C26.667,5.074 29.074,2.667 32,2.667C34.926,2.667 37.333,5.074 37.333,8L37.333,8.24C37.34,9.99 38.391,11.577 40,12.267C41.642,12.991 43.57,12.642 44.853,11.387L45.013,11.227C46.013,10.226 47.372,9.662 48.787,9.662C50.202,9.662 51.56,10.226 52.56,11.227C53.561,12.227 54.124,13.585 54.124,15C54.124,16.415 53.561,17.773 52.56,18.773L52.4,18.933C51.145,20.216 50.795,22.145 51.52,23.787L51.52,24C52.21,25.609 53.796,26.66 55.547,26.667L56,26.667C58.926,26.667 61.333,29.074 61.333,32C61.333,34.926 58.926,37.333 56,37.333L55.76,37.333C54.01,37.34 52.423,38.391 51.733,40Z" style="fill:rgb(255,214,116);fill-opacity:0.75;fill-rule:nonzero;" />
  </g>
  <g transform="matrix(0.829545,0,0,0.829545,5.45455,5.45455)">
    <circle cx="32" cy="32" r="8" style="fill:none;stroke:currentColor;stroke-width:2px;" />
  </g>
  <g transform="matrix(0.829545,0,0,0.829545,5.45455,5.45455)">
    <path d="M51.733,40C51.009,41.642 51.358,43.57 52.613,44.853L52.773,45.013C53.774,46.013 54.338,47.372 54.338,48.787C54.338,50.202 53.774,51.56 52.773,52.56C51.773,53.561 50.415,54.124 49,54.124C47.585,54.124 46.227,53.561 45.227,52.56L45.067,52.4C43.784,51.145 41.855,50.795 40.213,51.52C38.604,52.21 37.554,53.796 37.547,55.547L37.547,56C37.547,58.926 35.139,61.333 32.213,61.333C29.288,61.333 26.88,58.926 26.88,56L26.88,55.76C26.838,53.958 25.692,52.356 24,51.733C22.358,51.009 20.43,51.358 19.147,52.613L18.987,52.773C17.987,53.774 16.628,54.338 15.213,54.338C13.798,54.338 12.44,53.774 11.44,52.773C10.439,51.773 9.876,50.415 9.876,49C9.876,47.585 10.439,46.227 11.44,45.227L11.6,45.067C12.855,43.784 13.205,41.855 12.48,40.213C11.79,38.604 10.204,37.554 8.453,37.547L8,37.547C5.074,37.547 2.667,35.139 2.667,32.213C2.667,29.288 5.074,26.88 8,26.88L8.24,26.88C10.042,26.838 11.644,25.692 12.267,24C12.991,22.358 12.642,20.43 11.387,19.147L11.227,18.987C10.226,17.987 9.662,16.628 9.662,15.213C9.662,13.798 10.226,12.44 11.227,11.44C12.227,10.439 13.585,9.876 15,9.876C16.415,9.876 17.773,10.439 18.773,11.44L18.933,11.6C20.216,12.855 22.145,13.205 23.787,12.48L24,12.48C25.609,11.79 26.66,10.204 26.667,8.453L26.667,8C26.667,5.074 29.074,2.667 32,2.667C34.926,2.667 37.333,5.074 37.333,8L37.333,8.24C37.34,9.99 38.391,11.577 40,12.267C41.642,12.991 43.57,12.642 44.853,11.387L45.013,11.227C46.013,10.226 47.372,9.662 48.787,9.662C50.202,9.662 51.56,10.226 52.56,11.227C53.561,12.227 54.124,13.585 54.124,15C54.124,16.415 53.561,17.773 52.56,18.773L52.4,18.933C51.145,20.216 50.795,22.145 51.52,23.787L51.52,24C52.21,25.609 53.796,26.66 55.547,26.667L56,26.667C58.926,26.667 61.333,29.074 61.333,32C61.333,34.926 58.926,37.333 56,37.333L55.76,37.333C54.01,37.34 52.423,38.391 51.733,40Z" style="fill:none;fill-rule:nonzero;stroke:currentColor;stroke-width:2px;" />
  </g>
</svg>
