<?xml version="1.0" encoding="UTF-8" standalone="no"?>
<!DOCTYPE svg PUBLIC "-//W3C//DTD SVG 1.1//EN" "http://www.w3.org/Graphics/SVG/1.1/DTD/svg11.dtd">
<svg width="100%" height="100%" viewBox="0 0 64 64" version="1.1" xmlns="http://www.w3.org/2000/svg" xmlns:xlink="http://www.w3.org/1999/xlink" xml:space="preserve" xmlns:serif="http://www.serif.com/" style="fill-rule:evenodd;clip-rule:evenodd;stroke-linecap:round;stroke-linejoin:round;">
  <g transform="matrix(1,0,0,1,4,5)">
    <path d="M56,42.667L56,21.333C55.998,19.432 54.98,17.671 53.333,16.72L34.667,6.053C33.019,5.102 30.981,5.102 29.333,6.053L10.667,16.72C9.02,17.671 8.002,19.432 8,21.333L8,42.667C8.002,44.568 9.02,46.329 10.667,47.28L29.333,57.947C30.981,58.898 33.019,58.898 34.667,57.947L53.333,47.28C54.98,46.329 55.998,44.568 56,42.667Z" style="fill:rgb(255,200,190);fill-rule:nonzero;" />
  </g>
  <g transform="matrix(1,0,0,1,0,-1)">
    <path d="M56,42.667L56,21.333C55.998,19.432 54.98,17.671 53.333,16.72L34.667,6.053C33.019,5.102 30.981,5.102 29.333,6.053L10.667,16.72C9.02,17.671 8.002,19.432 8,21.333L8,42.667C8.002,44.568 9.02,46.329 10.667,47.28L29.333,57.947C30.981,58.898 33.019,58.898 34.667,57.947L53.333,47.28C54.98,46.329 55.998,44.568 56,42.667Z" style="fill:none;fill-rule:nonzero;stroke:currentColor;stroke-width:2px;" />
  </g>
  <path d="M20,11.227L32,18.16L44,11.227" style="fill:none;fill-rule:nonzero;stroke:currentColor;stroke-width:2px;" />
  <path d="M20,50.773L20,38.933L8,32" style="fill:none;fill-rule:nonzero;stroke:currentColor;stroke-width:2px;" />
  <path d="M56,32L44,38.933L44,50.773" style="fill:none;fill-rule:nonzero;stroke:currentColor;stroke-width:2px;" />
  <path d="M8.72,18.56L32,32.027L55.28,18.56" style="fill:none;fill-rule:nonzero;stroke:currentColor;stroke-width:2px;" />
  <path d="M32,57.66L32,32" style="fill:none;fill-rule:nonzero;stroke:currentColor;stroke-width:2px;" />
</svg>
