<svg xmlns="http://www.w3.org/2000/svg" viewBox="0 0 325 147"><defs><style>*{fill:#000}</style></defs><g fill="none" fill-rule="evenodd"><path fill="#000" d="m113 114.127 19.294 2.476-5.738 12.653-20.798 9 4.429 5.289-16.666-1.927 1.5-16.866z"/><path fill="#000" d="m240.165 89.71 21.793-3.029 7.052 31.526-8.485 25.689-11.335-10.54v-9.137l-15.697-7.522z"/><path fill="#000" d="M233.285.955 258.47 19.6l37.348 21.84 28.859 22.68v8.328l-8.91 7.578-19.949 2.83-13.611-2.83-41.271 2.83-4.834-12.947-7.815 63.79 6.677 7.488-14.04 3.138-7-4.677-16.154-33.926 7.909-18.023-34.352 41.838-15.817 6.03v10.845l-12.205-9.209v-16.367l6.696-5.513 16.212-66.449-12.737 29.824-6.739 25.505-17.988 3.331-25.103-32.226 11.12 28.369-49.33 35.971 5.58 4.677-13.26-1.06-3.51-9.567 9.64-44.96-4.493 4.756-6.995-5.795 3.63 12.152-3.63 19.314-41.527 20.483 13.602 4.677H5.676L.77 141.186l2.19-24.66 21.512-28.828v-17.79l48.919-47.293 70.913-20.169zm-60.01 6.475 58.238-2.355 37.61 29.512-38.61-14.148-21.264 20.39v-8.255zM285 45h9.277l3.528 3.243v6.167l-7.388-3.69-3.885 1.802v4.546l-3.749-2.658v-6.757zm21.631 27.34 2.444 3.66-9.537-3.66zM316 61.58l5.61 3.838v4.963l-2.742 1.141-1.492-4.25-4.235.946v-2.8z"/></g></svg>
