<svg id="Layer_1" data-name="Layer 1" xmlns="http://www.w3.org/2000/svg" viewBox="0 0 1658 547"><defs><style>.cls-1{fill:#29bbbe;}.cls-2{fill:#3880d9;}</style></defs><title>fourthereom_logo_colour</title><path class="cls-1" d="M494.29,227.64,490.5,239.4a67.26,67.26,0,0,0-18.43-3q-7.79,0-10.7,4.4t-2.92,17.74V284h32.42v12.51H458.45v60.28H444V296.54H419.74V284H444V257.09q0-18.43,6.29-25.84t21.77-7.41A75.66,75.66,0,0,1,494.29,227.64Z"/><path class="cls-1" d="M554.59,258q19.92,0,31.67,13.89T598,308.48q0,22.88-11.77,36.86t-31.67,14q-20,0-31.71-13.93t-11.72-36.91q0-22.78,11.76-36.62T554.59,258Zm0,88.72q13.15,0,20.75-11.11t7.59-26.95q0-16.68-7.5-27.41t-20.84-10.75q-13.43,0-20.83,10.61t-7.41,27.55q0,16.11,7.5,27.08A23.77,23.77,0,0,0,554.59,346.73Z"/><path class="cls-1" d="M698.05,356.82H683.6V342.56Q668,359.14,650.82,359.14q-27.14,0-27.13-32.88V260.33h14.44V322.1q0,12.31,3.89,18.38t13.15,6.06q13.25,0,28.43-16.48V260.33h14.45Z"/><path class="cls-1" d="M798.36,262.92l-5.84,13.89Q783,272.64,776,272.64a24,24,0,0,0-12.5,3.66,39.91,39.91,0,0,0-11.25,10.47q-5.14,6.8-5.14,7.64v62.41H732.79V260.33h14.36v19.54q11.57-21.86,30-21.86A48.77,48.77,0,0,1,798.36,262.92Z"/><path class="cls-2" d="M917.1,244.94H876.9V356.82H855.1V244.94H814.71V226.17H917.1Z"/><path class="cls-2" d="M1021.23,356.82H999.61V295.76c0-16.12-3.41-21.23-13.46-21.23-8,0-16.69,4.73-26.17,14v68.26H938.55V226.17H960v42.67c9.86-8,20.1-11.95,30.53-11.95,22.94,0,30.72,10.81,30.72,34.51Z"/><path class="cls-2" d="M1132,312.26h-65.61v.57c0,7.4,2.65,14,7.77,20.1a25.69,25.69,0,0,0,19.72,8.91c9.29,0,19.53-2.08,30.72-6.44l3.6,17.63a95,95,0,0,1-34.32,6.26c-14.79,0-26.74-4.74-36-14.41S1044,323.07,1044,308.66c0-15,4.36-27.31,12.89-37,8.54-9.86,19.91-14.79,33.76-14.79,10.24,0,19.72,4.55,28.25,13.46,8.73,8.91,13.09,20.86,13.09,36.22Zm-23.14-16.12c-2.08-13.46-9.1-21.8-18.39-21.8-10.62,0-18,7.2-22.38,21.8Z"/><path class="cls-2" d="M1232.89,271.3c8.91,9.67,13.27,21.81,13.27,36.79,0,14.22-4.55,26.17-13.46,36.22s-20.1,15-33.57,15-24.84-4.93-33.75-14.79c-8.91-10.05-13.46-22.19-13.46-36.41,0-15,4.36-27.12,13.27-36.79s20.1-14.41,33.94-14.41S1224.16,261.63,1232.89,271.3Zm-9.48,36.79c0-20.48-7.59-33.75-24.28-33.75-15.93,0-24.46,12.32-24.46,33.75,0,21.05,8.53,33.56,24.46,33.56S1223.41,329.33,1223.41,308.09Z"/><path class="cls-2" d="M1336.06,281q-10.53-4.55-18.77-4.55c-6.83,0-14,3.88-19.91,13.65a46.38,46.38,0,0,0-4.94,11.9v54.85h-21.61V259.16h21.61v18.4c8.16-13.84,17.45-20.67,27.69-20.67,7.21,0,15.55,1.52,24.84,4.74Z"/><path class="cls-2" d="M1442.45,312.26h-65.61v.57c0,7.4,2.66,14,7.78,20.1a25.68,25.68,0,0,0,19.72,8.91c9.29,0,19.53-2.08,30.72-6.44l3.6,17.63a95,95,0,0,1-34.32,6.26c-14.79,0-26.74-4.74-36-14.41s-13.84-21.81-13.84-36.22c0-15,4.36-27.31,12.89-37,8.53-9.86,19.91-14.79,33.75-14.79,10.24,0,19.73,4.55,28.26,13.46,8.72,8.91,13.08,20.86,13.08,36.22Zm-23.13-16.12c-2.09-13.46-9.1-21.8-18.4-21.8-10.61,0-18,7.2-22.37,21.8Z"/><path class="cls-2" d="M1583.21,274.66c-2.15-11.19-9.63-20.15-23.93-18.89s-23.93,14.15-23.93,14.15-2.37-10.51-15.64-13.69c-11.77-2.83-22.34,5.11-25.19,7.51a21.06,21.06,0,0,0-3.92,4.32V258h-21.72V359.12h21.8V287.7s-.3-4,6.59-10.08c18.15-15.93,18.6,13.71,18.6,13.71v67.79h21.78V286.51a26.38,26.38,0,0,1,9.63-11.41c14.75-9.62,15.48,15.71,15.48,15.71v68.31h21.71V287.18A56.11,56.11,0,0,0,1583.21,274.66Z"/><polygon class="cls-2" points="303.34 59.31 428.11 483.5 287.53 255.59 303.34 59.31"/><polygon class="cls-1" points="293.83 59.31 68.53 187.69 229.28 187.69 293.83 59.31"/><polygon class="cls-1" points="312.39 59.31 564.15 187.69 349.94 187.69 312.39 59.31"/><polygon class="cls-1" points="303.37 59.31 189 286.85 287.53 255.6 303.37 59.31"/></svg>