<?xml version="1.0" encoding="UTF-8"?>
<svg id="Layer_1" xmlns="http://www.w3.org/2000/svg" version="1.1" viewBox="0 0 773.3 96.4">
  <!-- Generator: Adobe Illustrator 29.6.0, SVG Export Plug-In . SVG Version: 2.1.1 Build 107)  -->
  <defs>
    <style>
      .st0 {
        fill: #001453;
      }

      .st1 {
        fill: #ff7600;
      }
    </style>
  </defs>
  <g>
    <path class="st0" d="M98.7,38.4v52h-9.2v-52h-9.8v-8.1h9.8v-4.5c0-12.2,6.9-19.2,17.2-19.2s6.6.6,9,2.1l-2.3,6.9c-1.5-.9-3.2-1.3-5.3-1.3-6,0-9.3,4.2-9.3,11.6v4.5h12v8.1h-12Z"/>
    <path class="st0" d="M118.1,60.5c0-17.2,11.3-31,29.3-31s29.3,13.9,29.3,31-11.3,31.1-29.3,31.1-29.3-14-29.3-31.1ZM167.1,60.5c0-12-7-22.8-19.6-22.8s-19.8,10.8-19.8,22.8,7.1,22.9,19.8,22.9,19.6-10.8,19.6-22.9Z"/>
    <path class="st0" d="M230.3,90.1v-8.3c-4.5,5.1-12.3,9.8-21.1,9.8s-18.9-6-18.9-18.9V30.9h9.2v39c0,10.4,5.3,13.5,13.3,13.5s14.1-4.2,17.6-9V30.9h9.2v59.2h-9.2Z"/>
    <path class="st0" d="M255.6,90.1V30.9h9.2v9.6c4.8-6.3,11.7-10.8,19.8-10.8v9.4c-1.1-.2-2.2-.4-3.7-.4-5.6,0-13.4,4.7-16.1,9.4v41.9h-9.2Z"/>
    <path class="st1" d="M315.2,90.2l.3-72.4h-25.4V7h63v10.8h-25.3l-.3,72.4h-12.3Z"/>
    <path class="st1" d="M405.8,90.1v-38.1c0-9.8-5-12.8-12.6-12.8s-13.1,4.2-16.3,8.6v42.3h-11.1V7.4h11.1v31.8c3.9-4.8,11.9-9.8,21-9.8s19,6.4,19,18.9v41.8h-11.1Z"/>
    <path class="st1" d="M460.5,29.4c17.8,0,28.9,13.9,28.9,32v2.7h-46.9c.9,10.1,8.2,18.4,20.1,18.4s13.1-2.5,17.6-7l5.2,7.2c-5.9,5.8-14.2,8.8-23.8,8.8-17.7,0-30.7-12.5-30.7-31.1s12.4-31,29.7-31ZM442.3,56.2h36.2c-.2-7.8-5.5-17.7-18.1-17.7s-17.6,9.6-18.2,17.7Z"/>
    <path class="st1" d="M499.6,60.5c0-17,11.5-31,30-31s30,14,30,31-11.4,31.1-30,31.1-30-14-30-31.1ZM548,60.5c0-11.2-6.5-21.2-18.4-21.2s-18.4,10.1-18.4,21.2,6.6,21.3,18.4,21.3,18.4-10.1,18.4-21.3Z"/>
    <path class="st1" d="M573.5,90.1V30.9h11.1v9.1c4.5-5.9,11.5-10.4,19.4-10.4v11.2c-1.1-.2-2.3-.4-3.8-.4-5.5,0-13,4.2-15.6,8.6v41.2h-11.1Z"/>
    <path class="st1" d="M641,29.4c17.8,0,28.9,13.9,28.9,32v2.7h-46.9c.9,10.1,8.2,18.4,20.1,18.4s13.1-2.5,17.6-7l5.2,7.2c-5.9,5.8-14.2,8.8-23.8,8.8-17.7,0-30.7-12.5-30.7-31.1s12.4-31,29.7-31ZM622.9,56.2h36.2c-.2-7.8-5.5-17.7-18.1-17.7s-17.6,9.6-18.2,17.7Z"/>
    <path class="st1" d="M755.9,90.1v-39.5c0-6.9-3.1-11.4-10.3-11.4s-11.9,4.2-14.7,8.5v42.4h-11.1v-39.5c0-6.9-2.9-11.4-10.4-11.4s-11.5,4.3-14.5,8.6v42.3h-11.1V30.9h11.1v8.3c2.5-3.7,10.3-9.8,19.2-9.8s14.2,4.7,16.1,11c3.4-5.5,11.3-11,20-11s16.8,6,16.8,17.9v42.8h-11.1Z"/>
  </g>
  <g>
    <ellipse class="st1" cx="39.9" cy="20.3" rx="9.3" ry="9.3"/>
    <ellipse class="st1" cx="39.9" cy="77.1" rx="9.3" ry="9.3"/>
    <ellipse class="st1" cx="39.9" cy="48.7" rx="9.3" ry="9.3"/>
    <ellipse class="st1" cx="11.5" cy="48.7" rx="9.3" ry="9.3"/>
  </g>
</svg>