<svg xmlns="http://www.w3.org/2000/svg">
  <!--! Font Awesome Free 7.0.0 by @fontawesome - https://fontawesome.com License - https://fontawesome.com/license (Commercial License) Copyright 2026 Fonticons, Inc. -->
  <symbol id="menu" viewBox="0 0 640 640"><path d="M96 160C96 142.3 110.3 128 128 128L512 128C529.7 128 544 142.3 544 160C544 177.7 529.7 192 512 192L128 192C110.3 192 96 177.7 96 160zM96 320C96 302.3 110.3 288 128 288L512 288C529.7 288 544 302.3 544 320C544 337.7 529.7 352 512 352L128 352C110.3 352 96 337.7 96 320zM544 480C544 497.7 529.7 512 512 512L128 512C110.3 512 96 497.7 96 480C96 462.3 110.3 448 128 448L512 448C529.7 448 544 462.3 544 480z"/></symbol>
  <symbol id="locale" viewBox="0 0 640 640"><path d="M192 64C209.7 64 224 78.3 224 96L224 128L352 128C369.7 128 384 142.3 384 160C384 177.7 369.7 192 352 192L342.4 192L334 215.1C317.6 260.3 292.9 301.6 261.8 337.1C276 345.9 290.8 353.7 306.2 360.6L356.6 383L418.8 243C423.9 231.4 435.4 224 448 224C460.6 224 472.1 231.4 477.2 243L605.2 531C612.4 547.2 605.1 566.1 589 573.2C572.9 580.3 553.9 573.1 546.8 557L526.8 512L369.3 512L349.3 557C342.1 573.2 323.2 580.4 307.1 573.2C291 566 283.7 547.1 290.9 531L330.7 441.5L280.3 419.1C257.3 408.9 235.3 396.7 214.5 382.7C193.2 399.9 169.9 414.9 145 427.4L110.3 444.6C94.5 452.5 75.3 446.1 67.4 430.3C59.5 414.5 65.9 395.3 81.7 387.4L116.2 370.1C132.5 361.9 148 352.4 162.6 341.8C148.8 329.1 135.8 315.4 123.7 300.9L113.6 288.7C102.3 275.1 104.1 254.9 117.7 243.6C131.3 232.3 151.5 234.1 162.8 247.7L173 259.9C184.5 273.8 197.1 286.7 210.4 298.6C237.9 268.2 259.6 232.5 273.9 193.2L274.4 192L64.1 192C46.3 192 32 177.7 32 160C32 142.3 46.3 128 64 128L160 128L160 96C160 78.3 174.3 64 192 64zM448 334.8L397.7 448L498.3 448L448 334.8z"/></symbol>
  <symbol id="search" viewBox="0 0 640 640"><path d="M480 272C480 317.9 465.1 360.3 440 394.7L566.6 521.4C579.1 533.9 579.1 554.2 566.6 566.7C554.1 579.2 533.8 579.2 521.3 566.7L394.7 440C360.3 465.1 317.9 480 272 480C157.1 480 64 386.9 64 272C64 157.1 157.1 64 272 64C386.9 64 480 157.1 480 272zM272 416C351.5 416 416 351.5 416 272C416 192.5 351.5 128 272 128C192.5 128 128 192.5 128 272C128 351.5 192.5 416 272 416z"/></symbol>
  <symbol id="arrow-inline-end" viewBox="0 0 640 640"><path d="M566.6 342.6C579.1 330.1 579.1 309.8 566.6 297.3L406.6 137.3C394.1 124.8 373.8 124.8 361.3 137.3C348.8 149.8 348.8 170.1 361.3 182.6L466.7 288L96 288C78.3 288 64 302.3 64 320C64 337.7 78.3 352 96 352L466.7 352L361.3 457.4C348.8 469.9 348.8 490.2 361.3 502.7C373.8 515.2 394.1 515.2 406.6 502.7L566.6 342.7z"/></symbol>
  <symbol id="star" viewBox="0 0 640 640"><path d="M320.1 32C329.1 32 337.4 37.1 341.5 45.1L415 189.3L574.9 214.7C583.8 216.1 591.2 222.4 594 231C596.8 239.6 594.5 249 588.2 255.4L473.7 369.9L499 529.8C500.4 538.7 496.7 547.7 489.4 553C482.1 558.3 472.4 559.1 464.4 555L320.1 481.6L175.8 555C167.8 559.1 158.1 558.3 150.8 553C143.5 547.7 139.8 538.8 141.2 529.8L166.4 369.9L52 255.4C45.6 249 43.4 239.6 46.2 231C49 222.4 56.3 216.1 65.3 214.7L225.2 189.3L298.8 45.1C302.9 37.1 311.2 32 320.2 32zM320.1 108.8L262.3 222C258.8 228.8 252.3 233.6 244.7 234.8L119.2 254.8L209 344.7C214.4 350.1 216.9 357.8 215.7 365.4L195.9 490.9L309.2 433.3C316 429.8 324.1 429.8 331 433.3L444.3 490.9L424.5 365.4C423.3 357.8 425.8 350.1 431.2 344.7L521 254.8L395.5 234.8C387.9 233.6 381.4 228.8 377.9 222L320.1 108.8z"/></symbol>
  <symbol id="download" viewBox="0 0 640 640"><path d="M352 96C352 78.3 337.7 64 320 64C302.3 64 288 78.3 288 96L288 306.7L246.6 265.3C234.1 252.8 213.8 252.8 201.3 265.3C188.8 277.8 188.8 298.1 201.3 310.6L297.3 406.6C309.8 419.1 330.1 419.1 342.6 406.6L438.6 310.6C451.1 298.1 451.1 277.8 438.6 265.3C426.1 252.8 405.8 252.8 393.3 265.3L352 306.7L352 96zM160 384C124.7 384 96 412.7 96 448L96 480C96 515.3 124.7 544 160 544L480 544C515.3 544 544 515.3 544 480L544 448C544 412.7 515.3 384 480 384L433.1 384L376.5 440.6C345.3 471.8 294.6 471.8 263.4 440.6L206.9 384L160 384zM464 440C477.3 440 488 450.7 488 464C488 477.3 477.3 488 464 488C450.7 488 440 477.3 440 464C440 450.7 450.7 440 464 440z"/></symbol>
  <symbol id="users" viewBox="0 0 640 640"><path d="M96 192C96 130.1 146.1 80 208 80C269.9 80 320 130.1 320 192C320 253.9 269.9 304 208 304C146.1 304 96 253.9 96 192zM32 528C32 430.8 110.8 352 208 352C305.2 352 384 430.8 384 528L384 534C384 557.2 365.2 576 342 576L74 576C50.8 576 32 557.2 32 534L32 528zM464 128C517 128 560 171 560 224C560 277 517 320 464 320C411 320 368 277 368 224C368 171 411 128 464 128zM464 368C543.5 368 608 432.5 608 512L608 534.4C608 557.4 589.4 576 566.4 576L421.6 576C428.2 563.5 432 549.2 432 534L432 528C432 476.5 414.6 429.1 385.5 391.3C408.1 376.6 435.1 368 464 368z"/></symbol>
  <symbol id="heart" viewBox="0 0 640 640"><path d="M442.9 144C415.6 144 389.9 157.1 373.9 179.2L339.5 226.8C335 233 327.8 236.7 320.1 236.7C312.4 236.7 305.2 233 300.7 226.8L266.3 179.2C250.3 157.1 224.6 144 197.3 144C150.3 144 112.2 182.1 112.2 229.1C112.2 279 144.2 327.5 180.3 371.4C221.4 421.4 271.7 465.4 306.2 491.7C309.4 494.1 314.1 495.9 320.2 495.9C326.3 495.9 331 494.1 334.2 491.7C368.7 465.4 419 421.3 460.1 371.4C496.3 327.5 528.2 279 528.2 229.1C528.2 182.1 490.1 144 443.1 144zM335 151.1C360 116.5 400.2 96 442.9 96C516.4 96 576 155.6 576 229.1C576 297.7 533.1 358 496.9 401.9C452.8 455.5 399.6 502 363.1 529.8C350.8 539.2 335.6 543.9 320 543.9C304.4 543.9 289.2 539.2 276.9 529.8C240.4 502 187.2 455.5 143.1 402C106.9 358.1 64 297.7 64 229.1C64 155.6 123.6 96 197.1 96C239.8 96 280 116.5 305 151.1L320 171.8L335 151.1z"/></symbol>
</svg>
