<svg xmlns="http://www.w3.org/2000/svg" width="576" height="416"><g fill="currentColor" fill-rule="evenodd" transform="matrix(1 0 0 -1 -366 545.667)"><mask id="mask" fill="#FFF"><path id="path-1" d="M0 746.667h1280V0H0z"/></mask><g id="draw" mask="url(#mask)"><path fill-rule="nonzero" d="M568.973 334.663c.696.462 1.506 1.392 2.436 2.784.925.924 1.506 1.62 1.74 2.088.696.696 1.218 1.446 1.566 2.262.348.81.751 1.447 1.219 1.914.696 1.158 1.157 2.144 1.392 2.958.228.81.461 1.332.696 1.567v.347-.347c0-.235-.12-.817-.35-1.741-.233-.93-.58-1.974-1.042-3.132l-1.045-2.088a61.316 61.316 0 0 0 5.046 4.525c1.74 1.39 3.536 3.012 5.395 4.872 1.62 1.392 3.247 2.784 4.872 4.176a99.248 99.248 0 0 0 5.221 4.176 60.973 60.973 0 0 0 5.568 4.35c1.855 1.273 3.71 2.61 5.568 4.003a464.807 464.807 0 0 1 5.222 3.307c1.62 1.044 3.36 2.141 5.22 3.305 4.405 2.316 8.701 2.551 12.877.696l1.044-.348.696-.348h.348v-.348h.348l.348-.348c.924-.93 1.74-1.512 2.436-1.74l1.044-1.044.696-.696.35-.348 1.042-1.045.696-.695 2.09-2.089c.46-.467.75-.815.869-1.044.114-.233.402-.581.87-1.044l.696-.695c.23-.234.35-.468.35-.697h.694c0-.467.115-.87.348-1.217.23-.35.462-.756.696-1.219.463-.93.811-1.74 1.044-2.436a6.682 6.682 0 0 0 .348-2.088c.228-1.164.348-2.67.348-4.524-.233-.468-.408-1.044-.522-1.741-.119-.695-.292-1.278-.52-1.74 0-.467-.06-.816-.175-1.044a1.506 1.506 0 0 1-.175-.695c-.233-.47-.408-.697-.522-.697-.119 0-.172-.234-.172-.696-.47-.468-.698-.815-.698-1.043 0-.235-.06-.47-.174-.697a1.526 1.526 0 0 1-.174-.696c-.696-.696-1.164-1.278-1.392-1.74l-.696-.696-.348-.348c-.234 0-.348-.06-.348-.175 0-.119-.118-.173-.348-.173.23 0 .348.054.348.173 0 .115.114.175.348.175 0 .228.114.462.348.696l.348.696c.23.23.576.81 1.044 1.74 0 .462.055.75.175.87.115.115.175.288.175.522l.694 1.392c0 .697.115 1.566.348 2.61.23 1.044.35 2.143.35 3.307 0 1.853-.12 3.245-.35 4.176-.468 1.392-.929 2.55-1.392 3.48-.233.463-.696 1.044-1.392 1.741 0 .228-.12.347-.348.347-.234.228-.348.463-.348.696-.233.23-.408.35-.521.35-.12 0-.295.113-.523.346-.468.228-.756.463-.87.697-.119.228-.408.575-.87 1.043l-1.741 1.741c-.467.462-.815.695-1.044.695l-1.044 1.044-.348.35-.696.347c-.233.228-.408.348-.521.348-.12 0-.295.115-.523.347-.696.697-1.392 1.159-2.088 1.393l-.348.348h-.348v.348h-.348l-.696.348h-.348c-1.86.696-3.48.924-4.873.696-.234 0-1.043-.234-2.436-.696-.234 0-.467-.118-.696-.348h-.347v-.348h-.35l-.347-.348a38.863 38.863 0 0 1-5.22-3.132c-1.627-1.164-3.252-2.322-4.872-3.48a122.267 122.267 0 0 1-5.743-3.829 123.311 123.311 0 0 0-5.743-3.828c-1.86-1.392-3.6-2.73-5.221-4.003a296.821 296.821 0 0 0-5.22-4.002 3512.031 3512.031 0 0 1-17.401-14.27l-1.74 1.394Zm13.573-149.306c-3.252-.462-6.265-.348-9.048.348-1.86.234-3.601.583-5.221 1.044-1.627.468-3.366 1.278-5.22 2.438a40.62 40.62 0 0 1-2.263 2.086c-.816.696-1.452 1.392-1.915 2.088-1.392 1.627-2.436 3.367-3.132 5.22-1.164 2.09-1.913 4.178-2.261 6.266a120.67 120.67 0 0 1-1.219 6.265c-.234 4.404-.234 8.7 0 12.876.228 1.159.403 2.203.522 3.133.114.924.174 1.968.174 3.131.23.463.348.985.348 1.567 0 .577.115 1.098.348 1.566 0 .463.055.984.175 1.567.113.575.173 1.097.173 1.567l1.044 6.264a36.85 36.85 0 0 0 .696 2.958c.228.81.463 1.794.696 2.958 0 .228.055.462.175.696.113.23.173.462.173.696 0 .462.055.75.175.87.115.115.173.287.173.522 0 .462.055.925.175 1.392.113.462.173.925.173 1.392.463 1.392.811 2.316 1.044 2.784.23.462.348.924.348 1.393 0 .463.115.924.348 1.392.23.463.578 1.392 1.046 2.784.461.461.696 1.159.696 2.088.924 2.316 1.62 3.943 2.088 4.872v1.045c.228.228.348.402.348.522 0 .113.113.288.348.521.228.463.348.87.348 1.219 0 .348.113.75.348 1.217.228.23.576.81 1.044 1.741l1.044 2.088a88.67 88.67 0 0 0 1.392 3.307 64.882 64.882 0 0 0 1.392 2.957c.925 1.855 1.68 3.307 2.262 4.351a75.337 75.337 0 0 1 1.218 2.261c-.234-.466-.522-1.277-.87-2.436-.348-1.162-.87-2.669-1.566-4.522a20.81 20.81 0 0 1-1.044-3.308 21.751 21.751 0 0 0-1.044-3.306c-.468-.93-.696-1.626-.696-2.089-.468-.93-.696-1.512-.696-1.739-.468-1.392-.696-2.209-.696-2.437-.235-.233-.348-.407-.348-.521 0-.12-.12-.295-.348-.523 0-.696-.12-1.164-.348-1.392-.468-1.859-.931-3.365-1.392-4.524-.235-.468-.348-.87-.348-1.217 0-.35-.12-.758-.348-1.219 0-1.164-.12-2.09-.348-2.784 0-.697-.235-1.512-.696-2.436 0-.93-.235-1.86-.698-2.784 0-.47-.058-.932-.173-1.393a5.568 5.568 0 0 1-.173-1.392c-.235-.234-.35-.696-.35-1.392-.233-.468-.346-1.044-.346-1.74-.235-.93-.41-1.8-.523-2.61a62.727 62.727 0 0 0-.523-2.96 43.107 43.107 0 0 1-.521-3.13c-.12-.93-.175-1.975-.175-3.134a3.084 3.084 0 0 1-.348-1.392c0-.466-.118-.929-.348-1.392 0-1.392-.118-2.436-.348-3.132 0-1.164-.06-2.209-.173-3.133-.12-.93-.175-1.973-.175-3.132 0-2.088-.058-4.121-.173-6.09-.12-1.974-.06-4.002.173-6.09 0-3.948.696-7.657 2.088-11.137.696-1.855 1.622-3.36 2.786-4.524.461-.698.924-1.332 1.392-1.915.461-.577 1.044-1.099 1.74-1.567.696-.694 1.392-1.217 2.088-1.566a18.59 18.59 0 0 0 2.088-1.218c1.621-.924 3.132-1.506 4.524-1.74 1.621-.462 3.132-.696 4.525-.696 1.392 0 2.664-.114 3.828-.348h5.22l.348.348c.696 0 1.159.12 1.392.348 1.159.467 1.855.93 2.09 1.392.695.696 1.042 1.28 1.042 1.742v2.086c.23-.228.35-.924.35-2.086-.235-.463-.35-.812-.35-1.046 0-.229-.119-.576-.347-1.044-.468-.462-.87-.869-1.218-1.218a4.7 4.7 0 0 0-1.219-.87c-.233 0-.467-.054-.696-.173-.233-.115-.581-.175-1.044-.175h-.348l-.348-.348h-.696c-.93 0-1.512-.114-1.74-.348h-2.088ZM504.239 290.81a19.34 19.34 0 0 1-.696-1.565c-.234-.581-.581-1.452-1.044-2.61a6.716 6.716 0 0 1-.522-1.391c-.119-.47-.408-1.046-.87-1.742a46.944 46.944 0 0 1-.696-2.26 63.67 63.67 0 0 0-.696-2.264c-1.164-3.252-2.437-7.134-3.828-11.66-1.393-4.522-2.67-9.456-3.829-14.79-.233-.467-.348-1.044-.348-1.74-.233-.234-.348-.696-.348-1.392 0-.468-.12-.816-.348-1.044 0-.93-.235-2.323-.696-4.176 0-.468-.06-.87-.175-1.219-.118-.348-.173-.756-.173-1.217 0-.468-.06-.818-.173-1.046-.12-.233-.175-.58-.175-1.044 0-1.164-.233-2.669-.696-4.524a134.466 134.466 0 0 1-1.044-9.745 67.54 67.54 0 0 1 0-9.745c0-3.25.348-6.61 1.044-10.092a55.087 55.087 0 0 1 1.567-4.698c.576-1.506 1.332-2.838 2.261-4.002.463-.698.984-1.392 1.567-2.09a24.747 24.747 0 0 1 1.566-1.738c.227 0 .347-.055.347-.175 0-.115.115-.175.35-.175l.346-.348h.697l.347-.348c.23 0 .35-.054.35-.173 0-.115.113-.173.346-.173v-.35c.23 0 .463-.054.696-.173.23-.115.463-.175.697-.175 1.62-.924 3.187-1.506 4.698-1.738 1.506-.23 3.186-.463 5.046-.698h4.874c1.62.468 2.784 1.044 3.48 1.74.461.235.924.816 1.392 1.74l.696.696c0 .235.113.47.348.696V194.407l.348.346v1.392c.228.468.348.871.348 1.22 0 .347.114.755.348 1.216a61.338 61.338 0 0 0 2.262 10.616 248.345 248.345 0 0 0 3.306 9.92 798.711 798.711 0 0 0 3.481 9.571 707.502 707.502 0 0 0 3.48 9.223c.463.694.81 1.332 1.044 1.913.228.576.576 1.332 1.044 2.261.924 1.855 1.62 3.134 2.088 3.828.228.463.348.812.348 1.046 0 .23.115.576.348 1.044.463.924.696 1.621.696 2.088.463.696 1.159 1.97 2.088 3.828 2.55 4.873 5.101 9.277 7.657 13.225a403.957 403.957 0 0 0 6.96 10.44 58.661 58.661 0 0 0 2.611 3.656 33.175 33.175 0 0 1 2.261 3.305c.698.924 1.219 1.567 1.567 1.915l.87.87c-.234-.234-.467-.582-.695-1.043-.235-.47-.696-1.164-1.392-2.09a13.72 13.72 0 0 0-1.915-3.305c-.816-1.044-1.685-2.383-2.61-4.003-1.86-3.018-3.829-6.558-5.917-10.614-2.088-4.063-4.296-8.647-6.612-13.748-.468-.696-.816-1.279-1.045-1.74-.233-.468-.581-1.044-1.044-1.74l-1.044-2.088c0-.93-.233-1.627-.696-2.09-.468-.694-.755-1.392-.87-2.086-.12-.698-.407-1.392-.87-2.09-.233-.929-.816-2.32-1.74-4.174a120 120 0 0 1-3.132-9.224 187.609 187.609 0 0 0-3.132-9.57 96.651 96.651 0 0 1-2.959-9.92 372.158 372.158 0 0 1-2.262-9.918c0-.463-.06-.924-.174-1.392a5.505 5.505 0 0 1-.174-1.394c0-.228-.059-.402-.174-.522-.12-.112-.174-.287-.174-.52v-1.044l-.348-.698c0-.228-.06-.46-.174-.694a1.485 1.485 0 0 1-.174-.698c-.234-.46-.408-.749-.522-.869-.12-.115-.293-.403-.522-.87a9.244 9.244 0 0 1-1.74-2.437c-1.86-1.392-3.948-2.317-6.264-2.784h-.696l-1.044-.348h-1.392c-1.394 0-2.323.12-2.786.348-3.48 0-7.194.816-11.136 2.436-.468 0-.93.234-1.393.696l-.696.348c-.233 0-.467.12-.696.348l-.696.348-.696.696-.696.35-.696.694a8.989 8.989 0 0 1-1.74 1.915c-.696.581-1.392 1.339-2.088 2.263-1.392 2.086-2.208 3.828-2.436 5.22a8.497 8.497 0 0 0-.87 2.784c-.12.93-.409 1.74-.87 2.436a60.263 60.263 0 0 0-1.044 11.136c0 3.481.228 6.841.696 10.094.461 3.246.924 6.492 1.392 9.744.228 1.16.576 2.664 1.044 4.524v2.436c0 .463.053.871.173 1.22.115.347.175.75.175 1.216.228.463.401 1.1.521 1.915.115.81.29 1.567.523 2.263 0 .462.113.81.348 1.044 0 .462.115.81.348 1.044 0 .462.055.81.173 1.044.115.23.175.576.175 1.044 1.62 5.334 3.247 10.206 4.872 14.617 1.621 4.405 3.132 8.233 4.524 11.485a59.55 59.55 0 0 1 1.741 4.526c.462.694.811 1.272 1.044 1.738.228.463.462.926.696 1.392 1.158 2.318 1.854 3.596 2.088 3.828Zm-78.306-30.278c0-1.163-.468-3.018-1.392-5.567-.468-1.627-.99-3.427-1.567-5.395a74.152 74.152 0 0 1-1.565-6.438 107.741 107.741 0 0 0-1.742-7.83 85.363 85.363 0 0 1-1.74-8.529l-1.044-9.396v-4.524c0-1.164.115-1.975.348-2.437 0-.93.115-1.626.35-2.088 0-1.859.346-3.247 1.042-4.176.23-.924.811-2.316 1.74-4.178.696-.694 1.159-1.272 1.394-1.738.228 0 .461-.115.696-.348 0-.23.053-.35.173-.35.115 0 .175-.113.175-.346a26.39 26.39 0 0 0 1.913-1.392 28.055 28.055 0 0 1 1.915-1.392 21.268 21.268 0 0 1 3.654-1.742c1.272-.462 2.61-.924 4.002-1.392.696-.228 1.969-.576 3.828-1.044l.349-.348h1.044c0-.228.113-.348.348-.348h.348l.348-.346h2.436c.228 0 .461.117.696.346.463 0 .696.12.696.348.696.235 1.272.816 1.74 1.742.228.233.348.466.348.694h.348v1.044l.348.698c0 .466.055.87.175 1.217.113.348.173.756.173 1.219l.696 2.086c0 .468.055.758.175.871.114.12.174.408.174.87.227.93.462 1.513.695 1.74 0-.227-.059-.462-.173-.695-.12-.23-.175-.576-.175-1.044v-2.786c0-.228-.06-.402-.173-.52-.12-.114-.174-.289-.174-.522v-4.178c0-.228-.06-.348-.174-.348-.12 0-.175-.113-.175-.346 0-.23-.12-.463-.347-.698-.234-.924-.93-1.968-2.089-3.132-.233-.228-.408-.348-.521-.348-.12 0-.295-.114-.523-.348-.233 0-.408-.054-.521-.174-.12-.115-.295-.174-.523-.174-.468 0-.87-.054-1.217-.173a3.91 3.91 0 0 0-1.219-.175H439.506c-.233.234-.583.348-1.044.348h-.35c-.233.234-.466.348-.695.348-1.163 0-2.436.234-3.828.696-3.018.696-6.035 1.86-9.048 3.48-1.86.93-3.252 1.742-4.178 2.436-.466.468-.814.698-1.044.698l-1.042 1.044c-.931.93-1.512 1.74-1.742 2.436-.466.468-.869 1.102-1.217 1.914a48.385 48.385 0 0 1-1.219 2.61c-.466 1.164-.929 2.904-1.392 5.221 0 1.157-.12 1.968-.348 2.436v2.784c0 2.088.114 3.708.348 4.872 0 1.855.115 3.535.348 5.047a37.257 37.257 0 0 0 1.044 4.697 127.24 127.24 0 0 0 2.263 8.528c.81 2.664 1.68 5.275 2.61 7.83a202.375 202.375 0 0 0 2.61 6.265c.81 1.854 1.447 3.594 1.915 5.22 1.62 3.246 2.436 4.988 2.436 5.22Zm49.42 35.152c9.049 10.902 17.689 20.533 25.928 28.886 8.233 8.352 15.836 15.428 22.796 21.231 6.961 5.796 12.992 10.495 18.097 14.095 5.101 3.593 8.93 6.09 11.485 7.482.463.463 1.507.696 3.132.696 1.159 0 2.203-.233 3.132-.696a67.685 67.685 0 0 0 5.57-4.698c1.854-1.74 3.48-3.542 4.872-5.395 2.088-2.321 2.784-4.932 2.088-7.83a19.736 19.736 0 0 0-3.828-7.831c-10.908-14.618-20.42-29.703-28.539-45.244-.233-1.164-.696-2.436-1.392-3.828a125.136 125.136 0 0 1-2.436-5.222c9.048 12.063 18.152 22.798 27.32 32.195 9.164 9.395 17.69 17.4 25.58 24.012 7.885 6.613 14.732 11.888 20.535 15.836 5.796 3.943 9.973 6.612 12.529 8.005.924.463 1.968.696 3.132.696 1.392 0 2.436-.233 3.132-.696 3.71-2.556 7.308-5.916 10.79-10.093 1.853-2.321 2.435-4.932 1.74-7.83a19.739 19.739 0 0 0-3.83-7.831c-6.264-8.822-12.067-17.462-17.401-25.928-5.34-8.474-10.038-17.115-14.095-25.93a216.461 216.461 0 0 1-10.441-27.493c-2.904-9.517-5.166-19.61-6.787-30.279a184.388 184.388 0 0 1-2.436-19.838c-.468-6.727-.233-13.339.696-19.838a92.88 92.88 0 0 0-9.745-.174c-3.252.12-6.15 1.104-8.7 2.958-2.784 1.627-4.759 4.063-5.916 7.31-1.164 3.246-1.86 6.668-2.088 10.266a69.107 69.107 0 0 0 .173 10.963c.348 3.71.75 6.841 1.219 9.397.696 5.568 1.505 10.615 2.436 15.14a155.932 155.932 0 0 0 3.305 13.226 141.81 141.81 0 0 0 4.525 12.876c1.74 4.29 3.768 8.99 6.091 14.094 7.884 18.327 16.933 35.614 27.145 51.858-9.744-8.124-18.445-16.358-26.101-24.71-7.657-8.353-14.444-16.706-20.36-25.058-5.917-8.354-11.083-16.478-15.487-24.363-4.41-7.89-8.125-15.433-11.137-22.623-7.428-16.705-12.415-33.062-14.965-49.07-.931-1.622-1.975-2.438-3.134-2.438h-.346c-2.556 0-5.047.174-7.483.523-2.436.348-4.699 1.217-6.788 2.61-2.555 1.626-4.41 4.062-5.568 7.309-1.163 3.246-1.859 6.668-2.088 10.266a69.109 69.109 0 0 0 .175 10.963c.348 3.71.636 6.841.869 9.397.696 5.568 1.507 10.615 2.437 15.14a122.031 122.031 0 0 0 3.479 13.226c1.393 4.29 2.959 8.58 4.699 12.876 1.741 4.29 3.769 8.99 6.09 14.094A324.29 324.29 0 0 0 521.814 315a287.028 287.028 0 0 0 14.792 25.232c-15.313-12.53-28.484-25.64-39.501-39.327-11.023-13.693-20.187-26.745-27.495-39.155-7.308-12.414-13.05-23.785-17.227-34.106-4.177-10.327-7.194-18.392-9.049-24.188-.468-1.62-.696-3.012-.696-4.176 0-1.159-.12-2.203-.348-3.134-.235-.924-.348-1.738-.348-2.436h-1.392c-3.252.468-5.916 1.104-8.005 1.915-2.088.816-3.714 1.567-4.872 2.263-1.392.93-2.556 1.858-3.48 2.784-2.556 2.556-3.83 6.726-3.83 12.528 0 5.797.986 12.53 2.959 20.186 1.97 7.656 4.699 15.95 8.179 24.884a724.97 724.97 0 0 0 11.31 27.32 535.805 535.805 0 0 0 12.878 27.322c4.525 8.93 8.756 17.226 12.702 24.884a259.415 259.415 0 0 1-24.186-22.274 208.241 208.241 0 0 1-20.708-25.406 176.602 176.602 0 0 1-10.79-18.098 144.028 144.028 0 0 1-8.352-19.49 126.021 126.021 0 0 1-3.133-10.094c-.93-3.478-.815-6.846.348-10.092.463-.929.523-1.566.175-1.914-.348-.348-.756-.522-1.218-.522-3.252-1.164-6.498-1.626-9.746-1.392-3.251.228-6.384 1.392-9.396 3.48-4.644 3.012-6.96 7.308-6.96 12.876 0 5.57.809 10.556 2.436 14.967 6.726 18.325 16.297 34.743 28.712 49.245 12.409 14.498 26.276 27.668 41.589 39.502a87.885 87.885 0 0 0 6.961 5.048 226.954 226.954 0 0 0 6.96 4.35c2.551 1.62 4.987 3.131 7.308 4.524a199.47 199.47 0 0 0 7.31 4.176c1.621.696 3.133 1.332 4.524 1.914a24.306 24.306 0 0 1 4.177 2.262c.228.228.576.348 1.043.348.462 0 .925.114 1.393.348h1.217c.578 0 1.219-.12 1.915-.348 1.392-.696 3.247-1.685 5.568-2.958 2.317-1.279 4.639-3.078 6.961-5.394 2.784-2.784 3.708-6.037 2.784-9.745-.468-1.86-1.278-3.715-2.436-5.57-10.674-19.026-19.838-36.314-27.494-51.855Zm-8.702 74.826c.926.462 1.682.87 2.263 1.22.577.346 1.219.748 1.915 1.216 1.62.463 3.072 1.044 4.35 1.74a257.17 257.17 0 0 1 4.35 2.436l1.044.348.348.348.349.348h.347c.925.463 1.854.696 2.785.696.924.228 1.74.403 2.436.523.696.113 1.62.055 2.784-.175h.696l.348-.348 1.392-.348h.696c0-.233.115-.348.348-.348l1.392-.696c1.855-.929 3.247-1.74 4.176-2.436 2.317-1.164 4.753-2.904 7.31-5.22l.695-.696.696-.348v-.349l.348-.347c.463 0 .811-.12 1.044-.348l.348-.697.348-.347c.463-.468.696-.816.696-1.045 0-.232.115-.581.348-1.044.23-.467.403-.87.523-1.217.113-.35.288-.756.521-1.219.698-1.392 1.044-2.904 1.044-4.523 0-1.86-.118-3.368-.346-4.525-.235-2.556-1.164-5.34-2.786-8.353h-.348v-.696l-.696-.696-1.044-2.088c-.233-.468-.468-.87-.696-1.218-.233-.349-.468-.756-.696-1.218a71.267 71.267 0 0 0 7.135 6.264 114.23 114.23 0 0 1 6.787 5.57c3.246 2.783 6.318 5.22 9.222 7.307 2.899 2.09 5.623 4.056 8.179 5.917 2.55 1.854 4.812 3.42 6.787 4.698a60.5 60.5 0 0 0 5.742 3.306c.463.462.924.696 1.392.696l.696.696c.463 0 .87.055 1.219.175.348.113.636.173.87.173.923.228 1.854.348 2.783.348-.233 0-.581-.06-1.044-.174-.468-.119-1.044-.174-1.74-.174-.233-.233-.468-.348-.696-.348-.233 0-.581-.12-1.044-.348l-1.044-.696c-.233-.233-.408-.348-.522-.348-.119 0-.294-.12-.522-.348a465.65 465.65 0 0 1-5.742-3.653c-1.974-1.279-4.236-2.959-6.787-5.047a303.924 303.924 0 0 0-7.656-5.917c-2.785-2.088-5.688-4.524-8.701-7.308a127.651 127.651 0 0 1-9.746-8.528 762.592 762.592 0 0 1-10.092-9.917l-2.089 1.392a61.83 61.83 0 0 0 3.83 6.612c.462.696.809 1.333 1.043 1.913.228.577.462 1.219.696 1.916.228.46.403.75.522.87.114.113.289.402.522.869l.348.697.348.348v.347c1.622 2.784 2.551 5.22 2.784 7.31.463 3.011.23 5.567-.696 7.655-.233.463-.408.75-.521.87-.12.114-.295.403-.523.871a2.56 2.56 0 0 0-.522.695 3 3 0 0 1-.522.697l-.348.347-.348.697c-.468 0-.696.228-.696.695h-.348v.35l-.348.347-.696.696a136.064 136.064 0 0 0-3.654 2.262 40.178 40.178 0 0 0-3.654 2.61c-1.165.924-2.437 1.506-3.829 1.74-.468.463-1.044.696-1.74.696l-1.044.348h-1.044c-.696.228-1.339.288-1.915.175a9.48 9.48 0 0 0-1.913-.175c-.468-.233-.816-.348-1.044-.348-.235 0-.583-.12-1.045-.348l-.347-.348h-.35l-1.042-.348a74.163 74.163 0 0 1-4.177-2.262 72.056 72.056 0 0 0-4.176-2.262 8.493 8.493 0 0 0-2.088-1.044 8.892 8.892 0 0 1-2.088-1.045c-.931-.467-1.627-.93-2.09-1.392l-2.088-1.044c-.696-.695-1.277-1.163-1.74-1.392-.466-.232-.816-.467-1.044-.695-.233-.234-.581-.349-1.044-.349l-1.044-.695h-.696v-.349l-.348-.348-1.044-.521c-.234-.12-.581-.408-1.044-.87-2.322-1.393-4.992-3.252-8.004-5.57-.469-.232-.816-.467-1.045-.695-.233-.235-.581-.468-1.044-.696-.233-.468-.696-1.045-1.392-1.74-.93-.468-2.323-1.392-4.176-2.784l-1.74-1.393-2.088-1.74a12.724 12.724 0 0 1-1.915-1.566l-1.566-1.566c-1.86-1.392-3.132-2.436-3.828-3.132l-1.74-1.392-2.088-2.088-3.48-3.134-3.48-3.48-2.09-1.392-1.392-2.088-3.48-3.48c-1.392-1.392-2.436-2.556-3.132-3.48-.468-.468-.756-.817-.87-1.045-.12-.233-.408-.467-.87-.696l-1.74-1.74a340.823 340.823 0 0 0-11.833-15.313 6.232 6.232 0 0 0-1.044-1.915 25.61 25.61 0 0 1-1.392-1.913c-.468-.93-.93-1.627-1.392-2.088-.468-.93-.93-1.512-1.393-1.74l-2.088-4.178c-.234-.233-.348-.408-.348-.522 0-.118-.119-.292-.348-.52l-.696-.698-1.044-2.088c-.93-1.625-1.686-3.078-2.263-4.35a121.42 121.42 0 0 0-1.913-4.003c-.234-.467-.468-.815-.696-1.044l-.348-1.043-1.044-2.089-1.044-2.088-.696-1.044-.348-1.044c-.468-1.86-.931-3.252-1.392-4.176l-.35-1.044-.346-.348-.35-.697c0-.467-.233-1.163-.696-2.087l-1.044-4.177c-.466-1.859-.696-3.25-.696-4.176-.466-3.018-.346-5.802.35-8.352.461-2.556 1.39-5.107 2.782-7.658.698-.93 1.447-1.86 2.263-2.784.81-.93 1.795-1.86 2.959-2.784.228-.234.81-.582 1.74-1.045h.696l.696-.696c.228 0 .348-.059.348-.173 0-.12.114-.175.348-.175l1.044-.347c.462-.234.81-.348 1.044-.348.229 0 .462-.12.696-.349 2.088-.93 4.638-1.392 7.657-1.392 2.55 0 4.872.348 6.96 1.044.23 0 .81.228 1.74.697h.696c.23.228.463.348.696.348l1.045 1.044 1.044 1.044c.696.695 1.044 1.62 1.044 2.784 0 .696-.12 1.272-.348 1.74 0 .462-.12.811-.348 1.044v.696l-.348.348c0 .463-.12.81-.348 1.044v2.09c0 1.39.114 2.436.348 3.13.228.926.576 2.09 1.044 3.482.228.461.402.984.522 1.565.114.577.288 1.1.522 1.567.462 1.157.811 2.088 1.044 2.784.228.696.576 1.621 1.044 2.784.228.462.403.924.522 1.392.114.462.289.924.522 1.393.463.924.811 1.739 1.044 2.436.924 1.855 1.74 3.479 2.436 4.872a92.63 92.63 0 0 0 2.436 4.524c0 .23.23.81.696 1.74l1.046 2.088c.461.463.749.81.869 1.044.115.23.288.463.521.697.23.462.578.924 1.046 1.392.461.696.809 1.332 1.044 1.914.228.577.461 1.098.696 1.566.228.696.809 1.507 1.74 2.436.462.924.924 1.68 1.392 2.262.462.577.924 1.1 1.392 1.566.462.698.81 1.16 1.044 1.392.229.23.348.463.348.698l-1.392-2.09c-.468-.466-.87-1.044-1.219-1.74-.347-.696-.756-1.51-1.217-2.436-.235-.234-.816-1.044-1.74-2.436-.468-1.393-.931-2.556-1.392-3.48-.235 0-.583-.468-1.046-1.392-.466-.93-.814-1.512-1.044-1.74l-1.042-2.089-.523-1.043c-.12-.234-.293-.582-.523-1.045-.466-1.392-1.104-2.843-1.913-4.35-.816-1.511-1.567-3.193-2.263-5.047-.468-.93-.816-1.739-1.044-2.436-.233-.467-.581-1.392-1.044-2.784a31.284 31.284 0 0 1-.696-2.436c-.234-.93-.581-1.974-1.044-3.132a6.793 6.793 0 0 1-.522-1.392 7.135 7.135 0 0 0-.522-1.392c-.234-.468-.348-1.044-.348-1.742 0-.694-.12-1.277-.348-1.74 0-.466-.06-.929-.174-1.392a5.612 5.612 0 0 1-.174-1.39c0-.47.055-.758.174-.872.114-.119.174-.407.174-.87l.348-.696v-.696c.463-.929.696-1.512.696-1.74.228-.468.348-1.164.348-2.088 0-1.164-.468-2.436-1.392-3.828-.696-1.392-1.625-2.436-2.785-3.133-.233-.233-.407-.348-.521-.348-.12 0-.294-.119-.522-.347h-.349l-.347-.349c-.468 0-1.164-.233-2.089-.696-1.163-.467-2.436-.696-3.828-.696H388.868c-1.513 0-2.845.23-4.003.696-.468.228-.815.348-1.044.348-.234 0-.582.115-1.044.348-.234.23-.582.35-1.044.35l-.696.694c-.234 0-.408.055-.522.175-.12.114-.293.173-.522.173l-.696.35-.348.346-2.088 1.045c-2.556 1.62-4.644 3.828-6.266 6.612-.696 1.16-1.277 2.491-1.74 4.002-.466 1.506-.929 2.958-1.392 4.35-.696 2.786-.816 5.918-.348 9.398 0 1.158.228 2.664.696 4.525.228 1.157.578 2.664 1.044 4.523.228.462.348.87.348 1.218s.115.751.348 1.218v.697l.698 1.392c.226.696.461 1.392.696 2.088.228.696.576 1.507 1.042 2.436l.348.696.35 1.044c.228.696.576 1.507 1.042 2.436l1.046 2.09.696 1.043v1.044c.696 1.62 1.446 3.072 2.261 4.351.81 1.272 1.567 2.724 2.263 4.35.696.697 1.158 1.271 1.392 1.74l.348 1.043c0 .463.054.752.174.871.114.113.174.288.174.521.462.698.924 1.334 1.392 1.915.462.576.924 1.219 1.392 1.915.229.462.462.81.696 1.042.229.23.462.578.696 1.046.229.461.462.87.696 1.218.229.347.349.635.349.87.461.697.924 1.392 1.392 2.088.461.696.924 1.392 1.39 2.088 3.71 5.101 7.773 10.206 12.182 15.313l1.393 2.09c.462.46.924 1.158 1.392 2.087.696.463 1.332.984 1.914 1.567.577.575 1.218 1.217 1.914 1.913l3.132 3.132 1.74 2.088 2.088 1.74 3.48 3.48 3.482 3.482c.461.228 1.044.696 1.74 1.392l2.088 1.74a12.57 12.57 0 0 1 1.914 1.565 12.72 12.72 0 0 0 1.914 1.567 13.683 13.683 0 0 1 2.088 1.741l1.74 1.739 1.741 1.741 2.087 1.043c.697.462 1.333.985 1.916 1.566a12.72 12.72 0 0 0 1.913 1.567c.463.463.81.75 1.044.87.228.114.576.402 1.044.87.924.461 1.507.81 1.74 1.044a169.15 169.15 0 0 0 4.525 3.132 97.998 97.998 0 0 0 3.828 2.437c.462.462 1.158.924 2.088 1.392l.696.347v.35h.348l1.044.694c.463.463 1.159.925 2.088 1.392.696.697 1.392 1.045 2.088 1.045.696.228 1.392.696 2.088 1.392l2.088 1.044Z"/><path fill-rule="nonzero" d="M677.556 299.86c-.696-1.393-2.321-3.48-4.872-6.265-2.323-3.018-5.107-5.689-8.353-8.005a13.591 13.591 0 0 0-2.436-1.915 33.758 33.758 0 0 0-2.784-1.566c-.468-.232-.756-.347-.87-.347-.12 0-.409-.12-.872-.348l-.694-.35-.698-.346c-.466 0-.814-.06-1.044-.175a1.504 1.504 0 0 0-.694-.173c-.468-.235-.758-.35-.871-.35-.119 0-.408-.12-.87-.347-.234.228-.349.228-.349 0h.348v-.347c.463-.93.698-1.741.698-2.437l.346-.348v-.348c-.233-.234-.346-.468-.346-.695 0-.235-.06-.41-.175-.523-.12-.12-.173-.294-.173-.522-.235 0-.35-.234-.35-.696h-.348v-.348l.698.348c.461.229.749.402.869.521.115.115.403.288.87.523l1.74 1.74c.463.461.811.75 1.043.87.23.114.463.288.698.523l.696.695c0 .229-.468-.582-1.394-2.436-.466-.468-.814-.93-1.042-1.392-.235-.468-.582-1.044-1.044-1.74-.468-.468-.99-1.104-1.567-1.914a126.51 126.51 0 0 0-1.913-2.61c-1.164-.698-2.09-1.044-2.784-1.044h.346c0 .228.115.346.348.346l-.348.35v.348l-.346.348c-.235.228-.41.346-.523.346-.12 0-.41.23-.87.698.695.696 1.158 1.272 1.393 1.738v.698c0 .462.053.749.173.869.115.115.173.29.173.523v1.044l-.346.697v.347c0 .462-.235.925-.698 1.392v.348c-.234 0-.348.114-.348.349l-1.044 1.044c-.234.461-.466.75-.696.87-.233.113-.582.402-1.044.87-.696.924-1.86 2.201-3.48 3.828.926 0 1.795-.06 2.61-.175.81-.118 1.681-.173 2.61-.173h1.74l.696.348h2.09c.228.228.694.347 1.392.347.228.229.461.349.694.349.23 0 .463.113.698.348h.694l.698.348 1.392.696c2.316.924 3.942 1.74 4.872 2.436a74.812 74.812 0 0 1 8.7 6.264 78.849 78.849 0 0 0 3.308 3.133 46.627 46.627 0 0 0 2.957 2.436l2.436 2.436c0-.468-.581-1.625-1.74-3.48Zm-29.235 21.578c1.392 2.55 3.362 4.056 5.918 4.523 1.157.229 2.436.229 3.828 0 1.853-.467 3.708-1.163 5.569-2.087 3.708-1.627 6.959-3.828 9.744-6.613 2.088-2.322 2.899-4.76 2.436-7.31a7.608 7.608 0 0 0-1.393-3.132 87.247 87.247 0 0 0-8.178-9.048c-2.904-2.784-5.862-5.048-8.876-6.786-3.016-1.742-5.861-2.784-8.525-3.134-2.67-.348-5.047.403-7.135 2.263-1.393 1.392-1.914 3.655-1.566 6.787.348 3.132 1.098 6.438 2.262 9.918 1.159 3.48 2.376 6.668 3.655 9.571 1.272 2.899 2.027 4.58 2.261 5.048Zm-16.357-24.364v.35l-.348.347.348.696v2.784c.461 1.392.81 2.724 1.044 4.003.228 1.272.576 2.61 1.044 4.001l1.044 3.132c.228.228.348.463.348.698 0 .228.115.462.348.694.23.463.348.752.348.872 0 .114.115.403.348.87.463 1.157.925 2.142 1.392 2.958.463.81.925 1.795 1.393 2.959.227.461.462.924.696 1.392.228.461.462.924.696 1.39.462.463.696.926.696 1.393l1.044 1.045c1.392 1.853 2.899 3.245 4.524 4.175.926.462 1.74.812 2.436 1.045.696.23 1.507.461 2.438.696 1.392.463 2.664.463 3.828 0 1.158 0 2.028-.12 2.61-.348.575-.233.984-.348 1.218-.348-.234-.233-.643-.293-1.218-.173-.582.113-1.452.053-2.61-.175-.931 0-2.09-.348-3.482-1.044-1.164-.468-2.436-1.164-3.828-2.09l-1.392-1.391-.346-.347v-.348c-.235 0-.35-.06-.35-.175 0-.12-.12-.174-.348-.174 0-.234-.06-.407-.174-.52-.12-.12-.174-.295-.174-.523-.466-.47-.696-.93-.696-1.393-.233-.234-.348-.408-.348-.522 0-.118-.12-.293-.348-.521-.468-1.393-.816-2.323-1.044-2.785-.466-1.163-.816-2.207-1.044-3.132-.234-.93-.582-1.86-1.045-2.786-.233-.466-.347-.754-.347-.869 0-.12-.12-.41-.349-.87 0-.234-.06-.467-.173-.697a1.504 1.504 0 0 1-.174-.694l-1.045-3.134a39.566 39.566 0 0 1-2.088-6.961c-.233-.467-.348-1.044-.348-1.739 0-.234-.06-.408-.173-.522-.12-.12-.175-.295-.175-.522v-7.657c-.468.228-.816.463-1.044.696-.235.23-.581.463-1.044.696-.93.463-1.512.81-1.74 1.045-.233.227-.408.347-.523.347-.12 0-.293.115-.521.348h-.696v.35h-1.044c-.235.227-.696.347-1.392.347h-1.045c0-.234-.234-.348-.696-.348-.467 0-.93-.12-1.392-.349-.467-.233-.93-.468-1.391-.695-.235 0-.35-.06-.35-.174 0-.12-.12-.175-.346-.175l-.35-.348h-.347c0-.233-.059-.348-.174-.348-.12 0-.174-.119-.174-.347h-.348c0-.234-.119-.349-.348-.349l-1.74-1.74-1.392-1.392-1.74-1.74c0 .228.348.924 1.044 2.088.234.228.581.81 1.044 1.74.233.461.468.81.696 1.044.233.23.468.577.696 1.044l.348.348c0 .23.114.35.348.35 0 .226.054.346.174.346.114 0 .174.115.174.348l.348.35.348.347.696.695c1.393.924 2.55 1.507 3.48 1.741.229.228.577.347 1.045.347.228.23.576.348 1.044.348H631.964Zm-34.455-80.047c-.462 2.318-.696 4.058-.696 5.222.696 6.029 2.262 13.513 4.698 22.448 2.436 8.928 6.788 18.27 13.052 28.016a112.955 112.955 0 0 1 3.305 4.872 127.813 127.813 0 0 0 3.307 4.872c1.392 2.089 2.784 3.829 4.177 5.221.924.925 1.739 1.447 2.436 1.565.696.115 1.272.175 1.74.175.228-.233.461-.348.696-.348 2.55-1.627 5.22-3.775 8.004-6.439 2.784-2.67 4.873-4.817 6.265-6.438.696-.695 1.044-1.392 1.044-2.088 0-.234-.233-.816-.696-1.74-.929-1.392-2.321-3.54-4.176-6.439-1.86-2.904-3.829-6.15-5.917-9.745-2.088-3.6-4.176-7.542-6.264-11.834-2.09-4.294-3.83-8.525-5.221-12.701-.467-1.164.577-.697 3.132 1.392 2.55 2.087 5.857 5.1 9.92 9.048 4.056 3.943 8.581 8.58 13.573 13.921a2033.731 2033.731 0 0 0 14.79 15.66l8.702-.346a876.396 876.396 0 0 1-18.447-22.622 1821.422 1821.422 0 0 1-16.878-20.882 3622.619 3622.619 0 0 0-16.184-20.186l-.348-.349c-.234 0-.348-.117-.348-.347-.234-.233-.408-.348-.522-.348-.12 0-.293-.12-.522-.348h-.348c-.924-.468-1.68-.641-2.262-.521-.577.113-1.1.172-1.566.172-1.622.463-3.535 1.1-5.743 1.915-2.203.81-4.464 1.681-6.787 2.61-.228.228-.462.348-.696.348-1.392.696-2.49 1.622-3.306 2.786-.811 1.157-1.447 2.316-1.914 3.478Zm17.75-19.837-1.044.348c-.23 0-.403.06-.523.175-.113.118-.288.174-.521.174-.228 0-.811.232-1.74.695-.463.235-1.044.408-1.74.523-.696.118-1.274.293-1.742.521-.461.468-1.044.757-1.74.87-.696.12-1.272.294-1.74.522-.228.235-.462.35-.696.35-.228.233-.462.347-.696.347-.924.467-1.506.815-1.74 1.044-.228 0-.81.234-1.74.695l-.696.35-.348.347-.348.347c-1.158.468-2.089 1.1-2.785 1.915a49.006 49.006 0 0 0-2.087 2.61c-1.158 1.62-1.854 3.362-2.089 5.22-.228.23-.348.698-.348 1.392 0 .23-.055.403-.173.523-.115.115-.175.288-.175.521v4.874c0 .461.12.809.348 1.044v.346-.346c0-.468.12-.816.348-1.044v-1.046c0-.466.06-.754.175-.869.118-.12.173-.408.173-.87.235-.467.35-.757.35-.87 0-.12.118-.408.346-.87 0-.469.12-.815.35-1.043 0-.47.118-.818.346-1.044.468-.698.87-1.392 1.219-2.09.348-.696.87-1.392 1.566-2.088.93-1.162 2.322-2.321 4.176-3.481h.348l.348-.347h.696c.234-.233.468-.348.696-.348.234 0 .468-.12.696-.348.468-.234.756-.349.871-.349.12 0 .407-.119.87-.347h.695c.235-.228.583-.348 1.044-.348l3.132-1.044c.931-.229 2.09-.577 3.482-1.044.466-.228.816-.348 1.044-.348.233 0 .466-.114.696-.349h.696l.696-.348c1.392 0 2.436.12 3.132.348.696 0 1.158.12 1.392.35h.696c.229.233.462.347.696.347l.696.347.696.35c0 .233.054.347.174.347.115 0 .175.12.175.347h.347l.348.348.348.35.697.694c.228.463.576.925 1.043 1.392.462.463.87.925 1.218 1.393.348.463.751.926 1.219 1.392.924.926 1.74 1.795 2.436 2.61a50.822 50.822 0 0 1 2.088 2.61c.924.926 1.62 1.74 2.088 2.436l2.088 2.09c5.103 6.029 8.233 9.396 9.397 10.092-.466-.93-2.902-4.872-7.309-11.834-.467-.466-.756-.869-.87-1.217-.12-.348-.407-.756-.87-1.219-.233-.468-.816-1.392-1.74-2.784a132.66 132.66 0 0 1-1.915-2.61 125.289 125.289 0 0 0-1.913-2.61l-2.088-3.133a2.532 2.532 0 0 1-.523-.695c-.118-.229-.408-.462-.869-.696l-.348-.697c0-.228-.12-.348-.348-.348-.235-.228-.348-.461-.348-.695h-.348v-.349c-.235 0-.35-.053-.35-.173 0-.115-.118-.175-.346-.175l-.696-.696c-.235 0-.583-.228-1.045-.696l-1.044-.347-.696-.697h-.696l-.696-.347a1.193 1.193 0 0 0-.871-.349c-.347 0-.755-.113-1.217-.348h-4.524Z"/><path fill-rule="nonzero" d="M768.387 333.619c-.467-.696-.93-1.392-1.391-2.088-.47-.698-.93-1.392-1.393-2.09a18.766 18.766 0 0 1-1.216-2.086c-.35-.698-.758-1.512-1.219-2.436-.47-.698-.93-1.394-1.393-2.09-.467-.696-.93-1.392-1.391-2.088a196.968 196.968 0 0 1-4.7-8.526 108.588 108.588 0 0 0-4.699-8.18c-.694-1.391-1.39-2.728-2.088-4.002-.696-1.277-1.39-2.61-2.086-4.001a36.334 36.334 0 0 1-1.916-3.656 35.552 35.552 0 0 0-1.915-3.653c-2.555-4.872-4.757-9.343-6.612-13.4a509.49 509.49 0 0 1-4.872-10.963c-.467-.93-.755-1.74-.87-2.436-.12-.696-.409-1.392-.87-2.088-.233-.468-.468-.99-.695-1.567a22.524 22.524 0 0 0-.698-1.566c-.466-1.164-.815-1.974-1.044-2.436a3.1 3.1 0 0 1-.347-1.392c0 .462.347 1.74 1.045 3.828.46 1.392.81 2.552 1.044 3.48.227.697.462 1.393.695 2.089.23.696.461 1.507.696 2.436a426.538 426.538 0 0 0 4.177 11.137c1.619 4.176 3.594 8.815 5.916 13.92a249.77 249.77 0 0 0 1.566 3.83 29.633 29.633 0 0 0 1.914 3.829 31.598 31.598 0 0 0 1.742 4.175l2.086 4.177c1.394 2.784 2.786 5.568 4.176 8.353a113.02 113.02 0 0 0 4.874 8.7c.462.696.869 1.392 1.218 2.09.35.694.75 1.505 1.219 2.436.461.694.87 1.392 1.216 2.086.35.698.752 1.507 1.219 2.436.464.698.869 1.392 1.218 2.09.35.696.751 1.392 1.219 2.088.461.696.924 1.506 1.39 2.436l.35.348.35.696c0 .228.051.402.17.522.115.114.175.288.175.523.464.923.696 1.62.696 2.087 0 .462.054.81.174 1.044.115.228.175.577.175 1.045 0 1.39-.35 2.664-1.045 3.828l-.346.696v.348l-.349.348-.35.348c-.234.463-.466.75-.694.87-.235.114-.47.402-.696.87-.93.463-1.513.81-1.741 1.044l-.347.348h-.35l-.346.348-1.393.348a63.165 63.165 0 0 1-4.698 2.437c-1.513.695-3.078 1.39-4.698 2.087l-1.392.696-.35.348h-.346c-.235 0-.35.115-.35.35l-1.044.347h-.346l-.698.347h-1.044c-.232.23-.581.348-1.044.348h-2.086c-.932 0-2.323-.467-4.178-1.392a7.964 7.964 0 0 1-2.784-2.784c-.233 0-.348-.12-.348-.347l-.349-.697-.696-1.044c-.468-.93-.93-1.625-1.392-2.088-.93-1.86-1.74-3.252-2.436-4.176a499.129 499.129 0 0 1-9.05-16.88 1681.362 1681.362 0 0 0-8.005-15.488 47.337 47.337 0 0 0-1.565-3.48 45.02 45.02 0 0 1-1.564-3.48 29.984 29.984 0 0 0-1.568-3.307 28.329 28.329 0 0 1-1.565-3.305c-.47-1.164-.87-2.15-1.219-2.959a47.466 47.466 0 0 0-1.219-2.61c-.466-1.392-.929-2.322-1.39-2.784 0-.468-.06-.755-.175-.87-.12-.12-.175-.408-.175-.87h-1.044l-.694.348c-.468 0-.871.054-1.219.174a3.945 3.945 0 0 1-1.219.174c-.466.229-1.164.348-2.088.348-.233.228-.468.348-.694.348h-3.134c-2.088 0-3.366-.12-3.828-.348.696.462 1.968.81 3.828 1.044h3.828a6.538 6.538 0 0 1 2.088-.348c.698 0 1.507-.12 2.438-.348h.694c.23.228.35.577.35 1.044l.348.348v.697l.696 1.392c.461 1.157.809 2.141 1.044 2.957.226.81.576 1.795 1.044 2.959.461 1.157.87 2.316 1.216 3.479.349 1.16.753 2.318 1.22 3.48a45.29 45.29 0 0 0 1.566 3.48 48.486 48.486 0 0 1 1.566 3.48 298.141 298.141 0 0 0 7.136 16.01c2.664 5.57 5.622 11.367 8.874 17.403l2.086 4.176c.464.463.753.87.873 1.219.112.348.287.749.52 1.217l.696 1.044.35.697.347.695c.926 1.392 2.316 2.785 4.175 4.177 1.623.924 3.596 1.62 5.917 2.087H744.373c.23 0 .464-.06.696-.172.23-.12.463-.175.698-.175h.696c.229 0 .4-.06.52-.173.114-.12.289-.175.524-.175h.694l.696-.348 1.394-.35v-.346h.694l.35-.348 1.39-.696a190.958 190.958 0 0 0 4.7-2.09 63.428 63.428 0 0 0 4.699-2.435l1.39-.348.349-.348h.349l.347-.347h.349c.46-.47.87-.757 1.219-.872.345-.118.749-.406 1.216-.87.462-.467.812-.868 1.044-1.216.229-.35.578-.756 1.044-1.22l.349-.695.35-.348.345-.348.349-.696.35-.696c.923-1.627 1.39-3.715 1.39-6.264-.235-.47-.35-.93-.35-1.392 0-.47-.117-.93-.346-1.393 0-.696-.233-1.74-.695-3.132-.234-.234-.349-.407-.349-.522 0-.12-.12-.294-.35-.522l-.345-.696c0-.234-.12-.348-.349-.348v-.348a5.162 5.162 0 0 1-1.393-2.436Zm-100.58-111.37c.229.228 1.273 1.158 3.133 2.784 1.855 1.62 4.116 3.828 6.787 6.614 2.664 2.782 5.568 6.089 8.7 9.917 3.133 3.828 6.32 8.179 9.57 13.05.696 2.551 1.394 5.275 2.088 8.18.698 2.9 1.622 5.97 2.786 9.223-6.499-4.41-12.998-10.501-19.491-18.272-6.497-7.776-11.37-18.044-14.617-30.801l.349-.348c0-.696.228-.815.695-.347Zm50.116-18.794-.695-.696-.696-.696a3.019 3.019 0 0 0-.697-.523 2.55 2.55 0 0 1-.696-.521c-1.392-.926-2.67-1.392-3.828-1.392H708.873c-.694 0-1.161.12-1.39.348h-.695l-.699.348c-.929.233-1.798.408-2.609.522-.815.12-1.799.408-2.957.87-.468.233-1.392.582-2.784 1.044-.698 0-1.279.12-1.742.348-.233 0-.468.12-.694.348H694.257c-.233.234-.466.349-.696.349-.233.232-.581.347-1.042.347l-.35.348-.348.348c-.234 0-.406.06-.521.174-.12.12-.293.175-.523.175a8.41 8.41 0 0 1-1.566 1.217 7.859 7.859 0 0 0-1.566 1.219c0 .228-.233.575-.696 1.044l-.697.695c0 .229-.117.462-.347.697l-.696.695v.349h-.349v-.35l-.347-.346a2.733 2.733 0 0 1-.522-.697 2.85 2.85 0 0 0-.522-.695c-.233-.468-.408-.757-.522-.87-.12-.12-.294-.409-.523-.871-.232-.234-.292-.348-.173-.348.113 0 .053-.12-.174-.347-.697-.697-1.164-1.273-1.392-1.741l-.697-.696-.348-.696-1.74-2.087c-.233 0-.581-.23-1.043-.697l-1.045-1.044c-.93-.696-1.8-1.218-2.61-1.567a44.56 44.56 0 0 1-2.611-1.217 28.11 28.11 0 0 0-2.61-.523c-.816-.115-1.8-.173-2.957-.173-1.855 0-3.596.348-5.221 1.044h-.696v.346h-.348c-.23.235-.576.35-1.044.35l-2.088 1.044c-.228 0-1.332.64-3.307 1.914-1.968 1.278-3.595 2.436-4.872 3.479-1.272 1.044-1.567 1.507-.87 1.393.695-.12 3.714-1.446 9.049-4.002.466 0 1.164-.23 2.088-.696.468 0 .814-.114 1.044-.348h1.044c1.86-.463 3.132-.696 3.829-.696.93 0 2.321.233 4.175.696.697.468 1.566.929 2.61 1.392 1.046.468 1.795.929 2.263 1.392l.696.696.696.696 1.74 1.74.348.696c.228.462.403.752.523.87.114.114.286.403.521.87.696.229 1.157.696 1.392 1.393.228.228.403.461.523.696.114.228.288.463.521.696.228.228.403.461.523.696.114.228.288.463.522.696l.347.348.697.696c.228.461.403.75.522.87.113.114.288.402.522.87.228.463.81 1.392 1.74 2.784.228.228.402.463.522.696.114.23.288.461.522.696l.695.697c0 .228.055.347.175.347.114 0 .174.115.174.348.228-1.164.576-2.67 1.044-4.524l.348-1.044.348-1.044.348-.696v-.696l.348-.696.348-.348c0-.235.055-.35.175-.35.113 0 .173-.118.173-.346.23-.233.348-.468.348-.696l.696-.696 2.088-2.09c.228 0 .463-.12.696-.346l.35-.348h.346l.698-.697h.694c1.159-.467 2.204-.87 3.134-1.218.924-.35 1.853-.75 2.784-1.218.924-.463 1.853-.87 2.784-1.218.924-.35 1.738-.75 2.437-1.218.227 0 .46-.055.695-.175.229-.113.461-.173.696-.173.229-.23.574-.347 1.044-.347.229 0 .404-.055.521-.175.115-.114.288-.174.523-.174h1.044c.925 0 2.089.234 3.48.696.229.233.402.348.522.348.115 0 .287.12.522.348.697.234 1.044.468 1.044.696.229 0 .464.12.696.348l.348.349v-.35Zm-20.882 7.308c-2.321 1.16-3.828 2.55-4.522 4.177-.698 1.62-1.046 3.012-1.046 4.176 0 2.316.114 5.101.348 8.353.228 3.246.698 7.075 1.392 11.486a77.82 77.82 0 0 1-2.436-3.48c-.468-.698-.929-1.164-1.392-1.392a144.758 144.758 0 0 0-5.916-10.095 168.262 168.262 0 0 0-6.265-9.397c-2.321-3.251-4.644-6.15-6.96-8.7-1.627-1.392-3.367-2.087-5.22-2.087-1.855 0-3.133.232-3.83.695l-17.053 6.264c-1.853.697-2.958 1.914-3.306 3.656-.348 1.738-.522 2.838-.522 3.305.234 3.708.99 8.93 2.263 15.661 1.277 6.727 3.653 13.574 7.133 20.535 3.482 6.96 8.474 13.572 14.967 19.837 6.492 6.264 14.964 10.903 25.405 13.922.696.694 2.203.809 4.524.348l11.139-1.74c3.479 9.745 7.83 20.3 13.05 31.67 5.22 11.364 11.538 23.666 18.967 36.89.462.464.986.925 1.566 1.393.578.461 1.448.81 2.612 1.044 1.156.23 2.141.23 2.956 0 .812-.233 1.448-.468 1.916-.695l13.573-6.613c1.156-.468 2.2-1.452 3.13-2.959.925-1.512.578-3.653-1.043-6.437-2.087-3.481-4.759-8.065-8.003-13.748-3.253-5.688-6.732-12.181-10.443-19.49-3.714-7.309-7.482-15.14-11.31-23.491a276.297 276.297 0 0 1-10.268-25.756 143.182 143.182 0 0 1-5.219-16.008c-.47-1.86-.93-3.602-1.393-5.22-.467-1.627-.93-3.367-1.391-5.22.227.226 1.68 1.618 4.35 4.174a679.78 679.78 0 0 1 21.927 22.101c4.288 4.523 8.176 8.874 11.658 13.051l8.701-.348a1369.78 1369.78 0 0 0-16.357-22.274c-4.646-6.498-9.806-13.4-15.487-20.707-5.69-7.31-10.964-13.983-15.836-20.012-.47-.468-.816-.697-1.044-.697-.235-.234-.584-.347-1.045-.347-.468-.235-.815-.295-1.044-.175a1.584 1.584 0 0 1-.695.175l-12.53 4.175Z"/><path fill-rule="nonzero" d="M855.74 333.619c-.468-.696-.93-1.392-1.392-2.088a473.39 473.39 0 0 1-1.392-2.09 18.992 18.992 0 0 1-1.218-2.086l-1.218-2.436c-.468-.698-.93-1.394-1.392-2.09-.468-.696-.93-1.392-1.392-2.088a196.948 196.948 0 0 1-4.7-8.526 109.514 109.514 0 0 0-4.698-8.18 123.755 123.755 0 0 0-2.088-4.002 127.974 127.974 0 0 1-2.088-4.001 36.326 36.326 0 0 1-1.914-3.656 35.817 35.817 0 0 0-1.915-3.653c-2.556-4.872-4.757-9.343-6.612-13.4a502.957 502.957 0 0 1-4.872-10.963c-.468-.93-.756-1.74-.87-2.436-.12-.696-.409-1.392-.871-2.088-.232-.468-.467-.99-.695-1.567a22.55 22.55 0 0 0-.697-1.566c-.467-1.164-.815-1.974-1.044-2.436a3.084 3.084 0 0 1-.348-1.392c0 .462.348 1.74 1.045 3.828.461 1.392.81 2.552 1.044 3.48.228.697.463 1.393.695 2.089.229.696.462 1.507.697 2.436 1.159 3.247 2.55 6.96 4.176 11.137 1.62 4.176 3.595 8.815 5.916 13.92a250.69 250.69 0 0 0 1.567 3.83 29.463 29.463 0 0 0 1.914 3.829 31.587 31.587 0 0 0 1.74 4.175l2.088 4.177c1.394 2.784 2.784 5.568 4.176 8.353a112.574 112.574 0 0 0 4.874 8.7c.46.696.869 1.392 1.217 2.09.35.694.75 1.505 1.219 2.436.462.694.869 1.392 1.217 2.086.35.698.75 1.507 1.219 2.436.462.698.869 1.392 1.217 2.09.35.696.752 1.392 1.219 2.088.462.696.925 1.506 1.392 2.436l.348.348.349.696c0 .228.053.402.172.522.115.114.175.288.175.523.462.923.696 1.62.696 2.087 0 .462.054.81.174 1.044.115.228.175.577.175 1.045 0 1.39-.35 2.664-1.045 3.828l-.347.696v.348l-.35.348-.347.348c-.235.463-.467.75-.696.87-.234.114-.468.402-.696.87-.93.463-1.512.81-1.74 1.044l-.348.348h-.348l-.348.348-1.394.348a62.904 62.904 0 0 1-4.697 2.437c-1.512.695-3.079 1.39-4.699 2.087l-1.39.696-.35.348h-.348c-.234 0-.348.115-.348.35l-1.044.347h-.348l-.696.347h-1.044c-.233.23-.582.348-1.044.348H829.29c-.93 0-2.322-.467-4.177-1.392a7.964 7.964 0 0 1-2.784-2.784c-.233 0-.348-.12-.348-.347l-.348-.697-.696-1.044c-.468-.93-.93-1.625-1.392-2.088-.93-1.86-1.74-3.252-2.437-4.176a501.435 501.435 0 0 1-9.048-16.88 1715.093 1715.093 0 0 0-8.006-15.488 47.904 47.904 0 0 0-1.565-3.48 45.04 45.04 0 0 1-1.565-3.48 29.74 29.74 0 0 0-1.567-3.307 28.334 28.334 0 0 1-1.567-3.305c-.468-1.164-.87-2.15-1.217-2.959a48.472 48.472 0 0 0-1.219-2.61c-.468-1.392-.93-2.322-1.392-2.784 0-.468-.06-.755-.174-.87-.12-.12-.174-.408-.174-.87h-1.044l-.696.348c-.468 0-.87.054-1.218.174a3.94 3.94 0 0 1-1.22.174c-.466.229-1.162.348-2.086.348-.234.228-.47.348-.696.348H779.522c-2.088 0-3.366-.12-3.83-.348.697.462 1.969.81 3.83 1.044H783.35a6.524 6.524 0 0 1 2.087-.348c.697 0 1.507-.12 2.437-.348h.696c.228.228.348.577.348 1.044l.35.348v.697l.694 1.392c.463 1.157.81 2.141 1.044 2.957.228.81.578 1.795 1.044 2.959.463 1.157.87 2.316 1.218 3.479.349 1.16.752 2.318 1.22 3.48a45.27 45.27 0 0 0 1.565 3.48 47.904 47.904 0 0 1 1.565 3.48 299.203 299.203 0 0 0 7.136 16.01c2.664 5.57 5.623 11.367 8.875 17.403l2.087 4.176c.462.463.752.87.872 1.219.113.348.288.749.52 1.217l.697 1.044.348.697.348.695c.925 1.392 2.317 2.785 4.176 4.177 1.621.924 3.595 1.62 5.917 2.087H831.726c.228 0 .463-.06.696-.172.228-.12.462-.175.696-.175h.696c.23 0 .402-.06.522-.173.114-.12.289-.175.522-.175h.696l.696-.348 1.392-.35v-.346h.696l.348-.348 1.392-.696a190.825 190.825 0 0 0 4.699-2.09 62.905 62.905 0 0 0 4.699-2.435l1.392-.348.348-.348h.348l.348-.347h.348c.46-.47.87-.757 1.218-.872.347-.118.75-.406 1.218-.87.46-.467.81-.868 1.044-1.216.229-.35.577-.756 1.044-1.22l.348-.695.349-.348.347-.348.348-.696.349-.696c.924-1.627 1.392-3.715 1.392-6.264-.235-.47-.35-.93-.35-1.392 0-.47-.118-.93-.347-1.393 0-.696-.232-1.74-.695-3.132-.235-.234-.35-.407-.35-.522 0-.12-.12-.294-.347-.522l-.347-.696c0-.234-.12-.348-.35-.348v-.348a5.16 5.16 0 0 1-1.391-2.436Zm-100.582-111.37c.23.228 1.275 1.158 3.134 2.784 1.854 1.62 4.117 3.828 6.786 6.614 2.666 2.782 5.57 6.089 8.7 9.917 3.134 3.828 6.32 8.179 9.572 13.05.695 2.551 1.392 5.275 2.087 8.18.697 2.9 1.621 5.97 2.785 9.223-6.498-4.41-12.997-10.501-19.49-18.272-6.498-7.776-11.37-18.044-14.616-30.801l.348-.348c0-.696.228-.815.694-.347Zm50.118-18.794-.696-.696-.696-.696a3.042 3.042 0 0 0-.696-.523 2.555 2.555 0 0 1-.698-.521c-1.39-.926-2.668-1.392-3.828-1.392h-2.436c-.694 0-1.162.12-1.392.348h-.694l-.698.348c-.93.233-1.798.408-2.61.522-.815.12-1.8.408-2.958.87-.468.233-1.392.582-2.784 1.044-.696 0-1.277.12-1.74.348-.234 0-.47.12-.696.348h-1.045c-.232.234-.467.349-.695.349-.234.232-.582.347-1.044.347l-.348.348-.35.348c-.232 0-.406.06-.52.174-.12.12-.294.175-.523.175-.468.461-.99.87-1.565 1.217a7.867 7.867 0 0 0-1.567 1.219c0 .228-.233.575-.696 1.044l-.696.695c0 .229-.119.462-.348.697l-.696.695v.349h-.35v-.35l-.346-.346a2.765 2.765 0 0 1-.523-.697 2.816 2.816 0 0 0-.521-.695c-.233-.468-.408-.757-.523-.87-.118-.12-.293-.409-.522-.871-.232-.234-.292-.348-.174-.348.115 0 .055-.12-.173-.347-.696-.697-1.164-1.273-1.392-1.741l-.697-.696-.348-.696-1.74-2.087c-.234 0-.582-.23-1.043-.697l-1.045-1.044c-.93-.696-1.8-1.218-2.611-1.567a44.544 44.544 0 0 1-2.61-1.217c-.929-.23-1.8-.403-2.61-.523-.815-.115-1.799-.173-2.957-.173-1.855 0-3.595.348-5.22 1.044h-.698v.346h-.348c-.228.235-.576.35-1.044.35l-2.088 1.044c-.228 0-1.332.64-3.306 1.914-1.968 1.278-3.594 2.436-4.872 3.479-1.272 1.044-1.567 1.507-.87 1.393.696-.12 3.714-1.446 9.048-4.002.468 0 1.164-.23 2.088-.696.468 0 .816-.114 1.044-.348H747.156c1.858-.463 3.13-.696 3.828-.696.929 0 2.32.233 4.174.696.698.468 1.567.929 2.61 1.392 1.046.468 1.796.929 2.264 1.392l.696.696.697.696 1.739 1.74.348.696c.229.462.402.752.522.87.115.114.288.403.522.87.697.229 1.158.696 1.392 1.393.229.228.402.461.522.696.115.228.29.463.522.696.229.228.402.461.522.696.115.228.288.463.523.696l.347.348.697.696c.228.461.403.75.521.87.115.114.288.402.523.87.228.463.81 1.392 1.74 2.784.23.228.403.463.521.696.115.23.288.461.523.696l.696.697c0 .228.053.347.173.347.115 0 .175.115.175.348.228-1.164.577-2.67 1.044-4.524l.348-1.044.348-1.044.35-.696v-.696l.346-.696.348-.348c0-.235.055-.35.175-.35.114 0 .173-.118.173-.346.23-.233.35-.468.35-.696l.694-.696 2.088-2.09c.228 0 .463-.12.697-.346l.348-.348h.347l.697-.697h.695c1.159-.467 2.204-.87 3.133-1.218.924-.35 1.855-.75 2.784-1.218.924-.463 1.854-.87 2.786-1.218.924-.35 1.738-.75 2.436-1.218.228 0 .46-.055.694-.175.23-.113.463-.173.698-.173.228-.23.574-.347 1.044-.347.228 0 .402-.055.52-.175.116-.114.289-.174.522-.174h1.044c.926 0 2.09.234 3.482.696.229.233.4.348.52.348.116 0 .289.12.524.348.696.234 1.044.468 1.044.696.228 0 .462.12.696.348l.348.349v-.35Zm-20.882 7.308c-2.322 1.16-3.83 2.55-4.524 4.177-.697 1.62-1.045 3.012-1.045 4.176 0 2.316.115 5.101.348 8.353.23 3.246.697 7.075 1.392 11.486a77.82 77.82 0 0 1-2.436-3.48c-.468-.698-.93-1.164-1.392-1.392a144.233 144.233 0 0 0-5.916-10.095 168.262 168.262 0 0 0-6.265-9.397c-2.322-3.251-4.643-6.15-6.96-8.7-1.626-1.392-3.367-2.087-5.22-2.087-1.855 0-3.132.232-3.83.695l-17.053 6.264c-1.853.697-2.957 1.914-3.305 3.656-.35 1.738-.523 2.838-.523 3.305.233 3.708.99 8.93 2.263 15.661 1.278 6.727 3.654 13.574 7.134 20.535 3.48 6.96 8.472 13.572 14.966 19.837 6.492 6.264 14.964 10.903 25.406 13.922.695.694 2.202.809 4.524.348l11.138-1.74c3.48 9.745 7.83 20.3 13.05 31.67 5.22 11.364 11.539 23.666 18.967 36.89.463.464.985.925 1.567 1.393.577.461 1.446.81 2.61 1.044 1.158.23 2.143.23 2.958 0 .81-.233 1.446-.468 1.914-.695l13.574-6.613c1.157-.468 2.2-1.452 3.132-2.959.924-1.512.576-3.653-1.044-6.437-2.088-3.481-4.76-8.065-8.004-13.748-3.254-5.688-6.732-12.181-10.442-19.49-3.714-7.309-7.482-15.14-11.312-23.491a276.289 276.289 0 0 1-10.266-25.756 143.193 143.193 0 0 1-5.22-16.008 170.42 170.42 0 0 0-1.392-5.22c-.468-1.627-.93-3.367-1.392-5.22.228.226 1.68 1.618 4.35 4.174a644.427 644.427 0 0 1 9.744 9.57 675.597 675.597 0 0 1 12.182 12.532c4.29 4.522 8.178 8.873 11.658 13.05l8.702-.348a1361.9 1361.9 0 0 0-16.358-22.274c-4.644-6.498-9.805-13.4-15.486-20.707-5.69-7.31-10.964-13.983-15.836-20.012-.468-.468-.816-.697-1.044-.697-.234-.234-.583-.347-1.046-.347-.466-.235-.814-.295-1.044-.175a1.575 1.575 0 0 1-.694.175l-12.53 4.175Z"/><path fill-rule="nonzero" d="M918.383 177.004c0-2.087-.12-3.708-.348-4.872a44.379 44.379 0 0 1-.696-2.263 66 66 0 0 0-.696-2.261 18.812 18.812 0 0 1-1.219-2.088 6.698 6.698 0 0 0-1.217-1.74c-.696-.924-1.74-2.088-3.132-3.48l-1.046-1.045-.696-.696-2.088-1.044c-.929-.463-1.625-.696-2.088-.696-.929-.462-1.74-.696-2.436-.696-1.392-.463-2.904-.228-4.525.696-.232.233-.467.348-.695.348l-.349.348c-.233 0-.348.06-.348.174 0 .12-.119.175-.347.175l-.348.347c0 .234-.12.348-.349.348l-.348.696-.347.348v.348l-1.044 1.044h-.348l-.349.349-.348.348-1.392.695c-.467.469-.93.697-1.392.697-.467.467-.93.696-1.392.696-.233.233-.408.348-.521.348-.12 0-.295.12-.523.348-.93.233-1.74.467-2.436.696-.696.233-1.392.468-2.088.695-1.392.234-2.436.582-3.133 1.045-.467 0-.815.06-1.043.175-.235.118-.47.172-.697.172h3.306c.578 0 1.22-.114 1.914-.347.697 0 2.204-.228 4.525-.696.463 0 .75-.055.87-.175.114-.114.289-.174.522-.174.463 0 .75-.054.87-.172.114-.115.402-.175.871-.175a7.141 7.141 0 0 1 1.392-.523c.462-.114.924-.402 1.392-.87.227 0 .402-.054.522-.174.114-.113.288-.173.522-.173l.347-.35.348-.346c.463-.228.752-.403.872-.523.112-.114.401-.288.87-.522 0-.228.113-.462.347-.695l.347-.35.35-.347h.347v-.347h.695c.925-.463 1.741-.577 2.436-.35.23 0 .812.235 1.741.697.463 0 .924.234 1.392.697.228.233.463.408.698.521.226.119.461.294.694.522.23 0 .348.06.348.174 0 .12.115.175.348.175l.696.695c.463.468.871.93 1.22 1.392.347.469.75.93 1.216 1.393a23.88 23.88 0 0 0 1.742 3.48c.228.468.402 1.044.521 1.74.113.696.288 1.277.523 1.74 0 .696.053 1.339.173 1.913.115.583.175 1.22.175 1.915V178.745c0 .467-.06.755-.175.87-.12.12-.173.408-.173.869-.235 2.324-1.164 4.41-2.786 6.267-1.392 1.624-3.25 3.25-5.568 4.872-.466.466-.929.754-1.392.869-.468.12-.93.408-1.393.87l-3.13 1.045-1.393.694c-.234 0-.468.12-.697.35h-.695c-.234.233-.582.348-1.044.348h-.349c-.233.233-.468.346-.695.346-.468 0-.817.06-1.045.175-.233.12-.467.175-.696.175-.468 0-.815.118-1.043.348h-.349c0 .233-.12.348-.348.348v.346c0 .235.115.47.348.698 0 .466.115.696.35.696.227 0 .346.058.346.173 0 .12.115.175.348.175.23.233.403.348.523.348.114 0 .288.12.521.348h.348v.348h.697c.462.233.924.582 1.391 1.044.463.233.925.58 1.392 1.044 0-.228-.347-.696-1.044-1.392l-1.044-1.044c0 .233-.348 0-1.043-.696l-.349-.348c-.233 0-.233-.115 0-.348v-.348c.23-.228.463-.348.697-.348h3.131l.35-.35h.694c.463 0 .752-.053.872-.172.113-.114.401-.174.87-.174l3.131-1.046a30.083 30.083 0 0 0 1.914-.694c.577-.23 1.098-.463 1.566-.696a58.796 58.796 0 0 0 3.48-2.263c1.16-.81 2.318-1.793 3.482-2.959 2.088-2.088 3.48-4.752 4.176-8.004.228-.462.348-.81.348-1.045 0-.228.113-.575.348-1.044v-2.437Zm-70.303 24.015c-.233-.228-.407-.348-.521-.348-.12 0-.294-.115-.523-.348h2.436c.463 0 .87.06 1.219.173.348.12.75.175 1.218.175h.347l.35 1.044c.227.468.347.816.347 1.044 0 .233.115.582.347 1.045l.35.695v.348c0 .234.053.349.173.349.114 0 .174.119.174.347h-.348l-.349-.347h-.347a21.02 21.02 0 0 0-1.566-1.392 17.499 17.499 0 0 1-1.567-1.393c-.467-.228-1.043-.696-1.74-1.392Zm70.999 64.734.696 1.39c.462.926.696 1.74.696 2.438.228 0 .348.228.348.695v2.785c-.235 0-.348.114-.348.348v.695c0 .23-.06.35-.174.35-.12 0-.174.113-.174.347-.468.924-.93 1.62-1.392 2.088l-.348.348v.348h-.348l-1.044 1.044c-.468.462-.816.75-1.044.87-.235.114-.583.402-1.044.87l-2.09 2.088a22.826 22.826 0 0 1-2.436 2.088c-.466.463-.869.81-1.217 1.044-.348.228-.756.578-1.219 1.046l-1.392.694-.348.698-.696.346c-.468.23-.929.578-1.392 1.046-.468 0-.929.228-1.392.696-.234 0-.348.053-.348.173 0 .115-.12.175-.349.175l-.695.346c-.234.23-.582.35-1.044.35-.468.228-1.277.348-2.436.348 0-.235-.234-.348-.697-.348h-.348c-.232 0-.347-.06-.347-.175 0-.119-.12-.175-.348-.175h-.697c-1.164-.694-2.556-1.973-4.175-3.828a69.798 69.798 0 0 1-4.002-4.35 788.361 788.361 0 0 1-3.656-4.35 57.54 57.54 0 0 1-2.958-3.828c-.816-1.164-1.565-2.088-2.262-2.785-.93-.93-1.566-1.625-1.914-2.087a10.038 10.038 0 0 0-.869-1.045c0 .463.112.925.347 1.392v-.347.695l.348.35v.694c0 1.159-.12 2.204-.348 3.133 0 .228-.235.81-.696 1.74 0 .462-.119.81-.348 1.044-.234.228-.468.576-.695 1.044 0 .228-.12.348-.35.348 0 .23-.06.348-.173.348-.12 0-.174.114-.174.348l-1.044 1.044c-.234 0-.348.054-.348.174 0 .114-.12.174-.348.174 0 .228-.234.348-.696.348l-1.044 1.044a2.569 2.569 0 0 0-.523.698c-.12.226-.407.46-.87.694l-1.043 1.044c-1.392.926-2.323 1.622-2.784 2.09-2.323 1.853-4.298 3.36-5.918 4.524-.929.462-1.512.81-1.74 1.042l-.348.35h-.696l-.696.696c-.929.46-1.974.696-3.133.696-2.321 0-4.295-.696-5.915-2.088-1.393-.931-2.322-1.74-2.785-2.436 0-.234-.06-.348-.173-.348-.12 0-.175-.12-.175-.348l-.348-.35h-.348v-.346c-.233-.468-.408-.758-.521-.871-.12-.12-.295-.407-.523-.87a55.111 55.111 0 0 0-2.263-3.48 62.09 62.09 0 0 1-2.26-3.48c-.464-.467-.752-.99-.87-1.567-.115-.582-.403-1.104-.872-1.566l-2.087-3.132c-1.159-2.088-1.796-3.018-1.915-2.785-.114.23.174 1.219.871 2.959.695 1.74 1.625 3.942 2.783 6.613a79.992 79.992 0 0 0 4.177 8.179c.468.924.816 1.505 1.044 1.738l.348.35v.348c.233 0 .348.114.348.346.463.463.696.812.696 1.046a12.41 12.41 0 0 0 3.48 3.48l2.088 1.044c.463.462.87.696 1.219.696.348 0 .75.114 1.217.348.463.228.87.348 1.219.348.348 0 .75.114 1.218.348h2.783c.925-.234 1.447-.348 1.567-.348.114 0 .522-.235 1.218-.696.228 0 .576-.234 1.044-.696.228 0 .463-.12.696-.347l.348-.35c.462-.233.751-.407.871-.522.113-.12.403-.293.87-.521l1.391-1.392c.463-.234 1.046-.696 1.74-1.392l.696-.348c0-.468.228-.698.698-.698.228-.694.694-1.162 1.392-1.39.462-.468.87-.931 1.217-1.392.35-.468.75-.931 1.219-1.392l1.044-1.046 1.392-1.39 1.044-1.046c0-.233.053-.346.173-.346.115 0 .175-.12.175-.35l.697-.696c.227-.233.347-.406.347-.521 0-.12.114-.295.348-.523l.697-.696c0-.233.112-.468.347-.696.228-.466.402-.87.522-1.218.115-.348.288-.755.522-1.218 0-1.164.114-1.973.348-2.436 0-.468-.06-.99-.175-1.566a7.884 7.884 0 0 1-.173-1.567c0 .463.114.81.348 1.045.462.924 1.044 2.028 1.741 3.306a52.269 52.269 0 0 0 2.436 4.002 108.976 108.976 0 0 0 2.957 4.872 496.041 496.041 0 0 1 3.307 5.22c.463.698 1.272 1.622 2.436 2.786l.348.348.348.348.696.696c.228 0 .463.114.696.348.23.229.403.348.521.348.115 0 .29.114.523.348 2.55 1.392 5.335 1.74 8.353 1.045.462 0 1.16-.235 2.088-.697l.696-.696c.228 0 .403-.06.522-.174.114-.12.29-.174.522-.174.462-.468.924-.815 1.392-1.044.23-.234.462-.408.696-.523.228-.12.463-.293.698-.523l.694-.694.698-.348 1.044-1.044 2.436-2.436c.924-.93 1.74-1.742 2.436-2.436a23.251 23.251 0 0 0 2.088-2.436c.461-.47.75-.818.87-1.046.114-.233.403-.581.87-1.044l1.044-1.044v-.348c.228 0 .348-.12.348-.348 0-.233.054-.348.174-.348.114 0 .174-.12.174-.348.23-.468.402-.87.521-1.218.115-.348.29-.755.523-1.218 0-.468.054-.757.174-.87.114-.12.174-.294.174-.522v-1.392c0-.93-.119-1.626-.348-2.088 0-.468-.12-.817-.348-1.045 0-.467-.119-.696-.347-.696-.47-1.163-.932-1.975-1.393-2.436l-1.044-1.043ZM841.12 157.515a140.33 140.33 0 0 1 5.395 8.005c1.74 2.784 3.42 5.801 5.046 9.048h-3.481a29.257 29.257 0 0 1-5.568.175c-1.855-.115-3.247-.288-4.176-.523h-.697c-4.638-.463-9.223-1.62-13.746-3.48-4.525-1.855-7.482-4.873-8.874-9.048-.926-2.784-.986-5.16-.175-7.136.816-1.968 2.148-3.479 4.003-4.524 1.858-1.044 4.062-1.505 6.612-1.39 2.556.117 5.221.869 8.005 2.26.233.235 1.044.815 2.436 1.74.93.697 1.799 1.453 2.61 2.263l2.61 2.61Zm-5.917 41.068h1.044c-.227.233-.402.348-.522.348-.113 0-.288.118-.522.348-2.316.929-3.942 1.626-4.872 2.088-2.784.93-4.524 1.74-5.22 2.437.234-.23 2.088-.697 5.57-1.393a13.716 13.716 0 0 1 2.26-.523c.816-.113 1.8-.403 2.96-.87.232 0 .466-.053.695-.173a1.58 1.58 0 0 1 .696-.174h.347l.35-.348H841.467l.348.348c1.392.468 2.316.929 2.784 1.392.23.234.403.468.523.696.114.233.401.468.87.696.228.466.462.756.695.869.228.12.463.41.696.872.463.461.984.924 1.567 1.39.576.463 1.098.926 1.566 1.393.924 1.16 1.854 2.142 2.783 2.958a66.2 66.2 0 0 1 3.133 2.959c.463.463.984.924 1.567 1.392.576.463 1.097.924 1.565 1.392.23.463.462.75.696.87.228.114.463.402.698.87l1.042.696.35.348v-.348l-2.09-8.353a12.598 12.598 0 0 1-.52-2.262 13.428 13.428 0 0 0-.524-2.261l-.348-1.044-.348-1.045-.348-1.74c-.468-.926-.696-1.62-.696-2.088a15.576 15.576 0 0 1-.52-1.914 17.964 17.964 0 0 0-.524-1.914l-.348-.35v-.346H852.256c-.467-.228-1.277-.348-2.436-.348h-2.261a7.016 7.016 0 0 1-2.262-.35c-2.089 0-3.716-.113-4.873-.346h-2.088c-.463-.228-1.159-.348-2.09-.348a34.685 34.685 0 0 0-2.435-.523 12.812 12.812 0 0 0-2.087-.175c-.463-.228-.812-.346-1.044-.346-.23 0-.577-.115-1.045-.348h-.696l-.695-.35h-.35c-1.854-.462-3.131-.81-3.827-1.042-.463-.23-.81-.35-1.046-.35-.226 0-.46-.113-.694-.348-.463-.226-.81-.346-1.044-.346-.228 0-.463-.115-.698-.35-4.402-1.62-8.004-3.478-10.788-5.568a163.32 163.32 0 0 1-2.784-2.262c-.696-.576-1.158-.983-1.392-1.218 0 .235 1.164 1.739 3.48 4.524.468.468 1.044.99 1.74 1.566a62.773 62.773 0 0 0 2.436 1.916c.468.466.931.754 1.392.869.468.12.931.408 1.394.87.466.234.754.407.87.522.12.12.407.293.868.523l.698.346c.233.235.466.348.694.348.468.235.758.41.871.523.12.12.408.293.87.521.93.468 1.513.698 1.74.698.697.466 1.393.754 2.089.869.696.12 1.392.408 2.09.87h.346l.696.349c.468 0 .816.118 1.044.348.468 0 1.164.233 2.088.694l4.176 1.046Zm66.126-34.455c-1.86 2.556-4.757 4.524-8.7 5.916-3.948 1.392-8.353 2.436-13.225 3.132a7.056 7.056 0 0 1-2.264.35h-2.261a61.575 61.575 0 0 0-1.392-2.611c-.467-.811-1.044-1.795-1.74-2.96a215.047 215.047 0 0 0-4.35-6.611c-1.74-2.55-3.829-5.101-6.265-7.657-2.437-2.55-5.221-4.987-8.353-7.31-3.132-2.316-6.672-4.176-10.615-5.568-5.335-1.853-10.903-2.665-16.705-2.436-7.658.468-13.454 3.192-17.402 8.179-3.942 4.992-5.509 10.56-4.698 16.705.816 6.15 4.35 12.007 10.614 17.576 6.266 5.568 15.782 9.048 28.54 10.44 1.158 0 2.55.12 4.175.35 1.392.233 2.959.348 4.699.348 1.741 0 3.768.118 6.09.346h1.044c2.318 6.732 4.176 12.938 5.568 18.62 1.392 5.683 2.318 9.8 2.786 12.356.228.924.402 1.854.521 2.784.115.924.29 1.739.521 2.436.23.463.35 1.044.35 1.74.228.462.348.87.348 1.219 0 .347.114.75.348 1.217a190.601 190.601 0 0 0-9.223-9.918 528.941 528.941 0 0 0-8.527-8.352c-2.556-2.438-4.698-4.411-6.438-5.918-1.742-1.512-2.73-2.496-2.959-2.958-.93-.462-1.507-.576-1.74-.347h-.348l-2.784.695a133.653 133.653 0 0 1-4.7 1.914 57.36 57.36 0 0 1-4.697 1.566c-3.48 1.392-5.45 4.29-5.916 8.7.466 12.296 2.957 24.129 7.482 35.5a206.423 206.423 0 0 0 16.531 32.716c1.159 1.392 2.436 2.549 3.828 3.478 1.392.926 3.013.812 4.873-.346 1.16-.696 2.376-1.567 3.655-2.611a51.421 51.421 0 0 0 3.653-3.307c1.16-.93 2.551-2.206 4.178-3.828 1.62-1.626 3.012-3.018 4.176-4.176l-1.392-2.088c-.698-.697-1.74-1.974-3.134-3.828-5.105-7.196-9.516-14.677-13.225-22.448a112.503 112.503 0 0 1-8.35-24.19c-.235-1.162.226-1.451 1.391-.868 1.158.576 2.783 1.793 4.872 3.654 2.087 1.855 4.464 4.35 7.134 7.482a213.697 213.697 0 0 1 8.178 10.266 72.972 72.972 0 0 1 5.222 6.614c1.62 2.317 3.246 4.638 4.873 6.96a839.568 839.568 0 0 1 3.653 5.569 432.008 432.008 0 0 1 4.003 6.264c.228.463.461.81.696 1.044.228.228.463.577.696 1.045a521.363 521.363 0 0 0 3.305 5.22 45.27 45.27 0 0 0 3.308 4.524 183.51 183.51 0 0 0 4.175 5.22c1.621 1.622 3.013 2.204 4.176 1.742.23 0 .463-.12.697-.35 2.551-1.392 5.22-3.425 8.006-6.09 2.784-2.67 4.985-4.931 6.612-6.786 0-.234.114-.522.346-.87.23-.348.35-.756.35-1.218 0-.697-.12-1.277-.35-1.74-1.162-1.393-2.669-3.481-4.522-6.265-1.862-2.784-3.83-6.036-5.918-9.745a227.782 227.782 0 0 1-6.264-12.007c-2.088-4.296-3.829-8.525-5.22-12.703.462.462 2.087 2.028 4.871 4.698 2.785 2.665 6.147 6.032 10.095 10.094 3.941 4.056 8.118 8.406 12.528 13.05 4.405 4.638 8.468 9.164 12.181 13.573h8.7a2057.391 2057.391 0 0 0-17.401-23.317 9144.277 9144.277 0 0 1-16.183-21.404c-5.688-7.543-11.083-14.33-16.184-20.36v-.348h-.348v-.348h-.347c-.469-.462-.817-.696-1.045-.696l-.348-.348c-.696-.228-1.625-.348-2.784-.348-.468-.924-.93-2.436-1.392-4.524-.468-2.09-1.277-4.526-2.436-7.31.696 0 1.159-.114 1.392-.346 1.62 0 3.828-.175 6.613-.523 2.784-.348 5.567-1.044 8.351-2.088 2.785-1.045 5.221-2.55 7.31-4.525 2.087-1.968 3.131-4.464 3.131-7.482 0-1.854-.292-3.421-.869-4.7a77.729 77.729 0 0 1-1.567-3.653c-.466-.696-1.164-1.507-2.088-2.436l-.696-.697a23.997 23.997 0 0 0-2.436-1.391c-.466-.228-.816-.348-1.044-.348Zm-57.077-28.887c-.233-.228-.407-.348-.521-.348-.12 0-.295-.114-.523-.348-.235 0-.348-.054-.348-.174 0-.115-.119-.174-.348-.174-.233-.228-.468-.348-.696-.348-.235 0-.467-.114-.696-.348-2.088-.924-4.405-1.621-6.96-2.088-2.785-.697-6.03-1.045-9.745-1.045-4.404 0-8.352.817-11.834 2.437-3.942 1.626-7.074 3.948-9.396 6.96-2.317 2.784-4.057 5.803-5.22 9.048-.462 1.862-.812 3.134-1.045 3.83v6.612c.233-.228.348-.576.348-1.044 0-.462.235-1.16.697-2.088v-.696c.232 0 .347-.228.347-.696.235-.228.348-.463.348-.696 0-.228.12-.462.35-.696.233-.463.466-1.044.694-1.74.235-.696.468-1.274.697-1.74 1.163-2.09 3.131-4.526 5.916-7.31 2.322-2.088 5.106-3.828 8.352-5.22 3.48-1.621 6.734-2.55 9.746-2.784 1.86-.23 3.54-.402 5.046-.521a18.253 18.253 0 0 1 4.35.173c1.392 0 2.67.059 3.828.174 1.164.12 2.21.174 3.133.174.463.234.924.348 1.392.348h1.044c.228.234.577.348 1.044.348Z"/><path d="M678.81 493.1c.217 0-.143.107-.143.326v3.092c0 .326.458 1.14.785 2.442 2.82.758 4.38 1.518 4.38 2.279 0 .867-1.861 1.896-5.875 3.092-1.085-1.087-2.001-1.953-3.304-2.604-1.521-1.303-2.653-2.877-2.653-4.72v-1.465c0-.76-.113-1.402.212-2.484 2.604-3.8 3.63-6.391 3.63-6.391h.487c.218 0 .922.65 2.116 1.301 1.084-.434 1.898-1.301 2.442-1.301h1.79c.326 0-.01-.024 1.323.737v.163c-4 1.083-5.19 2.93-5.19 5.533"/><path d="M678.667 460.385c0 .867.037 1.682-.504 2.442-.76.325-.83 1.79-.83 4.394v.163c0 3.907-.122 6.943-.338 9.115 0 2.06-.552 3.092-1.635 3.092-.544 0-1.143-.54-1.793-1.843-.435-3.905-1.09-5.748-1.958-5.748h-.488s-.454.861-1.788 2.057v8.464c0 .976-1.005 1.464-1.221 1.464-1.196-.65-1.67-2.172-1.67-4.557 0-2.93.225-5.805.55-8.627l-.947-2.44c-.434 0-1.558.163-3.185.488-.87 1.083-1.527 2.06-2.86 2.93v3.417l.435 2.93c-.22 0-.272.107-.272.326-.326 0-.95-.815-1.926-2.441-1.412.432-2.102 1.734-2.102 3.905 0 4.013.486 7.325 1.898 9.93 4.123.975 5.967 1.789 5.967 2.44v.651c0 .432.061.92-.264 1.466-.544 1.408-1.84 2.548-4.119 3.417-.977.977-1.409 3.147-1.409 6.51.867 4.883 1.656 7.325 2.307 7.325.432 2.494 1.918 4.501 3.87 6.022 1.083.758 3.615 2.116 7.615 4.07v.813c0 .216-.439.379-.765.488-4.558 0-6.974-.272-6.974-.813-1.737 0-5.272-2.66-9.936-7.976-2.497-3.255-4.992-9.008-7.658-17.252v-1.14c0-7.38 1.782-13.835 4.822-19.368 2.386-5.208 7.238-9.704 14.292-13.718 6.4-2.822 10.548-4.114 12.176-4.114h.326c.65 0 .384.686.384 1.556v.162ZM804 343.523c0 13.78-3.913 26.78-11.183 39.475-16.926 25.716-40.425 38.335-69.938 38.335h-88.866c-16.496 0-31.36-3.939-44.597-12.294-13.553-9.857-23.248-21.068-29.107-33.862 1.955.704 3.899 1.445 5.835 2.104 5.27 10.141 12.844 18.645 22.784 25.985 14.104 9.547 28.59 14.067 43.457 14.067h92.122c11.934 0 24.1-2.916 36.362-9.316 26.043-15.41 39.131-38.67 39.131-70.354v-3.66a149.714 149.714 0 0 0 4 8.908v.612ZM709.696 470.667h-2.28c-2.062-1.334-3.852-2.618-5.37-2.618-.218 0-1.11.263-2.193.482-1.521-.326-2.52-.606-2.52-1.147v-.65l.567-1.629c-.544-.544-1.13-.561-1.996-.668-1.847.326-2.647.896-2.647 3.563h-.163c-.325-2.667-.814-3.675-1.465-5.303 0-1.301.868-2.697 2.604-2.697h.977c1.735 1.333 3.743 2.39 6.022 2.39 1.193 2.82 2.658 4.206 4.394 4.206 1.844 1.41 2.93 2.103 3.256 2.103.107 0 .542.386 1.302 1.797 0 .327-.163.17-.488.17"/><path fill-rule="nonzero" d="M651.73 465.105c-6.62 7.703-10.397 14.323-10.397 19.858v3.58c0 7.377 1.33 14.485 4.152 21.321 3.798 9.657 10.919 16.71 21.444 21.159 8.03 2.605 13.164 3.906 15.443 3.906 4.123-.65 6.879-1.248 8.29-1.79 7.594-1.846 14.282-5.046 19.6-9.603C719.266 514.203 724 502.54 724 488.543v-1.466c-1.333-4.449-2.513-9.928-6.42-16.438-9.765-12.588-21.601-18.88-35.273-18.88-11.287 0-21.463 4.448-30.578 13.346Zm-13.063 20.346c-1.334-.762-6.262-2.55-14.615-5.372-10.092-4.124-23.612-8.03-40.43-11.719-.22.652-.793 3.85-1.66 9.604 22.026 6.4 38.123 15.856 48.323 28.119 14.65 24.305 31.45 36.584 50.439 36.584h3.256c16.383 0 31.303-9.24 44.759-27.47 2.71-4.666 5.588-8.797 8.626-12.269 7.052-7.161 15.552-13.108 25.318-17.772 14.322-5.752 22.65-8.657 25.317-8.657v-.488c-1.333 0-2.667-2.767-2.667-8.302v-.325c-1.333 0-7.301 1.465-18.37 4.395-2.822 0-16.344 4.394-40.432 13.184l-.687 8.625c0 6.185-1.864 13.075-5.55 20.67-2.28 5.1-6.52 9.983-12.706 14.65-7.487 4.883-15.792 7.703-24.907 8.463-1.845 0-4.917-.488-9.474-1.464-23.112-6.079-34.54-22.843-34.54-50.294v-.162Zm163.669-102.703c-3.039 6.836-8.913 14.936-17.919 24.27-17.145 14.865-35.226 22.315-54.538 22.315H704.65c-.435 0-.651.723-.651 1.918v2.768c0 2.058.488 3.85 1.464 5.37 4.664 8.028 18.067 12.044 40.203 12.044 27.885 0 64.94-5.1 111.165-15.3 2.93 1.735 4.393 5.21 4.393 10.418 0 .976.027 3.254-.298 6.836-3.255.65-18.26 2.657-43.594 6.022v.976c1.334-.325 2.468-.488 3.555-.488 10.523 0 31.045 2.434 61.755 7.21 1.408-.326 2.346-.44 2.997-.44h.813c2.17 0 2.88 1.096 4.214 3.484v1.465c-1.334 2.93-3.346 4.384-5.19 4.384h-.325l-1.14-.21c-2.388-2.603-3.69-3.79-3.907-3.79h-1.464c-14.758-2.667-27.128-4-37.11-4h-3.092c-8.463 0-15.68.75-21.647 2.052-.219 0-.381 1.352-.488 3.956-2.497 1.083-9.603 2.792-21.321 5.07l-3.256-.965c-5.318 1.303-11.287 3.1-17.903 5.378a127.369 127.369 0 0 0-21.16 10.42c-7.921 4.773-14.216 11.088-18.88 18.468-14.757 21.81-30.599 32.954-47.525 32.954h-7.814c-16.6 0-32.281-11.1-47.036-32.26-7.162-13.456-23.764-23.74-49.805-33.073h-.27v1.544c0 3.581-3.202 6.076-9.713 7.487l-20.096-4.395c-1.301 0-2.192-3.527-2.192-10.579v-.325l.592-1.127c-7.27-1.3-14.438-1.938-22.032-1.938h-3.418c-10.635 0-21.431 1.016-32.39 3.078-4.124.432-6.346.751-6.673.97-1.845 2.494-3.379 3.74-4.461 3.74-2.063 0-3.618-1.468-4.951-4.398v-1.465c0-2.279 1.328-3.259 3.716-3.259h.813c.652 0 1.682-.08 3.094.246 30.814-4.667 51.028-7.119 61.013-7.119 2.279 0 4.697.148 4.697.692v-3.255c-2.666-.652-17.718-2.66-44.737-6.022-1.195 0-1.697-2.442-1.697-7.324.106-5.427 1.617-8.899 4.44-10.418 46.44 10.2 83.3 15.3 110.537 15.3 6.185 0 12.543-.38 19.272-1.138 15.3-2.824 22.852-8.248 22.852-16.276v-2.768c0-1.195-.001-1.918-.433-1.918h-32.552c-17.798 0-34.994-6.528-51.596-19.549-12.72-11.74-21.318-24.599-25.844-38.544 1.697.673 3.392 1.328 5.08 1.97 3.36 8.88 8.542 17.24 15.556 25.462 16.926 17.904 37.54 26.661 61.849 26.661h92.772c20.724 0 39.063-6.537 55.013-19.99 7.92-7.596 13.046-13.143 14.89-16.83 7.185-10.868 11.544-23.762 12.837-38.769.893 1.596 1.81 3.16 2.753 4.69-.841 9.231-3.382 18.666-7.99 28.314Z"/><path d="M712.463 490.667h.162l.814.713c.217 3.147.596 4.62 1.14 4.62h.325l-.237-1.597v-3.419c0-1.085.832-1.65 1.702-2.984h1.627c.543 0 .67.812.67 2.008v.325c0 6.943-.915 10.416-1.349 10.416-1.736 1.41-2.65 2.768-2.65 4.07v1.953c0 .216.074-.105-.251-.105h-.325c-1.628-1.334-2.604-2.796-2.931-2.796-.435 0-.76 1.069-.976 2.916l.325 7.78c-.218.977-.488 1.433-.813 1.433h-.815c-.325 0-.881-.332-.881-1.416V504h-1.397c-.435 0-1.27.112-1.27.33v4.558c0 .541-.288.813-.504.813-1.628 0-2.286-.65-2.286-1.952.216-3.04.402-4.884.402-5.534-.218-3.799-.286-5.752-.286-5.859-.544 0-1.176-1.245-1.935-3.415 0-.544.615-.941 1.81-2.274h3.58c.326 0 .597.59.815 1.461l-.49 2.261c.218.651.597 1.611 1.14 1.611h1.466c.65 0 1.302-.172 1.952-1.039.434-3.04.922-4.294 1.466-4.294M810.667 312v-.052c0-.325.429.052.102.052h-.102ZM808 311.948v.05c-.317-.003 0-.374 0-.05"/></g></g></svg>
