<?xml version="1.0" encoding="UTF-8" standalone="no"?>
<!DOCTYPE svg PUBLIC "-//W3C//DTD SVG 1.1//EN" "http://www.w3.org/Graphics/SVG/1.1/DTD/svg11.dtd">
<svg width="100%" height="100%" viewBox="0 0 64 64" version="1.1" xmlns="http://www.w3.org/2000/svg" xmlns:xlink="http://www.w3.org/1999/xlink" xml:space="preserve" xmlns:serif="http://www.serif.com/" style="fill-rule:evenodd;clip-rule:evenodd;stroke-linecap:round;stroke-linejoin:round;">
  <g transform="matrix(1,0,0,1,5,5)">
    <path d="M50.667,21.333C50.667,18.39 48.277,16 45.333,16L8,16C5.056,16 2.667,18.39 2.667,21.333L2.667,42.667C2.667,45.61 5.056,48 8,48L45.333,48C48.277,48 50.667,45.61 50.667,42.667L50.667,21.333Z" style="fill:rgb(176,255,92);fill-opacity:0.75;" />
  </g>
  <path d="M50.667,21.333C50.667,18.39 48.277,16 45.333,16L8,16C5.056,16 2.667,18.39 2.667,21.333L2.667,42.667C2.667,45.61 5.056,48 8,48L45.333,48C48.277,48 50.667,45.61 50.667,42.667L50.667,21.333Z" style="fill:none;stroke:currentColor;stroke-width:2px;" />
  <path d="M61.333,34.667L61.333,29.333" style="fill:none;fill-rule:nonzero;stroke:currentColor;stroke-width:2px;" />
</svg>
