<?xml version="1.0" encoding="UTF-8" standalone="no"?>
<!DOCTYPE svg PUBLIC "-//W3C//DTD SVG 1.1//EN" "http://www.w3.org/Graphics/SVG/1.1/DTD/svg11.dtd">
<svg width="100%" height="100%" viewBox="0 0 64 64" version="1.1" xmlns="http://www.w3.org/2000/svg" xmlns:xlink="http://www.w3.org/1999/xlink" xml:space="preserve" xmlns:serif="http://www.serif.com/" style="fill-rule:evenodd;clip-rule:evenodd;stroke-linecap:round;stroke-linejoin:round;">
  <g transform="matrix(1,0,0,1,2.66667,6)">
    <path d="M2.667,32C2.667,32 13.333,10.667 32,10.667C50.667,10.667 61.333,32 61.333,32C61.333,32 50.667,53.333 32,53.333C13.333,53.333 2.667,32 2.667,32Z" style="fill:rgb(227,183,237);fill-opacity:0.75;fill-rule:nonzero;" />
  </g>
  <path d="M2.667,32C2.667,32 13.333,10.667 32,10.667C50.667,10.667 61.333,32 61.333,32C61.333,32 50.667,53.333 32,53.333C13.333,53.333 2.667,32 2.667,32Z" style="fill:none;fill-rule:nonzero;stroke:currentColor;stroke-width:2px;" />
  <circle cx="32" cy="32" r="8" style="fill:none;stroke:currentColor;stroke-width:2px;" />
</svg>
